<svg width="3273" height="655" xmlns="http://www.w3.org/2000/svg" xmlns:xlink="http://www.w3.org/1999/xlink" xml:space="preserve" overflow="hidden"><g transform="translate(-593 -871)"><path d="M1528.5 1048.5C1528.5 1043.53 1532.75 1039.5 1538 1039.5 1543.25 1039.5 1547.5 1043.53 1547.5 1048.5 1547.5 1053.47 1543.25 1057.5 1538 1057.5 1532.75 1057.5 1528.5 1053.47 1528.5 1048.5Z" stroke="#000000" stroke-width="4.58333" stroke-miterlimit="8" fill="#FFFFFF" fill-rule="evenodd"/><path d="M1861.5 1096.5C1861.5 1091.53 1865.75 1087.5 1871 1087.5 1876.25 1087.5 1880.5 1091.53 1880.5 1096.5 1880.5 1101.47 1876.25 1105.5 1871 1105.5 1865.75 1105.5 1861.5 1101.47 1861.5 1096.5Z" stroke="#000000" stroke-width="4.58333" stroke-miterlimit="8" fill="#FFFFFF" fill-rule="evenodd"/><path d="M1953.5 1344C1953.5 1338.75 1957.75 1334.5 1963 1334.5 1968.25 1334.5 1972.5 1338.75 1972.5 1344 1972.5 1349.25 1968.25 1353.5 1963 1353.5 1957.75 1353.5 1953.5 1349.25 1953.5 1344Z" stroke="#000000" stroke-width="4.58333" stroke-miterlimit="8" fill="#FFFFFF" fill-rule="evenodd"/><path d="M1565.5 1418C1565.5 1412.75 1569.75 1408.5 1575 1408.5 1580.25 1408.5 1584.5 1412.75 1584.5 1418 1584.5 1423.25 1580.25 1427.5 1575 1427.5 1569.75 1427.5 1565.5 1423.25 1565.5 1418Z" stroke="#000000" stroke-width="4.58333" stroke-miterlimit="8" fill="#FFFFFF" fill-rule="evenodd"/><rect x="1395.5" y="970.5" width="696" height="555" stroke="#000000" stroke-width="1.14583" stroke-miterlimit="8" fill="none"/><path d="M1547 1048 1861.61 1096.5" stroke="#000000" stroke-width="2.29167" stroke-miterlimit="8" fill="none" fill-rule="evenodd"/><path d="M1870 1105 1962.51 1334.03" stroke="#000000" stroke-width="2.29167" stroke-miterlimit="8" fill="none" fill-rule="evenodd"/><path d="M0 0 372.482 67.65" stroke="#000000" stroke-width="2.29167" stroke-miterlimit="8" fill="none" fill-rule="evenodd" transform="matrix(1 0 0 -1 1581 1410.65)"/><path d="M1538 1057 1574.68 1408.29" stroke="#000000" stroke-width="2.29167" stroke-miterlimit="8" fill="none" fill-rule="evenodd"/><text font-family="DengXian,DengXian_MSFontService,sans-serif" font-weight="400" font-size="55" transform="matrix(1 0 0 1 626.179 1000)">Parent</text><text font-family="DengXian,DengXian_MSFontService,sans-serif" font-weight="400" font-size="55" transform="matrix(1 0 0 1 796.044 1111)">Child</text><text font-family="DengXian,DengXian_MSFontService,sans-serif" font-weight="400" font-size="55" transform="matrix(1 0 0 1 1017.71 1222)">Grandchild1</text><text font-family="DengXian,DengXian_MSFontService,sans-serif" font-weight="400" font-size="55" transform="matrix(1 0 0 1 1017.71 1333)">Grandchild2</text><text font-family="DengXian,DengXian_MSFontService,sans-serif" font-weight="400" font-size="55" transform="matrix(1 0 0 1 1018.78 1444)">Grandchild3</text><path d="M0 0 60.91 0 60.91 59.3123" stroke="#000000" stroke-width="2.29167" stroke-miterlimit="8" fill="none" fill-rule="evenodd" transform="matrix(1.83697e-16 1 1 -1.83697e-16 704 1033)"/><path d="M0 0 60.91 0 60.91 127.598" stroke="#000000" stroke-width="2.29167" stroke-miterlimit="8" fill="none" fill-rule="evenodd" transform="matrix(1.83697e-16 1 1 -1.83697e-16 857 1144)"/><path d="M0 0 171.803 0 171.803 127.598" stroke="#000000" stroke-width="2.29167" stroke-miterlimit="8" fill="none" fill-rule="evenodd" transform="matrix(1.83697e-16 1 1 -1.83697e-16 857 1144)"/><path d="M0 0 282.697 0 282.697 128.673" stroke="#000000" stroke-width="2.29167" stroke-miterlimit="8" fill="none" fill-rule="evenodd" transform="matrix(1.83697e-16 1 1 -1.83697e-16 857 1144)"/><path d="M2200 1115.57 2476.78 1115.57 2476.78 1214.55 2200 1214.55Z" fill="#E7E6E6" fill-rule="evenodd"/><path d="M2476.78 1115.57 2753.56 1115.57 2753.56 1214.55 2476.78 1214.55Z" fill="#E7E6E6" fill-rule="evenodd"/><path d="M2753.56 1115.57 3030.34 1115.57 3030.34 1214.55 2753.56 1214.55Z" fill="#E7E6E6" fill-rule="evenodd"/><path d="M3030.34 1115.57 3307.12 1115.57 3307.12 1214.55 3030.34 1214.55Z" fill="#E7E6E6" fill-rule="evenodd"/><path d="M3307.12 1115.57 3583.9 1115.57 3583.9 1214.55 3307.12 1214.55Z" fill="#E7E6E6" fill-rule="evenodd"/><path d="M3583.9 1115.57 3860.68 1115.57 3860.68 1214.55 3583.9 1214.55Z" fill="#E7E6E6" fill-rule="evenodd"/><path d="M2200 1313.53 2476.78 1313.53 2476.78 1412.52 2200 1412.52Z" fill="#4472C4" fill-rule="evenodd"/><path d="M2476.78 1313.53 2753.56 1313.53 2753.56 1412.52 2476.78 1412.52Z" fill="#4472C4" fill-rule="evenodd"/><path d="M2753.56 1313.53 3030.34 1313.53 3030.34 1412.52 2753.56 1412.52Z" fill="#4472C4" fill-rule="evenodd"/><path d="M3030.34 1313.53 3307.12 1313.53 3307.12 1412.52 3030.34 1412.52Z" fill="#4472C4" fill-rule="evenodd"/><path d="M3307.12 1313.53 3583.9 1313.53 3583.9 1412.52 3307.12 1412.52Z" fill="#4472C4" fill-rule="evenodd"/><path d="M3583.9 1313.53 3860.68 1313.53 3860.68 1412.52 3583.9 1412.52Z" fill="#4472C4" fill-rule="evenodd"/><path d="M2476.78 1113.28 2476.78 1414.81" stroke="#000000" stroke-width="4.58333" stroke-linejoin="round" stroke-miterlimit="10" fill="none" fill-rule="evenodd"/><path d="M2753.56 1113.28 2753.56 1414.81" stroke="#000000" stroke-width="4.58333" stroke-linejoin="round" stroke-miterlimit="10" fill="none" fill-rule="evenodd"/><path d="M3030.34 1113.28 3030.34 1414.81" stroke="#000000" stroke-width="4.58333" stroke-linejoin="round" stroke-miterlimit="10" fill="none" fill-rule="evenodd"/><path d="M3307.12 1113.28 3307.12 1414.81" stroke="#000000" stroke-width="4.58333" stroke-linejoin="round" stroke-miterlimit="10" fill="none" fill-rule="evenodd"/><path d="M3583.9 1113.28 3583.9 1414.81" stroke="#000000" stroke-width="4.58333" stroke-linejoin="round" stroke-miterlimit="10" fill="none" fill-rule="evenodd"/><path d="M2197.71 1214.55 3862.97 1214.55" stroke="#000000" stroke-width="4.58333" stroke-linejoin="round" stroke-miterlimit="10" fill="none" fill-rule="evenodd"/><path d="M2197.71 1313.53 3862.97 1313.53" stroke="#000000" stroke-width="4.58333" stroke-linejoin="round" stroke-miterlimit="10" fill="none" fill-rule="evenodd"/><path d="M2200 1113.28 2200 1414.81" stroke="#000000" stroke-width="4.58333" stroke-linejoin="round" stroke-miterlimit="10" fill="none" fill-rule="evenodd"/><path d="M3860.68 1113.28 3860.68 1414.81" stroke="#000000" stroke-width="4.58333" stroke-linejoin="round" stroke-miterlimit="10" fill="none" fill-rule="evenodd"/><path d="M2197.71 1115.57 3862.97 1115.57" stroke="#000000" stroke-width="4.58333" stroke-linejoin="round" stroke-miterlimit="10" fill="none" fill-rule="evenodd"/><path d="M2197.71 1412.52 3862.97 1412.52" stroke="#000000" stroke-width="4.58333" stroke-linejoin="round" stroke-miterlimit="10" fill="none" fill-rule="evenodd"/><text font-family="DengXian Light,DengXian Light_MSFontService,sans-serif" font-weight="700" font-size="55" transform="matrix(1 0 0 1 3628.04 1183)">IMPORT</text><text font-family="DengXian Light,DengXian Light_MSFontService,sans-serif" font-weight="700" font-size="55" transform="matrix(1 0 0 1 3351.26 1183)">EXPORT</text><text font-family="DengXian Light,DengXian Light_MSFontService,sans-serif" font-weight="700" font-size="55" transform="matrix(1 0 0 1 3063.88 1183)">GDP_EST</text><text font-family="DengXian Light,DengXian Light_MSFontService,sans-serif" font-weight="700" font-size="55" transform="matrix(1 0 0 1 2788.25 1183)">POP_EST</text><text font-family="DengXian Light,DengXian Light_MSFontService,sans-serif" font-weight="700" font-size="55" transform="matrix(1 0 0 1 2541.84 1183)">NAME</text><text font-family="DengXian Light,DengXian Light_MSFontService,sans-serif" font-weight="700" font-size="55" transform="matrix(1 0 0 1 2313.47 1183)">ID</text><text font-family="DengXian Light,DengXian Light_MSFontService,sans-serif" font-weight="300" font-size="55" transform="matrix(1 0 0 1 3652.1 1282)">30000</text><text font-family="DengXian Light,DengXian Light_MSFontService,sans-serif" font-weight="300" font-size="55" transform="matrix(1 0 0 1 3375.32 1282)">30000</text><text font-family="DengXian Light,DengXian Light_MSFontService,sans-serif" font-weight="300" font-size="55" transform="matrix(1 0 0 1 3098.54 1282)">10000</text><text font-family="DengXian Light,DengXian Light_MSFontService,sans-serif" font-weight="300" font-size="55" transform="matrix(1 0 0 1 2821.77 1282)">10000</text><text font-family="DengXian Light,DengXian Light_MSFontService,sans-serif" font-weight="300" font-size="55" transform="matrix(1 0 0 1 2568.76 1282)">XXX</text><text font-family="DengXian Light,DengXian Light_MSFontService,sans-serif" font-weight="300" font-size="55" transform="matrix(1 0 0 1 2324.35 1282)">1</text><text fill="#FFFFFF" font-family="DengXian Light,DengXian Light_MSFontService,sans-serif" font-weight="300" font-size="55" transform="matrix(1 0 0 1 3652.1 1381)">40000</text><text fill="#FFFFFF" font-family="DengXian Light,DengXian Light_MSFontService,sans-serif" font-weight="300" font-size="55" transform="matrix(1 0 0 1 3375.32 1381)">40000</text><text fill="#FFFFFF" font-family="DengXian Light,DengXian Light_MSFontService,sans-serif" font-weight="300" font-size="55" transform="matrix(1 0 0 1 3098.54 1381)">20000</text><text fill="#FFFFFF" font-family="DengXian Light,DengXian Light_MSFontService,sans-serif" font-weight="300" font-size="55" transform="matrix(1 0 0 1 2821.77 1381)">20000</text><text fill="#FFFFFF" font-family="DengXian Light,DengXian Light_MSFontService,sans-serif" font-weight="300" font-size="55" transform="matrix(1 0 0 1 2570.48 1381)">YYY</text><text fill="#FFFFFF" font-family="DengXian Light,DengXian Light_MSFontService,sans-serif" font-weight="300" font-size="55" transform="matrix(1 0 0 1 2324.35 1381)">2</text><text font-family="DengXian,DengXian_MSFontService,sans-serif" font-weight="400" font-size="55" transform="matrix(1 0 0 1 1646.53 939)">Polygon</text><text font-family="DengXian,DengXian_MSFontService,sans-serif" font-weight="400" font-size="55" transform="matrix(1 0 0 1 2914.61 1089)">User Data</text><text font-family="DengXian,DengXian_MSFontService,sans-serif" font-weight="400" font-size="55" transform="matrix(1 0 0 1 1593.47 1473)">Vertex</text><path d="M1395.42 1428.15 1331.92 1428.15 1331.92 1425.85 1395.42 1425.85ZM1336.5 1440.75 1309 1427 1336.5 1413.25Z" fill="#4472C4"/><path d="M2006.28 1312.89 2138.06 1346.16 2137.5 1348.38 2005.72 1315.11ZM2136.7 1332.82 2160 1352.88 2129.97 1359.48Z" fill="#4472C4"/></g></svg>