<svg width="2502" height="513" xmlns="http://www.w3.org/2000/svg" xmlns:xlink="http://www.w3.org/1999/xlink" xml:space="preserve" overflow="hidden"><g transform="translate(-495 -839)"><rect x="496.5" y="840.5" width="586" height="500" stroke="#000000" stroke-width="3.4375" stroke-linejoin="round" stroke-miterlimit="10" fill="none"/><text font-family="DengXian,DengXian_MSFontService,sans-serif" font-weight="400" font-size="55" transform="matrix(1 0 0 1 533.403 908)">Object Data Structure</text><text font-family="DengXian,DengXian_MSFontService,sans-serif" font-weight="400" font-size="55" transform="matrix(1 0 0 1 529.393 1040)">Parent </text><text font-family="DengXian,DengXian_MSFontService,sans-serif" font-weight="400" font-size="55" transform="matrix(1 0 0 1 574.08 1106)">└ Child</text><text font-family="DengXian,DengXian_MSFontService,sans-serif" font-weight="400" font-size="55" transform="matrix(1 0 0 1 678.351 1172)">└ Vertices</text><text font-family="DengXian,DengXian_MSFontService,sans-serif" font-weight="400" font-size="55" transform="matrix(1 0 0 1 678.351 1238)">└ Material</text><text font-family="DengXian,DengXian_MSFontService,sans-serif" font-weight="400" font-size="55" transform="matrix(1 0 0 1 678.351 1304)">└ User data</text><path d="M1838.71 977.363 2115.49 977.363 2115.49 1070.85 1838.71 1070.85Z" fill="#E7E6E6" fill-rule="evenodd"/><path d="M2115.49 977.363 2392.27 977.363 2392.27 1070.85 2115.49 1070.85Z" fill="#E7E6E6" fill-rule="evenodd"/><path d="M2392.27 977.363 2669.05 977.363 2669.05 1070.85 2392.27 1070.85Z" fill="#E7E6E6" fill-rule="evenodd"/><path d="M2669.05 977.363 2945.83 977.363 2945.83 1070.85 2669.05 1070.85Z" fill="#E7E6E6" fill-rule="evenodd"/><path d="M1838.71 1164.33 2115.49 1164.33 2115.49 1257.81 1838.71 1257.81Z" fill="#4472C4" fill-rule="evenodd"/><path d="M2115.49 1164.33 2392.27 1164.33 2392.27 1257.81 2115.49 1257.81Z" fill="#4472C4" fill-rule="evenodd"/><path d="M2392.27 1164.33 2669.05 1164.33 2669.05 1257.81 2392.27 1257.81Z" fill="#4472C4" fill-rule="evenodd"/><path d="M2669.05 1164.33 2945.83 1164.33 2945.83 1257.81 2669.05 1257.81Z" fill="#4472C4" fill-rule="evenodd"/><path d="M2115.49 976.79 2115.49 1258.38" stroke="#000000" stroke-width="1.14583" stroke-linejoin="round" stroke-miterlimit="10" fill="none" fill-rule="evenodd"/><path d="M2392.27 976.79 2392.27 1258.38" stroke="#000000" stroke-width="1.14583" stroke-linejoin="round" stroke-miterlimit="10" fill="none" fill-rule="evenodd"/><path d="M2669.05 976.79 2669.05 1258.38" stroke="#000000" stroke-width="1.14583" stroke-linejoin="round" stroke-miterlimit="10" fill="none" fill-rule="evenodd"/><path d="M1838.14 1070.85 2946.4 1070.85" stroke="#000000" stroke-width="1.14583" stroke-linejoin="round" stroke-miterlimit="10" fill="none" fill-rule="evenodd"/><path d="M1838.14 1164.33 2946.4 1164.33" stroke="#000000" stroke-width="1.14583" stroke-linejoin="round" stroke-miterlimit="10" fill="none" fill-rule="evenodd"/><path d="M1838.71 976.79 1838.71 1258.38" stroke="#000000" stroke-width="1.14583" stroke-linejoin="round" stroke-miterlimit="10" fill="none" fill-rule="evenodd"/><path d="M2945.83 976.79 2945.83 1258.38" stroke="#000000" stroke-width="1.14583" stroke-linejoin="round" stroke-miterlimit="10" fill="none" fill-rule="evenodd"/><path d="M1838.14 977.363 2946.4 977.363" stroke="#000000" stroke-width="1.14583" stroke-linejoin="round" stroke-miterlimit="10" fill="none" fill-rule="evenodd"/><path d="M1838.14 1257.81 2946.4 1257.81" stroke="#000000" stroke-width="1.14583" stroke-linejoin="round" stroke-miterlimit="10" fill="none" fill-rule="evenodd"/><text font-family="DengXian,DengXian_MSFontService,sans-serif" font-weight="400" font-size="50" transform="matrix(1 0 0 1 2709.47 1041)">GDP_EST</text><text font-family="DengXian,DengXian_MSFontService,sans-serif" font-weight="400" font-size="50" transform="matrix(1 0 0 1 2434.12 1041)">POP_EST</text><text font-family="DengXian,DengXian_MSFontService,sans-serif" font-weight="400" font-size="50" transform="matrix(1 0 0 1 2185.13 1041)">NAME</text><text font-family="DengXian,DengXian_MSFontService,sans-serif" font-weight="400" font-size="50" transform="matrix(1 0 0 1 1953.32 1041)">ID</text><text font-family="DengXian,DengXian_MSFontService,sans-serif" font-weight="400" font-size="50" transform="matrix(1 0 0 1 2741.55 1134)">10000</text><text font-family="DengXian,DengXian_MSFontService,sans-serif" font-weight="400" font-size="50" transform="matrix(1 0 0 1 2464.77 1134)">10000</text><text font-family="DengXian,DengXian_MSFontService,sans-serif" font-weight="400" font-size="50" transform="matrix(1 0 0 1 2210.05 1134)">XXX</text><text font-family="DengXian,DengXian_MSFontService,sans-serif" font-weight="400" font-size="50" transform="matrix(1 0 0 1 1963.92 1134)">1</text><text fill="#FFFFFF" font-family="DengXian,DengXian_MSFontService,sans-serif" font-weight="400" font-size="50" transform="matrix(1 0 0 1 2741.55 1228)">20000</text><text fill="#FFFFFF" font-family="DengXian,DengXian_MSFontService,sans-serif" font-weight="400" font-size="50" transform="matrix(1 0 0 1 2464.77 1228)">20000</text><text fill="#FFFFFF" font-family="DengXian,DengXian_MSFontService,sans-serif" font-weight="400" font-size="50" transform="matrix(1 0 0 1 2212.63 1228)">YYY</text><text fill="#FFFFFF" font-family="DengXian,DengXian_MSFontService,sans-serif" font-weight="400" font-size="50" transform="matrix(1 0 0 1 1963.92 1228)">2</text><rect x="1143.5" y="842.5" width="585" height="500" stroke="#000000" stroke-width="1.14583" stroke-miterlimit="8" fill="none"/><path d="M1264.5 987C1264.5 981.753 1268.53 977.5 1273.5 977.5 1278.47 977.5 1282.5 981.753 1282.5 987 1282.5 992.247 1278.47 996.5 1273.5 996.5 1268.53 996.5 1264.5 992.247 1264.5 987Z" stroke="#000000" stroke-width="4.58333" stroke-miterlimit="8" fill="#FFFFFF" fill-rule="evenodd"/><path d="M1574.5 1045.5C1574.5 1040.53 1578.75 1036.5 1584 1036.5 1589.25 1036.5 1593.5 1040.53 1593.5 1045.5 1593.5 1050.47 1589.25 1054.5 1584 1054.5 1578.75 1054.5 1574.5 1050.47 1574.5 1045.5Z" stroke="#000000" stroke-width="4.58333" stroke-miterlimit="8" fill="#FFFFFF" fill-rule="evenodd"/><path d="M1593.5 1225.5C1593.5 1220.53 1597.53 1216.5 1602.5 1216.5 1607.47 1216.5 1611.5 1220.53 1611.5 1225.5 1611.5 1230.47 1607.47 1234.5 1602.5 1234.5 1597.53 1234.5 1593.5 1230.47 1593.5 1225.5Z" stroke="#000000" stroke-width="4.58333" stroke-miterlimit="8" fill="#FFFFFF" fill-rule="evenodd"/><path d="M1342.5 1293.5C1342.5 1288.53 1346.75 1284.5 1352 1284.5 1357.25 1284.5 1361.5 1288.53 1361.5 1293.5 1361.5 1298.47 1357.25 1302.5 1352 1302.5 1346.75 1302.5 1342.5 1298.47 1342.5 1293.5Z" stroke="#000000" stroke-width="4.58333" stroke-miterlimit="8" fill="#FFFFFF" fill-rule="evenodd"/><path d="M1282 987 1574.1 1045.67" stroke="#000000" stroke-width="2.29167" stroke-miterlimit="8" fill="none" fill-rule="evenodd"/><path d="M1583 1054 1601.54 1215.29" stroke="#000000" stroke-width="2.29167" stroke-miterlimit="8" fill="none" fill-rule="evenodd"/><path d="M0 0 234.472 61.3199" stroke="#000000" stroke-width="2.29167" stroke-miterlimit="8" fill="none" fill-rule="evenodd" transform="matrix(1 0 0 -1 1358 1286.32)"/><path d="M1273 996 1351.66 1283.96" stroke="#000000" stroke-width="2.29167" stroke-miterlimit="8" fill="none" fill-rule="evenodd"/><text font-family="DengXian,DengXian_MSFontService,sans-serif" font-weight="400" font-size="55" transform="matrix(1 0 0 1 1302.32 908)">Scene View</text><path d="M789 1088.85 1119.95 1088.85 1119.95 1091.15 789 1091.15ZM1115.36 1076.25 1142.86 1090 1115.36 1103.75Z" fill="#4472C4"/><text font-family="DengXian,DengXian_MSFontService,sans-serif" font-weight="400" font-size="55" transform="matrix(1 0 0 1 2264.79 908)">Table View</text><rect x="1789.5" y="841.5" width="1207" height="499" stroke="#000000" stroke-width="1.14583" stroke-miterlimit="8" fill="none"/><path d="M1728 1223.85 1815.63 1223.85 1815.63 1226.15 1728 1226.15ZM1811.05 1211.25 1838.55 1225 1811.05 1238.75Z" fill="#4472C4"/></g></svg>