<?xml version="1.0" encoding="UTF-8"?>
<svg xmlns="http://www.w3.org/2000/svg" xmlns:xlink="http://www.w3.org/1999/xlink" width="250px" height="119px" viewBox="0 0 250 100" version="1.1">
<g id="surface1">
<path style=" stroke:none;fill-rule:evenodd;fill:rgb(0%,0%,0%);fill-opacity:1;" d="M 49.628906 19.699219 L 70.265625 19.699219 L 70.265625 24.757812 L 69.136719 24.757812 C 69.003906 23.546875 68.738281 22.585938 68.339844 21.878906 C 67.941406 21.171875 67.339844 20.816406 66.53125 20.816406 L 53.046875 20.816406 L 63.242188 34.671875 L 63.242188 35.707031 L 52.238281 50.65625 L 67.058594 50.65625 C 67.714844 50.65625 68.214844 50.425781 68.5625 49.964844 C 68.910156 49.5 69.210938 48.46875 69.460938 46.867188 L 70.726562 46.867188 L 70.289062 53.136719 L 49.28125 53.136719 L 49.28125 52.289062 L 61.25 36.046875 L 49.628906 20.511719 Z M 49.628906 19.699219 "/>
<path style=" stroke:none;fill-rule:evenodd;fill:rgb(0%,0%,0%);fill-opacity:1;" d="M 78.832031 33.160156 L 79.335938 33.160156 L 78.105469 38.652344 C 77.980469 39.210938 77.917969 39.632812 77.917969 39.917969 C 77.917969 40.144531 77.957031 40.3125 78.03125 40.414062 C 78.105469 40.515625 78.21875 40.566406 78.378906 40.566406 C 78.550781 40.566406 78.734375 40.5 78.925781 40.355469 C 79.121094 40.21875 79.394531 39.953125 79.746094 39.558594 L 80.234375 40.039062 C 79.675781 40.625 79.222656 41.023438 78.875 41.234375 C 78.527344 41.445312 78.136719 41.550781 77.703125 41.550781 C 77.335938 41.550781 77.039062 41.414062 76.816406 41.144531 C 76.59375 40.871094 76.484375 40.527344 76.484375 40.105469 C 76.484375 39.671875 76.5625 39.117188 76.722656 38.445312 L 77.363281 35.648438 C 77.496094 35.082031 77.558594 34.652344 77.558594 34.367188 C 77.558594 34.113281 77.5 33.9375 77.375 33.84375 C 77.253906 33.753906 77.011719 33.703125 76.652344 33.691406 L 76.75 33.238281 Z M 78.601562 29.886719 L 80.113281 29.886719 L 79.722656 31.542969 L 78.210938 31.542969 Z M 78.601562 29.886719 "/>
<path style=" stroke:none;fill-rule:evenodd;fill:rgb(0%,0%,0%);fill-opacity:1;" d="M 86.597656 34.566406 L 88.492188 34.566406 L 88.492188 36.648438 L 86.597656 36.648438 Z M 86.597656 34.566406 "/>
<path style=" stroke:none;fill-rule:evenodd;fill:rgb(0%,0%,0%);fill-opacity:1;" d="M 97.058594 33.09375 C 97.234375 33.09375 97.390625 33.113281 97.523438 33.152344 C 97.65625 33.191406 97.777344 33.253906 97.878906 33.335938 C 97.980469 33.417969 98.070312 33.527344 98.152344 33.660156 C 98.230469 33.789062 98.308594 33.96875 98.382812 34.191406 C 98.457031 34.417969 98.527344 34.695312 98.589844 35.03125 C 98.65625 35.363281 98.714844 35.710938 98.765625 36.070312 L 98.851562 36.070312 C 99.398438 35.300781 99.8125 34.734375 100.09375 34.378906 C 100.378906 34.023438 100.613281 33.757812 100.808594 33.582031 C 101.003906 33.410156 101.1875 33.289062 101.367188 33.21875 C 101.546875 33.144531 101.785156 33.109375 102.082031 33.109375 C 102.347656 33.109375 102.570312 33.144531 102.738281 33.210938 L 102.398438 34.757812 L 101.800781 34.757812 C 101.765625 34.523438 101.664062 34.402344 101.5 34.402344 C 101.449219 34.402344 101.394531 34.410156 101.339844 34.425781 C 101.28125 34.445312 101.210938 34.480469 101.128906 34.539062 C 101.046875 34.597656 100.925781 34.707031 100.765625 34.871094 C 100.605469 35.039062 100.425781 35.238281 100.226562 35.480469 C 100.027344 35.71875 99.824219 35.96875 99.613281 36.234375 L 99.03125 36.960938 C 99.132812 37.507812 99.230469 37.980469 99.320312 38.378906 C 99.414062 38.777344 99.496094 39.109375 99.566406 39.375 C 99.636719 39.640625 99.699219 39.847656 99.753906 40 C 99.808594 40.15625 99.867188 40.273438 99.929688 40.351562 C 99.992188 40.425781 100.054688 40.480469 100.121094 40.511719 C 100.1875 40.542969 100.261719 40.558594 100.347656 40.558594 C 100.5 40.558594 100.652344 40.5 100.796875 40.378906 C 100.941406 40.257812 101.148438 39.988281 101.421875 39.566406 L 101.980469 39.933594 C 101.582031 40.527344 101.21875 40.945312 100.898438 41.1875 C 100.578125 41.429688 100.195312 41.550781 99.75 41.550781 C 99.503906 41.550781 99.296875 41.507812 99.125 41.417969 C 98.953125 41.332031 98.804688 41.1875 98.679688 40.996094 C 98.554688 40.800781 98.445312 40.5 98.347656 40.089844 C 98.171875 39.359375 98.0625 38.800781 98.023438 38.414062 L 97.9375 38.414062 C 97.335938 39.261719 96.886719 39.871094 96.59375 40.242188 C 96.300781 40.613281 96.058594 40.886719 95.867188 41.0625 C 95.675781 41.238281 95.488281 41.363281 95.3125 41.4375 C 95.132812 41.507812 94.894531 41.542969 94.597656 41.542969 C 94.328125 41.542969 94.109375 41.507812 93.9375 41.4375 L 94.28125 39.890625 L 94.878906 39.890625 C 94.914062 40.132812 95.011719 40.25 95.179688 40.25 C 95.257812 40.25 95.34375 40.230469 95.429688 40.1875 C 95.519531 40.144531 95.644531 40.042969 95.808594 39.878906 C 95.976562 39.714844 96.203125 39.460938 96.492188 39.113281 C 96.785156 38.765625 97.207031 38.242188 97.757812 37.550781 C 97.671875 37.097656 97.585938 36.664062 97.492188 36.25 C 97.402344 35.832031 97.308594 35.445312 97.210938 35.085938 C 97.113281 34.726562 97.035156 34.492188 96.972656 34.378906 C 96.910156 34.269531 96.84375 34.191406 96.773438 34.148438 C 96.699219 34.105469 96.609375 34.085938 96.503906 34.085938 C 96.382812 34.085938 96.273438 34.113281 96.179688 34.167969 C 96.082031 34.21875 95.976562 34.316406 95.863281 34.449219 C 95.746094 34.582031 95.597656 34.792969 95.410156 35.078125 L 94.855469 34.710938 C 95.210938 34.167969 95.558594 33.765625 95.886719 33.496094 C 96.21875 33.226562 96.609375 33.09375 97.058594 33.09375 Z M 97.058594 33.09375 "/>
<path style=" stroke:none;fill-rule:evenodd;fill:rgb(0%,0%,0%);fill-opacity:1;" d="M 105.425781 39.011719 L 105.789062 39.011719 L 104.898438 43 C 104.808594 43.402344 104.761719 43.710938 104.761719 43.917969 C 104.761719 44.082031 104.789062 44.203125 104.84375 44.277344 C 104.894531 44.351562 104.980469 44.390625 105.097656 44.390625 C 105.21875 44.390625 105.351562 44.339844 105.492188 44.238281 C 105.632812 44.136719 105.832031 43.945312 106.089844 43.65625 L 106.441406 44.003906 C 106.039062 44.429688 105.707031 44.722656 105.457031 44.875 C 105.203125 45.027344 104.921875 45.101562 104.605469 45.101562 C 104.335938 45.101562 104.121094 45.007812 103.960938 44.808594 C 103.800781 44.613281 103.71875 44.359375 103.71875 44.054688 C 103.71875 43.738281 103.777344 43.339844 103.894531 42.847656 L 104.359375 40.820312 C 104.453125 40.40625 104.5 40.09375 104.5 39.890625 C 104.5 39.703125 104.457031 39.574219 104.367188 39.511719 C 104.277344 39.441406 104.105469 39.40625 103.84375 39.398438 L 103.910156 39.070312 Z M 105.257812 36.636719 L 106.355469 36.636719 L 106.070312 37.839844 L 104.972656 37.839844 Z M 105.257812 36.636719 "/>
<path style=" stroke:none;fill-rule:evenodd;fill:rgb(0%,0%,0%);fill-opacity:1;" d="M 67.894531 7.25 C 67.609375 7.25 67.371094 7.335938 67.179688 7.503906 C 66.988281 7.675781 66.832031 7.917969 66.714844 8.238281 C 66.597656 8.558594 66.511719 8.945312 66.464844 9.402344 C 66.414062 9.859375 66.390625 10.375 66.390625 10.953125 C 66.390625 12.300781 66.515625 13.292969 66.765625 13.921875 C 67.015625 14.554688 67.402344 14.871094 67.925781 14.871094 C 68.425781 14.871094 68.796875 14.574219 69.039062 13.976562 C 69.28125 13.386719 69.402344 12.464844 69.402344 11.21875 C 69.402344 10.265625 69.339844 9.496094 69.21875 8.90625 C 69.09375 8.316406 68.921875 7.894531 68.699219 7.636719 C 68.476562 7.378906 68.210938 7.25 67.894531 7.25 Z M 60.707031 7.25 C 60.421875 7.25 60.179688 7.335938 59.988281 7.503906 C 59.796875 7.675781 59.640625 7.917969 59.523438 8.238281 C 59.40625 8.558594 59.320312 8.945312 59.273438 9.402344 C 59.222656 9.859375 59.199219 10.375 59.199219 10.953125 C 59.199219 12.300781 59.324219 13.292969 59.574219 13.921875 C 59.824219 14.554688 60.210938 14.871094 60.738281 14.871094 C 61.238281 14.871094 61.609375 14.574219 61.851562 13.976562 C 62.09375 13.386719 62.210938 12.464844 62.210938 11.21875 C 62.210938 10.265625 62.152344 9.496094 62.027344 8.90625 C 61.902344 8.316406 61.730469 7.894531 61.507812 7.636719 C 61.289062 7.378906 61.019531 7.25 60.707031 7.25 Z M 67.925781 6.722656 C 68.832031 6.722656 69.507812 7.074219 69.949219 7.773438 C 70.390625 8.472656 70.613281 9.53125 70.613281 10.945312 C 70.613281 12.410156 70.375 13.519531 69.902344 14.269531 C 69.429688 15.019531 68.738281 15.398438 67.828125 15.398438 C 66.933594 15.398438 66.269531 15.046875 65.832031 14.34375 C 65.398438 13.636719 65.179688 12.570312 65.179688 11.136719 C 65.179688 10.375 65.246094 9.71875 65.382812 9.164062 C 65.515625 8.609375 65.703125 8.148438 65.945312 7.789062 C 66.1875 7.425781 66.476562 7.15625 66.816406 6.984375 C 67.15625 6.8125 67.527344 6.722656 67.925781 6.722656 Z M 60.738281 6.722656 C 61.640625 6.722656 62.316406 7.074219 62.757812 7.773438 C 63.199219 8.472656 63.421875 9.53125 63.421875 10.945312 C 63.421875 12.410156 63.183594 13.519531 62.710938 14.269531 C 62.238281 15.019531 61.546875 15.398438 60.636719 15.398438 C 59.742188 15.398438 59.078125 15.046875 58.644531 14.34375 C 58.207031 13.636719 57.988281 12.570312 57.988281 11.136719 C 57.988281 10.375 58.054688 9.71875 58.191406 9.164062 C 58.324219 8.609375 58.511719 8.148438 58.753906 7.789062 C 58.996094 7.425781 59.285156 7.15625 59.625 6.984375 C 59.964844 6.8125 60.335938 6.722656 60.738281 6.722656 Z M 54.003906 6.722656 L 54.347656 6.722656 C 54.320312 7.121094 54.308594 7.671875 54.308594 8.375 L 54.308594 13.679688 C 54.308594 13.917969 54.320312 14.097656 54.347656 14.21875 C 54.375 14.34375 54.421875 14.441406 54.492188 14.515625 C 54.558594 14.59375 54.65625 14.652344 54.785156 14.699219 C 54.914062 14.742188 55.074219 14.773438 55.269531 14.796875 C 55.464844 14.820312 55.722656 14.835938 56.039062 14.84375 L 56.039062 15.296875 L 51.457031 15.296875 L 51.457031 14.84375 C 51.914062 14.824219 52.242188 14.796875 52.4375 14.761719 C 52.632812 14.726562 52.785156 14.671875 52.886719 14.601562 C 52.992188 14.53125 53.066406 14.433594 53.113281 14.304688 C 53.160156 14.175781 53.1875 13.96875 53.1875 13.679688 L 53.1875 8.640625 C 53.1875 8.476562 53.15625 8.355469 53.097656 8.28125 C 53.039062 8.203125 52.957031 8.164062 52.84375 8.164062 C 52.710938 8.164062 52.523438 8.230469 52.28125 8.367188 C 52.035156 8.503906 51.734375 8.695312 51.375 8.933594 L 51.101562 8.453125 Z M 54.003906 6.722656 "/>
<path style=" stroke:none;fill-rule:evenodd;fill:rgb(0%,0%,0%);fill-opacity:1;" d="M 52.644531 57.847656 L 53.007812 57.847656 L 52.117188 61.835938 C 52.023438 62.242188 51.980469 62.546875 51.980469 62.753906 C 51.980469 62.917969 52.007812 63.042969 52.058594 63.117188 C 52.113281 63.191406 52.199219 63.226562 52.316406 63.226562 C 52.4375 63.226562 52.570312 63.175781 52.710938 63.074219 C 52.851562 62.972656 53.050781 62.78125 53.308594 62.496094 L 53.660156 62.84375 C 53.253906 63.265625 52.925781 63.558594 52.675781 63.710938 C 52.421875 63.863281 52.136719 63.941406 51.824219 63.941406 C 51.554688 63.941406 51.339844 63.84375 51.179688 63.644531 C 51.019531 63.449219 50.9375 63.195312 50.9375 62.890625 C 50.9375 62.574219 50.996094 62.175781 51.109375 61.6875 L 51.578125 59.65625 C 51.671875 59.242188 51.71875 58.929688 51.71875 58.726562 C 51.71875 58.539062 51.675781 58.414062 51.585938 58.347656 C 51.496094 58.277344 51.320312 58.242188 51.0625 58.234375 L 51.128906 57.90625 Z M 52.476562 55.472656 L 53.574219 55.472656 L 53.289062 56.675781 L 52.191406 56.675781 Z M 52.476562 55.472656 "/>
<path style=" stroke:none;fill-rule:evenodd;fill:rgb(0%,0%,0%);fill-opacity:1;" d="M 55.519531 61.082031 L 63.160156 61.082031 L 63.160156 61.910156 L 55.519531 61.910156 Z M 55.519531 58.507812 L 63.160156 58.507812 L 63.160156 59.335938 L 55.519531 59.335938 Z M 55.519531 58.507812 "/>
<path style=" stroke:none;fill-rule:evenodd;fill:rgb(0%,0%,0%);fill-opacity:1;" d="M 68.214844 55.265625 L 68.554688 55.265625 C 68.53125 55.664062 68.519531 56.214844 68.519531 56.917969 L 68.519531 62.21875 C 68.519531 62.460938 68.53125 62.640625 68.558594 62.761719 C 68.585938 62.886719 68.632812 62.984375 68.703125 63.0625 C 68.769531 63.136719 68.867188 63.195312 68.996094 63.242188 C 69.125 63.285156 69.285156 63.320312 69.480469 63.339844 C 69.675781 63.363281 69.929688 63.378906 70.25 63.386719 L 70.25 63.839844 L 65.664062 63.839844 L 65.664062 63.386719 C 66.125 63.367188 66.453125 63.339844 66.648438 63.300781 C 66.84375 63.269531 66.996094 63.214844 67.097656 63.144531 C 67.203125 63.074219 67.277344 62.976562 67.324219 62.847656 C 67.371094 62.71875 67.394531 62.511719 67.394531 62.21875 L 67.394531 57.183594 C 67.394531 57.019531 67.367188 56.898438 67.308594 56.824219 C 67.25 56.746094 67.167969 56.707031 67.054688 56.707031 C 66.921875 56.707031 66.734375 56.773438 66.492188 56.910156 C 66.246094 57.046875 65.945312 57.238281 65.585938 57.476562 L 65.3125 56.996094 Z M 68.214844 55.265625 "/>
<path style=" stroke:none;fill-rule:evenodd;fill:rgb(0%,0%,0%);fill-opacity:1;" d="M 25.433594 35.125 L 25.953125 35.125 L 25.953125 41.238281 C 25.953125 41.730469 25.976562 42.070312 26.023438 42.261719 C 26.070312 42.453125 26.15625 42.597656 26.285156 42.695312 C 26.410156 42.796875 26.621094 42.882812 26.910156 42.957031 L 26.910156 43.378906 L 23.5625 43.378906 L 23.5625 42.957031 C 23.785156 42.890625 23.941406 42.832031 24.035156 42.777344 C 24.128906 42.726562 24.210938 42.65625 24.277344 42.5625 C 24.339844 42.472656 24.394531 42.332031 24.429688 42.144531 C 24.464844 41.957031 24.484375 41.664062 24.484375 41.265625 L 24.484375 37.535156 C 24.484375 37.171875 24.480469 36.878906 24.46875 36.65625 C 24.457031 36.433594 24.417969 36.253906 24.347656 36.121094 C 24.28125 35.984375 24.175781 35.886719 24.035156 35.824219 C 23.898438 35.753906 23.699219 35.699219 23.441406 35.65625 L 23.441406 35.199219 Z M 33.671875 35.0625 C 33.976562 35.0625 34.253906 35.101562 34.496094 35.171875 C 34.738281 35.242188 34.949219 35.351562 35.136719 35.5 C 35.320312 35.648438 35.472656 35.832031 35.59375 36.050781 C 35.710938 36.269531 35.800781 36.535156 35.863281 36.84375 C 35.921875 37.152344 35.953125 37.542969 35.953125 38.015625 L 35.953125 41.238281 C 35.953125 41.632812 35.964844 41.917969 35.988281 42.09375 C 36.007812 42.269531 36.050781 42.40625 36.105469 42.503906 C 36.164062 42.601562 36.246094 42.683594 36.355469 42.75 C 36.460938 42.8125 36.648438 42.882812 36.917969 42.957031 L 36.917969 43.378906 L 33.550781 43.378906 L 33.550781 42.957031 C 33.773438 42.890625 33.933594 42.832031 34.03125 42.777344 C 34.125 42.726562 34.207031 42.65625 34.273438 42.5625 C 34.339844 42.472656 34.390625 42.332031 34.425781 42.140625 C 34.464844 41.949219 34.484375 41.660156 34.484375 41.273438 L 34.484375 39.03125 C 34.484375 38.632812 34.472656 38.273438 34.449219 37.945312 C 34.425781 37.621094 34.386719 37.355469 34.332031 37.148438 C 34.277344 36.9375 34.214844 36.777344 34.136719 36.660156 C 34.058594 36.542969 33.96875 36.445312 33.863281 36.359375 C 33.757812 36.277344 33.636719 36.210938 33.5 36.164062 C 33.363281 36.113281 33.183594 36.089844 32.960938 36.089844 C 32.738281 36.089844 32.527344 36.132812 32.328125 36.222656 C 32.128906 36.3125 31.910156 36.464844 31.671875 36.679688 C 31.433594 36.898438 31.257812 37.109375 31.152344 37.320312 C 31.042969 37.53125 30.988281 37.773438 30.988281 38.046875 L 30.988281 41.238281 C 30.988281 41.730469 31.011719 42.070312 31.054688 42.261719 C 31.101562 42.453125 31.1875 42.597656 31.316406 42.695312 C 31.445312 42.796875 31.65625 42.882812 31.945312 42.957031 L 31.945312 43.378906 L 28.597656 43.378906 L 28.597656 42.957031 C 28.816406 42.890625 28.976562 42.832031 29.070312 42.777344 C 29.164062 42.726562 29.242188 42.65625 29.308594 42.5625 C 29.375 42.472656 29.425781 42.332031 29.464844 42.144531 C 29.5 41.957031 29.519531 41.664062 29.519531 41.265625 L 29.519531 37.535156 C 29.519531 37.171875 29.511719 36.878906 29.5 36.65625 C 29.488281 36.433594 29.449219 36.253906 29.382812 36.121094 C 29.3125 35.984375 29.210938 35.886719 29.070312 35.824219 C 28.929688 35.753906 28.734375 35.699219 28.476562 35.65625 L 28.476562 35.199219 L 30.476562 35.125 L 30.996094 35.125 L 30.902344 36.519531 L 31.023438 36.550781 C 31.445312 36.125 31.785156 35.820312 32.042969 35.636719 C 32.300781 35.457031 32.566406 35.3125 32.828125 35.214844 C 33.09375 35.113281 33.375 35.0625 33.671875 35.0625 Z M 13.972656 35.0625 C 14.542969 35.0625 15.007812 35.195312 15.367188 35.457031 C 15.726562 35.71875 15.972656 36.121094 16.109375 36.664062 C 16.535156 36.230469 16.882812 35.910156 17.148438 35.703125 C 17.414062 35.5 17.683594 35.34375 17.960938 35.230469 C 18.234375 35.121094 18.53125 35.0625 18.851562 35.0625 C 19.234375 35.0625 19.5625 35.121094 19.839844 35.230469 C 20.113281 35.34375 20.347656 35.511719 20.539062 35.742188 C 20.730469 35.976562 20.871094 36.265625 20.957031 36.613281 C 21.046875 36.960938 21.089844 37.425781 21.089844 38.015625 L 21.089844 41.238281 C 21.089844 41.671875 21.105469 41.972656 21.132812 42.136719 C 21.160156 42.300781 21.203125 42.429688 21.257812 42.519531 C 21.3125 42.613281 21.390625 42.691406 21.5 42.757812 C 21.609375 42.824219 21.789062 42.890625 22.046875 42.957031 L 22.046875 43.378906 L 18.6875 43.378906 L 18.6875 42.957031 C 18.910156 42.890625 19.070312 42.832031 19.167969 42.777344 C 19.265625 42.726562 19.347656 42.65625 19.410156 42.5625 C 19.476562 42.472656 19.527344 42.332031 19.566406 42.140625 C 19.601562 41.949219 19.621094 41.660156 19.621094 41.273438 L 19.621094 39.03125 C 19.621094 38.546875 19.609375 38.148438 19.582031 37.832031 C 19.554688 37.515625 19.515625 37.261719 19.460938 37.074219 C 19.410156 36.886719 19.34375 36.738281 19.265625 36.628906 C 19.1875 36.519531 19.101562 36.425781 19.003906 36.347656 C 18.910156 36.269531 18.792969 36.203125 18.664062 36.160156 C 18.53125 36.113281 18.359375 36.089844 18.144531 36.089844 C 17.914062 36.089844 17.703125 36.136719 17.507812 36.226562 C 17.308594 36.320312 17.097656 36.472656 16.867188 36.6875 C 16.632812 36.90625 16.46875 37.125 16.367188 37.34375 C 16.261719 37.5625 16.210938 37.820312 16.210938 38.117188 L 16.210938 41.238281 C 16.210938 41.671875 16.226562 41.972656 16.253906 42.136719 C 16.28125 42.300781 16.324219 42.429688 16.378906 42.519531 C 16.433594 42.613281 16.511719 42.691406 16.621094 42.757812 C 16.730469 42.824219 16.914062 42.890625 17.167969 42.957031 L 17.167969 43.378906 L 13.8125 43.378906 L 13.8125 42.957031 C 14.03125 42.890625 14.191406 42.832031 14.289062 42.777344 C 14.386719 42.726562 14.46875 42.65625 14.53125 42.5625 C 14.597656 42.472656 14.648438 42.332031 14.6875 42.140625 C 14.722656 41.949219 14.742188 41.660156 14.742188 41.273438 L 14.742188 39.03125 C 14.742188 38.527344 14.726562 38.109375 14.699219 37.792969 C 14.671875 37.472656 14.625 37.214844 14.566406 37.023438 C 14.507812 36.828125 14.429688 36.671875 14.335938 36.550781 C 14.242188 36.433594 14.148438 36.339844 14.050781 36.277344 C 13.953125 36.214844 13.839844 36.171875 13.707031 36.136719 C 13.578125 36.105469 13.429688 36.089844 13.265625 36.089844 C 13.03125 36.089844 12.8125 36.144531 12.605469 36.25 C 12.402344 36.355469 12.191406 36.507812 11.976562 36.707031 C 11.765625 36.90625 11.605469 37.113281 11.496094 37.332031 C 11.386719 37.546875 11.332031 37.78125 11.332031 38.03125 L 11.332031 41.238281 C 11.332031 41.5625 11.34375 41.8125 11.359375 41.984375 C 11.375 42.152344 11.402344 42.289062 11.441406 42.382812 C 11.476562 42.484375 11.523438 42.558594 11.582031 42.621094 C 11.636719 42.679688 11.71875 42.738281 11.824219 42.792969 C 11.929688 42.84375 12.089844 42.898438 12.296875 42.957031 L 12.296875 43.378906 L 8.949219 43.378906 L 8.949219 42.957031 C 9.167969 42.890625 9.320312 42.832031 9.414062 42.777344 C 9.507812 42.726562 9.589844 42.65625 9.660156 42.5625 C 9.726562 42.472656 9.777344 42.332031 9.8125 42.144531 C 9.847656 41.957031 9.863281 41.664062 9.863281 41.265625 L 9.863281 37.535156 C 9.863281 37.171875 9.859375 36.878906 9.847656 36.65625 C 9.835938 36.433594 9.796875 36.253906 9.726562 36.121094 C 9.660156 35.984375 9.554688 35.886719 9.414062 35.824219 C 9.277344 35.753906 9.078125 35.699219 8.820312 35.65625 L 8.820312 35.199219 L 10.820312 35.125 L 11.34375 35.125 L 11.246094 36.519531 L 11.367188 36.550781 C 11.710938 36.210938 11.988281 35.953125 12.210938 35.777344 C 12.429688 35.605469 12.640625 35.464844 12.84375 35.359375 C 13.050781 35.253906 13.242188 35.179688 13.421875 35.132812 C 13.601562 35.089844 13.785156 35.0625 13.972656 35.0625 Z M 24.433594 31.847656 L 26.003906 31.847656 L 26.003906 33.507812 L 24.433594 33.507812 Z M 24.433594 31.847656 "/>
<path style=" stroke:none;fill-rule:evenodd;fill:rgb(0%,0%,0%);fill-opacity:1;" d="M 52.433594 86.921875 C 52.609375 86.921875 52.765625 86.941406 52.898438 86.980469 C 53.03125 87.019531 53.152344 87.082031 53.253906 87.164062 C 53.355469 87.246094 53.445312 87.351562 53.527344 87.484375 C 53.605469 87.617188 53.683594 87.792969 53.757812 88.019531 C 53.832031 88.246094 53.902344 88.523438 53.964844 88.855469 C 54.03125 89.191406 54.089844 89.539062 54.140625 89.894531 L 54.226562 89.894531 C 54.773438 89.125 55.1875 88.5625 55.46875 88.207031 C 55.753906 87.851562 55.988281 87.585938 56.183594 87.414062 C 56.378906 87.238281 56.5625 87.113281 56.742188 87.046875 C 56.921875 86.972656 57.160156 86.9375 57.457031 86.9375 C 57.722656 86.9375 57.945312 86.972656 58.113281 87.039062 L 57.773438 88.585938 L 57.175781 88.585938 C 57.140625 88.347656 57.039062 88.226562 56.875 88.226562 C 56.824219 88.226562 56.769531 88.238281 56.714844 88.253906 C 56.65625 88.269531 56.585938 88.308594 56.503906 88.363281 C 56.421875 88.421875 56.300781 88.53125 56.140625 88.699219 C 55.980469 88.863281 55.800781 89.066406 55.601562 89.304688 C 55.402344 89.546875 55.199219 89.796875 54.988281 90.058594 L 54.40625 90.785156 C 54.507812 91.332031 54.605469 91.804688 54.695312 92.207031 C 54.789062 92.605469 54.871094 92.933594 54.941406 93.203125 C 55.011719 93.464844 55.074219 93.675781 55.128906 93.828125 C 55.183594 93.984375 55.242188 94.097656 55.304688 94.175781 C 55.367188 94.253906 55.429688 94.308594 55.496094 94.339844 C 55.5625 94.371094 55.636719 94.386719 55.722656 94.386719 C 55.875 94.386719 56.027344 94.328125 56.171875 94.207031 C 56.316406 94.085938 56.527344 93.816406 56.800781 93.394531 L 57.355469 93.761719 C 56.957031 94.355469 56.59375 94.773438 56.273438 95.015625 C 55.953125 95.257812 55.570312 95.378906 55.125 95.378906 C 54.878906 95.378906 54.671875 95.335938 54.5 95.246094 C 54.328125 95.15625 54.183594 95.015625 54.054688 94.820312 C 53.929688 94.628906 53.820312 94.328125 53.722656 93.917969 C 53.546875 93.183594 53.4375 92.628906 53.398438 92.238281 L 53.3125 92.238281 C 52.710938 93.089844 52.261719 93.699219 51.96875 94.070312 C 51.675781 94.441406 51.433594 94.714844 51.242188 94.890625 C 51.050781 95.066406 50.867188 95.191406 50.6875 95.261719 C 50.507812 95.335938 50.269531 95.371094 49.972656 95.371094 C 49.703125 95.371094 49.484375 95.335938 49.316406 95.265625 L 49.65625 93.71875 L 50.253906 93.71875 C 50.289062 93.957031 50.386719 94.078125 50.554688 94.078125 C 50.632812 94.078125 50.71875 94.054688 50.804688 94.015625 C 50.894531 93.972656 51.019531 93.867188 51.183594 93.707031 C 51.351562 93.542969 51.578125 93.289062 51.867188 92.941406 C 52.160156 92.59375 52.582031 92.070312 53.132812 91.375 C 53.046875 90.925781 52.960938 90.492188 52.867188 90.074219 C 52.777344 89.660156 52.683594 89.273438 52.585938 88.910156 C 52.488281 88.554688 52.410156 88.320312 52.347656 88.207031 C 52.285156 88.097656 52.21875 88.019531 52.148438 87.976562 C 52.074219 87.933594 51.984375 87.910156 51.878906 87.910156 C 51.757812 87.910156 51.648438 87.941406 51.554688 87.992188 C 51.457031 88.046875 51.351562 88.140625 51.238281 88.277344 C 51.121094 88.410156 50.972656 88.617188 50.785156 88.90625 L 50.230469 88.539062 C 50.585938 87.996094 50.933594 87.589844 51.261719 87.320312 C 51.59375 87.054688 51.984375 86.921875 52.433594 86.921875 Z M 52.433594 86.921875 "/>
<path style=" stroke:none;fill-rule:evenodd;fill:rgb(0%,0%,0%);fill-opacity:1;" d="M 60.800781 92.839844 L 61.167969 92.839844 L 60.273438 96.828125 C 60.183594 97.230469 60.136719 97.535156 60.136719 97.746094 C 60.136719 97.910156 60.164062 98.03125 60.21875 98.105469 C 60.269531 98.179688 60.355469 98.214844 60.472656 98.214844 C 60.59375 98.214844 60.726562 98.164062 60.867188 98.066406 C 61.007812 97.964844 61.207031 97.769531 61.464844 97.484375 L 61.816406 97.832031 C 61.414062 98.257812 61.082031 98.546875 60.832031 98.699219 C 60.578125 98.855469 60.296875 98.929688 59.980469 98.929688 C 59.710938 98.929688 59.496094 98.832031 59.335938 98.636719 C 59.175781 98.4375 59.09375 98.1875 59.09375 97.882812 C 59.09375 97.566406 59.152344 97.164062 59.269531 96.679688 L 59.734375 94.644531 C 59.828125 94.234375 59.875 93.921875 59.875 93.714844 C 59.875 93.527344 59.832031 93.402344 59.742188 93.335938 C 59.652344 93.269531 59.480469 93.234375 59.21875 93.226562 L 59.285156 92.894531 Z M 60.632812 90.460938 L 61.730469 90.460938 L 61.445312 91.664062 L 60.347656 91.664062 Z M 60.632812 90.460938 "/>
<path style=" stroke:none;fill-rule:evenodd;fill:rgb(0%,0%,0%);fill-opacity:1;" d="M 69.640625 95.042969 L 80.164062 95.042969 L 80.164062 96.179688 L 69.640625 96.179688 Z M 69.640625 84.296875 L 80.199219 88.40625 L 80.199219 89.605469 L 69.640625 93.71875 L 69.640625 92.4375 L 78.789062 89.007812 L 69.640625 85.578125 Z M 69.640625 84.296875 "/>
<path style=" stroke:none;fill-rule:evenodd;fill:rgb(0%,0%,0%);fill-opacity:1;" d="M 91.34375 83.433594 C 92.40625 83.433594 93.203125 83.664062 93.746094 84.128906 C 94.285156 84.59375 94.558594 85.265625 94.558594 86.148438 C 94.558594 86.453125 94.527344 86.730469 94.46875 86.984375 C 94.40625 87.238281 94.3125 87.488281 94.1875 87.734375 C 94.058594 87.984375 93.886719 88.25 93.667969 88.539062 C 93.453125 88.820312 93.214844 89.109375 92.953125 89.402344 C 92.6875 89.699219 92.238281 90.1875 91.59375 90.871094 C 90.511719 92.015625 89.714844 93.015625 89.210938 93.875 L 92.429688 93.875 C 92.710938 93.875 92.933594 93.855469 93.105469 93.820312 C 93.277344 93.785156 93.414062 93.730469 93.515625 93.648438 C 93.617188 93.570312 93.699219 93.464844 93.757812 93.339844 C 93.816406 93.207031 93.894531 93.011719 93.984375 92.742188 L 94.710938 92.742188 L 94.566406 95.242188 L 87.535156 95.242188 L 87.535156 94.832031 C 87.78125 94.230469 88.109375 93.617188 88.527344 92.992188 C 88.941406 92.363281 89.53125 91.625 90.292969 90.777344 C 90.953125 90.046875 91.429688 89.496094 91.722656 89.117188 C 92.039062 88.707031 92.277344 88.351562 92.433594 88.054688 C 92.589844 87.753906 92.703125 87.472656 92.773438 87.207031 C 92.839844 86.941406 92.875 86.675781 92.875 86.40625 C 92.875 85.980469 92.804688 85.601562 92.667969 85.273438 C 92.53125 84.945312 92.324219 84.6875 92.042969 84.5 C 91.757812 84.3125 91.40625 84.214844 90.976562 84.214844 C 89.914062 84.214844 89.195312 84.8125 88.824219 85.996094 L 87.789062 85.996094 L 87.789062 84.351562 C 88.480469 84.03125 89.125 83.792969 89.726562 83.648438 C 90.328125 83.503906 90.867188 83.433594 91.34375 83.433594 Z M 91.34375 83.433594 "/>
<path style=" stroke:none;fill-rule:evenodd;fill:rgb(0%,0%,0%);fill-opacity:1;" d="M 114.996094 88.570312 L 116.789062 93.648438 L 118.953125 88.570312 Z M 111.980469 84.296875 L 113.519531 84.296875 L 114.59375 87.398438 L 119.449219 87.398438 L 120.753906 84.296875 L 122.164062 84.296875 L 117.371094 95.25 L 116.0625 95.25 Z M 111.980469 84.296875 "/>
<path style=" stroke:none;fill-rule:evenodd;fill:rgb(0%,0%,0%);fill-opacity:1;" d="M 126.09375 86.988281 L 126.597656 86.988281 L 125.367188 92.480469 C 125.242188 93.039062 125.179688 93.457031 125.179688 93.742188 C 125.179688 93.972656 125.21875 94.136719 125.289062 94.242188 C 125.363281 94.34375 125.480469 94.394531 125.640625 94.394531 C 125.8125 94.394531 125.996094 94.324219 126.1875 94.183594 C 126.382812 94.046875 126.65625 93.78125 127.007812 93.386719 L 127.496094 93.863281 C 126.9375 94.453125 126.484375 94.851562 126.136719 95.0625 C 125.789062 95.273438 125.398438 95.378906 124.964844 95.378906 C 124.597656 95.378906 124.300781 95.242188 124.078125 94.972656 C 123.855469 94.699219 123.742188 94.355469 123.742188 93.933594 C 123.742188 93.5 123.824219 92.945312 123.984375 92.273438 L 124.625 89.476562 C 124.753906 88.90625 124.820312 88.480469 124.820312 88.195312 C 124.820312 87.9375 124.761719 87.765625 124.636719 87.671875 C 124.515625 87.582031 124.273438 87.53125 123.917969 87.519531 L 124.011719 87.0625 Z M 125.863281 83.710938 L 127.375 83.710938 L 126.980469 85.371094 L 125.46875 85.371094 Z M 125.863281 83.710938 "/>
<path style=" stroke:none;fill-rule:evenodd;fill:rgb(0%,0%,0%);fill-opacity:1;" d="M 139.765625 85.167969 L 143.269531 85.167969 L 143.269531 86.355469 L 139.757812 86.355469 C 139.191406 86.355469 138.738281 86.386719 138.382812 86.449219 C 138.035156 86.511719 137.746094 86.613281 137.507812 86.753906 C 137.277344 86.894531 137.0625 87.089844 136.875 87.347656 C 136.683594 87.605469 136.535156 87.917969 136.421875 88.292969 C 136.316406 88.667969 136.25 89.089844 136.21875 89.5625 L 143.269531 89.5625 L 143.269531 90.75 L 136.210938 90.75 C 136.238281 91.28125 136.316406 91.753906 136.441406 92.164062 C 136.566406 92.574219 136.757812 92.921875 137.011719 93.207031 C 137.261719 93.496094 137.589844 93.710938 137.992188 93.847656 C 138.394531 93.984375 138.949219 94.054688 139.65625 94.054688 L 143.269531 94.054688 L 143.269531 95.242188 L 139.621094 95.242188 C 139.0625 95.242188 138.578125 95.207031 138.167969 95.136719 C 137.757812 95.070312 137.386719 94.957031 137.054688 94.804688 C 136.726562 94.652344 136.414062 94.417969 136.121094 94.109375 C 135.828125 93.796875 135.589844 93.453125 135.40625 93.078125 C 135.226562 92.699219 135.089844 92.273438 134.996094 91.804688 C 134.90625 91.332031 134.859375 90.816406 134.859375 90.265625 C 134.859375 89.363281 134.949219 88.617188 135.128906 88.027344 C 135.300781 87.4375 135.597656 86.914062 136.015625 86.453125 C 136.429688 85.996094 136.929688 85.664062 137.507812 85.464844 C 138.089844 85.265625 138.84375 85.167969 139.765625 85.167969 Z M 139.765625 85.167969 "/>
<path style=" stroke:none;fill-rule:evenodd;fill:rgb(0%,0%,0%);fill-opacity:1;" d="M 234.667969 82.078125 L 234.890625 82.078125 C 236.226562 82.101562 237.230469 82.410156 237.894531 82.996094 C 238.558594 83.589844 238.886719 84.476562 238.886719 85.664062 C 238.886719 86.136719 238.820312 86.675781 238.6875 87.28125 C 238.550781 87.882812 238.488281 88.289062 238.488281 88.496094 C 238.488281 88.886719 238.621094 89.207031 238.894531 89.457031 C 239.164062 89.703125 239.570312 89.835938 240.117188 89.851562 L 240.117188 90.554688 C 239.570312 90.570312 239.164062 90.703125 238.894531 90.949219 C 238.621094 91.199219 238.488281 91.519531 238.488281 91.914062 C 238.488281 92.121094 238.550781 92.523438 238.6875 93.128906 C 238.820312 93.730469 238.886719 94.273438 238.886719 94.746094 C 238.886719 95.96875 238.558594 96.878906 237.894531 97.46875 C 237.230469 98.058594 236.226562 98.363281 234.890625 98.386719 L 234.667969 98.386719 L 234.667969 97.738281 L 234.796875 97.738281 C 235.621094 97.738281 236.269531 97.523438 236.734375 97.09375 C 237.203125 96.660156 237.433594 95.933594 237.433594 94.898438 C 237.433594 94.5 237.378906 94.007812 237.265625 93.417969 C 237.148438 92.832031 237.09375 92.414062 237.09375 92.164062 C 237.09375 91.679688 237.238281 91.28125 237.523438 90.96875 C 237.808594 90.660156 238.144531 90.429688 238.539062 90.28125 L 238.539062 90.125 C 238.144531 89.980469 237.808594 89.75 237.523438 89.441406 C 237.238281 89.128906 237.09375 88.730469 237.09375 88.246094 C 237.09375 87.996094 237.148438 87.574219 237.265625 86.988281 C 237.378906 86.402344 237.433594 85.90625 237.433594 85.507812 C 237.433594 84.515625 237.203125 83.804688 236.734375 83.375 C 236.269531 82.945312 235.621094 82.730469 234.796875 82.730469 L 234.667969 82.730469 Z M 155.53125 82.078125 L 155.753906 82.078125 L 155.753906 82.730469 L 155.625 82.730469 C 154.800781 82.730469 154.152344 82.945312 153.6875 83.375 C 153.21875 83.804688 152.988281 84.515625 152.988281 85.5 C 152.988281 85.898438 153.042969 86.390625 153.15625 86.980469 C 153.273438 87.566406 153.328125 87.984375 153.328125 88.238281 C 153.328125 88.722656 153.183594 89.117188 152.898438 89.429688 C 152.613281 89.738281 152.277344 89.96875 151.882812 90.117188 L 151.882812 90.273438 C 152.277344 90.421875 152.613281 90.648438 152.898438 90.960938 C 153.183594 91.273438 153.328125 91.667969 153.328125 92.152344 C 153.328125 92.40625 153.273438 92.824219 153.15625 93.410156 C 153.042969 93.996094 152.988281 94.492188 152.988281 94.890625 C 152.988281 95.925781 153.21875 96.660156 153.6875 97.09375 C 154.152344 97.523438 154.800781 97.738281 155.625 97.738281 L 155.753906 97.738281 L 155.753906 98.386719 L 155.53125 98.386719 C 154.195312 98.363281 153.191406 98.058594 152.527344 97.46875 C 151.863281 96.878906 151.535156 95.96875 151.535156 94.738281 C 151.535156 94.261719 151.601562 93.722656 151.734375 93.121094 C 151.867188 92.515625 151.933594 92.109375 151.933594 91.90625 C 151.933594 91.511719 151.800781 91.191406 151.527344 90.945312 C 151.257812 90.695312 150.851562 90.5625 150.304688 90.546875 L 150.304688 89.84375 C 150.851562 89.828125 151.257812 89.695312 151.527344 89.445312 C 151.800781 89.199219 151.933594 88.878906 151.933594 88.484375 C 151.933594 88.28125 151.867188 87.875 151.734375 87.269531 C 151.601562 86.667969 151.535156 86.125 151.535156 85.652344 C 151.535156 84.472656 151.863281 83.589844 152.527344 82.996094 C 153.191406 82.410156 154.195312 82.101562 155.53125 82.078125 Z M 155.53125 82.078125 "/>
<path style=" stroke:none;fill-rule:evenodd;fill:rgb(0%,0%,0%);fill-opacity:1;" d="M 161.816406 83.433594 L 162.285156 83.433594 C 162.253906 83.980469 162.238281 84.738281 162.238281 85.707031 L 162.238281 93.007812 C 162.238281 93.339844 162.253906 93.589844 162.292969 93.757812 C 162.328125 93.925781 162.394531 94.0625 162.488281 94.167969 C 162.582031 94.273438 162.714844 94.355469 162.894531 94.414062 C 163.070312 94.476562 163.289062 94.519531 163.558594 94.550781 C 163.828125 94.582031 164.179688 94.605469 164.617188 94.617188 L 164.617188 95.242188 L 158.304688 95.242188 L 158.304688 94.617188 C 158.9375 94.589844 159.390625 94.550781 159.660156 94.5 C 159.929688 94.453125 160.136719 94.378906 160.277344 94.285156 C 160.421875 94.183594 160.523438 94.046875 160.589844 93.875 C 160.65625 93.695312 160.6875 93.40625 160.6875 93.007812 L 160.6875 86.074219 C 160.6875 85.84375 160.648438 85.675781 160.570312 85.570312 C 160.488281 85.464844 160.375 85.414062 160.21875 85.414062 C 160.035156 85.414062 159.777344 85.507812 159.441406 85.695312 C 159.105469 85.886719 158.6875 86.144531 158.195312 86.472656 L 157.820312 85.816406 Z M 161.816406 83.433594 "/>
<path style=" stroke:none;fill-rule:evenodd;fill:rgb(0%,0%,0%);fill-opacity:1;" d="M 167.191406 93.257812 L 168.6875 93.257812 C 168.769531 93.65625 168.804688 94.046875 168.804688 94.4375 C 168.804688 94.835938 168.738281 95.199219 168.601562 95.53125 C 168.464844 95.863281 168.246094 96.191406 167.949219 96.519531 C 167.648438 96.847656 167.238281 97.207031 166.714844 97.601562 L 166.253906 97.078125 C 166.542969 96.804688 166.753906 96.558594 166.882812 96.339844 C 167.015625 96.121094 167.109375 95.871094 167.167969 95.589844 C 167.222656 95.3125 167.253906 94.960938 167.253906 94.539062 C 167.253906 94.105469 167.230469 93.679688 167.191406 93.257812 Z M 167.191406 93.257812 "/>
<path style=" stroke:none;fill-rule:evenodd;fill:rgb(0%,0%,0%);fill-opacity:1;" d="M 177.460938 83.433594 C 178.519531 83.433594 179.316406 83.664062 179.859375 84.128906 C 180.398438 84.59375 180.671875 85.265625 180.671875 86.148438 C 180.671875 86.453125 180.640625 86.730469 180.578125 86.984375 C 180.519531 87.238281 180.425781 87.488281 180.300781 87.734375 C 180.171875 87.984375 179.996094 88.25 179.78125 88.539062 C 179.566406 88.820312 179.328125 89.109375 179.066406 89.402344 C 178.800781 89.699219 178.347656 90.1875 177.707031 90.871094 C 176.621094 92.015625 175.828125 93.015625 175.320312 93.875 L 178.542969 93.875 C 178.824219 93.875 179.046875 93.855469 179.21875 93.820312 C 179.390625 93.785156 179.527344 93.730469 179.628906 93.648438 C 179.730469 93.570312 179.8125 93.464844 179.871094 93.339844 C 179.933594 93.207031 180.007812 93.011719 180.097656 92.742188 L 180.824219 92.742188 L 180.679688 95.242188 L 173.648438 95.242188 L 173.648438 94.832031 C 173.894531 94.230469 174.222656 93.617188 174.636719 92.992188 C 175.054688 92.363281 175.644531 91.625 176.40625 90.777344 C 177.070312 90.046875 177.542969 89.496094 177.832031 89.117188 C 178.15625 88.707031 178.390625 88.351562 178.546875 88.054688 C 178.703125 87.753906 178.816406 87.472656 178.886719 87.207031 C 178.953125 86.941406 178.988281 86.675781 178.988281 86.40625 C 178.988281 85.980469 178.917969 85.601562 178.78125 85.273438 C 178.644531 84.945312 178.4375 84.6875 178.15625 84.5 C 177.871094 84.3125 177.519531 84.214844 177.089844 84.214844 C 176.027344 84.214844 175.308594 84.8125 174.9375 85.996094 L 173.90625 85.996094 L 173.90625 84.351562 C 174.59375 84.03125 175.238281 83.792969 175.839844 83.648438 C 176.441406 83.503906 176.980469 83.433594 177.460938 83.433594 Z M 177.460938 83.433594 "/>
<path style=" stroke:none;fill-rule:evenodd;fill:rgb(0%,0%,0%);fill-opacity:1;" d="M 183.441406 93.257812 L 184.933594 93.257812 C 185.015625 93.65625 185.054688 94.046875 185.054688 94.4375 C 185.054688 94.835938 184.988281 95.199219 184.851562 95.53125 C 184.710938 95.863281 184.496094 96.191406 184.195312 96.519531 C 183.898438 96.847656 183.484375 97.207031 182.960938 97.601562 L 182.5 97.078125 C 182.789062 96.804688 183 96.558594 183.132812 96.339844 C 183.265625 96.121094 183.359375 95.871094 183.414062 95.589844 C 183.472656 95.3125 183.5 94.960938 183.5 94.539062 C 183.5 94.105469 183.480469 93.679688 183.441406 93.257812 Z M 183.441406 93.257812 "/>
<path style=" stroke:none;fill-rule:evenodd;fill:rgb(0%,0%,0%);fill-opacity:1;" d="M 199.292969 93.257812 L 201.019531 93.257812 L 201.019531 95.242188 L 199.292969 95.242188 Z M 195.109375 93.257812 L 196.832031 93.257812 L 196.832031 95.242188 L 195.109375 95.242188 Z M 190.921875 93.257812 L 192.644531 93.257812 L 192.644531 95.242188 L 190.921875 95.242188 Z M 190.921875 93.257812 "/>
<path style=" stroke:none;fill-rule:evenodd;fill:rgb(0%,0%,0%);fill-opacity:1;" d="M 229.164062 84.160156 C 228.769531 84.160156 228.441406 84.273438 228.179688 84.507812 C 227.914062 84.742188 227.699219 85.078125 227.535156 85.515625 C 227.375 85.957031 227.257812 86.492188 227.191406 87.121094 C 227.121094 87.75 227.085938 88.464844 227.085938 89.253906 C 227.085938 91.113281 227.261719 92.476562 227.605469 93.347656 C 227.949219 94.214844 228.484375 94.652344 229.207031 94.652344 C 229.898438 94.652344 230.40625 94.242188 230.742188 93.425781 C 231.074219 92.605469 231.238281 91.335938 231.238281 89.621094 C 231.238281 88.3125 231.15625 87.25 230.984375 86.4375 C 230.8125 85.625 230.574219 85.042969 230.269531 84.6875 C 229.964844 84.335938 229.597656 84.160156 229.164062 84.160156 Z M 219.574219 84.160156 C 219.183594 84.160156 218.855469 84.273438 218.589844 84.507812 C 218.324219 84.742188 218.109375 85.078125 217.949219 85.515625 C 217.789062 85.957031 217.671875 86.492188 217.601562 87.121094 C 217.535156 87.75 217.5 88.464844 217.5 89.253906 C 217.5 91.113281 217.671875 92.476562 218.019531 93.347656 C 218.363281 94.214844 218.894531 94.652344 219.617188 94.652344 C 220.308594 94.652344 220.820312 94.242188 221.152344 93.425781 C 221.484375 92.605469 221.652344 91.335938 221.652344 89.621094 C 221.652344 88.3125 221.566406 87.25 221.398438 86.4375 C 221.226562 85.625 220.988281 85.042969 220.683594 84.6875 C 220.378906 84.335938 220.007812 84.160156 219.574219 84.160156 Z M 229.207031 83.433594 C 230.457031 83.433594 231.382812 83.910156 231.992188 84.875 C 232.601562 85.839844 232.90625 87.296875 232.90625 89.246094 C 232.90625 91.265625 232.578125 92.792969 231.925781 93.824219 C 231.273438 94.859375 230.324219 95.378906 229.070312 95.378906 C 227.839844 95.378906 226.925781 94.894531 226.324219 93.921875 C 225.722656 92.953125 225.421875 91.484375 225.421875 89.511719 C 225.421875 88.464844 225.515625 87.554688 225.699219 86.789062 C 225.882812 86.027344 226.144531 85.398438 226.476562 84.898438 C 226.808594 84.398438 227.210938 84.03125 227.675781 83.789062 C 228.144531 83.550781 228.65625 83.433594 229.207031 83.433594 Z M 219.617188 83.433594 C 220.867188 83.433594 221.796875 83.910156 222.402344 84.875 C 223.011719 85.839844 223.320312 87.296875 223.320312 89.246094 C 223.320312 91.265625 222.992188 92.792969 222.339844 93.824219 C 221.6875 94.859375 220.734375 95.378906 219.480469 95.378906 C 218.253906 95.378906 217.335938 94.894531 216.734375 93.921875 C 216.132812 92.953125 215.835938 91.484375 215.835938 89.511719 C 215.835938 88.464844 215.925781 87.554688 216.113281 86.789062 C 216.296875 86.027344 216.554688 85.398438 216.890625 84.898438 C 217.222656 84.398438 217.621094 84.03125 218.089844 83.789062 C 218.558594 83.550781 219.066406 83.433594 219.617188 83.433594 Z M 210.425781 83.433594 L 210.894531 83.433594 C 210.859375 83.980469 210.84375 84.738281 210.84375 85.707031 L 210.84375 93.007812 C 210.84375 93.339844 210.859375 93.589844 210.898438 93.757812 C 210.933594 93.925781 211 94.0625 211.09375 94.167969 C 211.1875 94.273438 211.324219 94.355469 211.5 94.414062 C 211.679688 94.476562 211.898438 94.519531 212.167969 94.550781 C 212.433594 94.582031 212.789062 94.605469 213.226562 94.617188 L 213.226562 95.242188 L 206.914062 95.242188 L 206.914062 94.617188 C 207.546875 94.589844 207.996094 94.550781 208.265625 94.5 C 208.539062 94.453125 208.742188 94.378906 208.886719 94.285156 C 209.027344 94.183594 209.132812 94.046875 209.195312 93.875 C 209.265625 93.695312 209.296875 93.40625 209.296875 93.007812 L 209.296875 86.074219 C 209.296875 85.84375 209.257812 85.675781 209.175781 85.570312 C 209.097656 85.464844 208.980469 85.414062 208.824219 85.414062 C 208.644531 85.414062 208.382812 85.507812 208.050781 85.695312 C 207.714844 85.886719 207.296875 86.144531 206.800781 86.472656 L 206.425781 85.816406 Z M 210.425781 83.433594 "/>
<path style=" stroke:none;fill-rule:evenodd;fill:rgb(0%,0%,0%);fill-opacity:1;" d="M 13.722656 86.921875 C 14.097656 86.921875 14.460938 86.941406 14.8125 86.976562 C 15.164062 87.011719 15.601562 87.085938 16.132812 87.195312 L 16.132812 88.9375 L 15.3125 88.9375 C 15.1875 88.59375 15.039062 88.328125 14.867188 88.128906 C 14.695312 87.933594 14.503906 87.796875 14.285156 87.714844 C 14.070312 87.636719 13.804688 87.59375 13.492188 87.59375 C 13.035156 87.59375 12.671875 87.703125 12.402344 87.917969 C 12.132812 88.128906 11.996094 88.421875 11.996094 88.792969 C 11.996094 89.054688 12.050781 89.273438 12.160156 89.441406 C 12.265625 89.613281 12.433594 89.773438 12.664062 89.921875 C 12.890625 90.070312 13.292969 90.265625 13.867188 90.511719 C 14.449219 90.761719 14.898438 90.996094 15.214844 91.207031 C 15.53125 91.417969 15.777344 91.660156 15.957031 91.941406 C 16.136719 92.21875 16.226562 92.554688 16.226562 92.941406 C 16.226562 93.390625 16.148438 93.769531 15.996094 94.078125 C 15.839844 94.386719 15.625 94.636719 15.347656 94.832031 C 15.066406 95.023438 14.734375 95.164062 14.351562 95.25 C 13.964844 95.335938 13.546875 95.378906 13.089844 95.378906 C 12.613281 95.378906 12.148438 95.339844 11.699219 95.273438 C 11.246094 95.199219 10.808594 95.105469 10.382812 94.992188 L 10.382812 93.207031 L 11.21875 93.207031 C 11.375 93.730469 11.601562 94.109375 11.902344 94.347656 C 12.203125 94.582031 12.621094 94.699219 13.148438 94.699219 C 13.355469 94.699219 13.554688 94.683594 13.753906 94.636719 C 13.949219 94.59375 14.125 94.523438 14.277344 94.425781 C 14.433594 94.324219 14.554688 94.191406 14.644531 94.015625 C 14.738281 93.847656 14.78125 93.632812 14.78125 93.375 C 14.78125 93.085938 14.726562 92.847656 14.609375 92.667969 C 14.496094 92.484375 14.320312 92.320312 14.082031 92.167969 C 13.84375 92.015625 13.421875 91.8125 12.816406 91.554688 C 12.296875 91.335938 11.882812 91.128906 11.570312 90.921875 C 11.257812 90.714844 11.011719 90.472656 10.832031 90.195312 C 10.652344 89.917969 10.5625 89.585938 10.5625 89.203125 C 10.5625 88.738281 10.6875 88.328125 10.941406 87.984375 C 11.195312 87.640625 11.5625 87.375 12.039062 87.195312 C 12.519531 87.011719 13.078125 86.921875 13.722656 86.921875 Z M 13.722656 86.921875 "/>
<path style=" stroke:none;fill-rule:evenodd;fill:rgb(0%,0%,0%);fill-opacity:1;" d="M 18.0625 93.257812 L 19.789062 93.257812 L 19.789062 95.242188 L 18.0625 95.242188 Z M 18.0625 93.257812 "/>
<path style=" stroke:none;fill-rule:evenodd;fill:rgb(0%,0%,0%);fill-opacity:1;" d="M 25.46875 84.953125 L 26.679688 84.953125 L 26.679688 87.0625 L 29.441406 87.0625 L 29.441406 87.929688 L 26.679688 87.929688 L 26.679688 91.734375 C 26.679688 92.289062 26.703125 92.730469 26.75 93.054688 C 26.792969 93.382812 26.878906 93.640625 27.003906 93.824219 C 27.128906 94.011719 27.273438 94.144531 27.433594 94.222656 C 27.589844 94.300781 27.796875 94.34375 28.046875 94.34375 C 28.273438 94.34375 28.488281 94.296875 28.6875 94.203125 C 28.886719 94.109375 29.082031 93.972656 29.277344 93.796875 L 29.660156 94.257812 C 29.257812 94.652344 28.875 94.9375 28.511719 95.113281 C 28.152344 95.289062 27.777344 95.378906 27.390625 95.378906 C 26.65625 95.378906 26.109375 95.160156 25.75 94.722656 C 25.390625 94.289062 25.210938 93.605469 25.210938 92.675781 L 25.210938 87.929688 L 23.945312 87.929688 L 23.945312 87.492188 C 24.230469 87.449219 24.460938 87.367188 24.636719 87.253906 C 24.816406 87.140625 24.953125 86.992188 25.050781 86.8125 C 25.152344 86.632812 25.230469 86.410156 25.289062 86.136719 C 25.34375 85.867188 25.402344 85.472656 25.46875 84.953125 Z M 25.46875 84.953125 "/>
<path style=" stroke:none;fill-rule:evenodd;fill:rgb(0%,0%,0%);fill-opacity:1;" d="M 30.464844 93.257812 L 32.191406 93.257812 L 32.191406 95.242188 L 30.464844 95.242188 Z M 30.464844 93.257812 "/>
</g>
</svg>
