<?xml version="1.0" encoding="UTF-8"?>
<svg xmlns="http://www.w3.org/2000/svg" xmlns:xlink="http://www.w3.org/1999/xlink" width="300px" height="143px" viewBox="0 0 300 143" version="1.1">
<g id="surface1">
<path style=" stroke:none;fill-rule:evenodd;fill:rgb(0%,0%,0%);fill-opacity:1;" d="M 59.558594 23.671875 L 84.316406 23.671875 L 84.316406 29.753906 L 82.964844 29.753906 C 82.804688 28.292969 82.488281 27.140625 82.007812 26.289062 C 81.53125 25.441406 80.808594 25.015625 79.835938 25.015625 L 63.65625 25.015625 L 75.890625 41.667969 L 75.890625 42.910156 L 62.683594 60.871094 L 80.472656 60.871094 C 81.257812 60.871094 81.859375 60.59375 82.277344 60.039062 C 82.691406 59.484375 83.050781 58.242188 83.351562 56.316406 L 84.871094 56.316406 L 84.347656 63.851562 L 59.136719 63.851562 L 59.136719 62.832031 L 73.5 43.316406 L 59.558594 24.648438 Z M 59.558594 23.671875 "/>
<path style=" stroke:none;fill-rule:evenodd;fill:rgb(0%,0%,0%);fill-opacity:1;" d="M 94.597656 39.851562 L 95.203125 39.851562 L 93.726562 46.445312 C 93.578125 47.117188 93.503906 47.625 93.503906 47.96875 C 93.503906 48.242188 93.546875 48.441406 93.636719 48.566406 C 93.722656 48.6875 93.863281 48.75 94.054688 48.75 C 94.261719 48.75 94.480469 48.667969 94.710938 48.496094 C 94.945312 48.328125 95.273438 48.007812 95.695312 47.535156 L 96.28125 48.113281 C 95.609375 48.820312 95.066406 49.296875 94.652344 49.550781 C 94.234375 49.804688 93.765625 49.933594 93.246094 49.933594 C 92.800781 49.933594 92.445312 49.765625 92.179688 49.441406 C 91.914062 49.117188 91.78125 48.699219 91.78125 48.191406 C 91.78125 47.675781 91.875 47.007812 92.066406 46.199219 L 92.835938 42.839844 C 92.992188 42.15625 93.070312 41.640625 93.070312 41.300781 C 93.070312 40.992188 93 40.78125 92.851562 40.671875 C 92.703125 40.5625 92.414062 40.5 91.984375 40.488281 L 92.097656 39.941406 Z M 94.324219 35.914062 L 96.136719 35.914062 L 95.664062 37.90625 L 93.851562 37.90625 Z M 94.324219 35.914062 "/>
<path style=" stroke:none;fill-rule:evenodd;fill:rgb(0%,0%,0%);fill-opacity:1;" d="M 103.914062 41.535156 L 106.191406 41.535156 L 106.191406 44.042969 L 103.914062 44.042969 Z M 103.914062 41.535156 "/>
<path style=" stroke:none;fill-rule:evenodd;fill:rgb(0%,0%,0%);fill-opacity:1;" d="M 116.46875 39.765625 C 116.679688 39.765625 116.867188 39.792969 117.027344 39.839844 C 117.1875 39.886719 117.332031 39.960938 117.453125 40.058594 C 117.578125 40.160156 117.6875 40.289062 117.78125 40.445312 C 117.878906 40.601562 117.96875 40.820312 118.058594 41.085938 C 118.148438 41.359375 118.230469 41.695312 118.308594 42.09375 C 118.386719 42.496094 118.457031 42.910156 118.519531 43.34375 L 118.621094 43.34375 C 119.277344 42.417969 119.777344 41.742188 120.113281 41.3125 C 120.453125 40.882812 120.738281 40.566406 120.96875 40.355469 C 121.203125 40.148438 121.425781 40.003906 121.640625 39.917969 C 121.855469 39.828125 122.140625 39.789062 122.496094 39.789062 C 122.820312 39.789062 123.082031 39.828125 123.289062 39.910156 L 122.878906 41.769531 L 122.160156 41.769531 C 122.117188 41.484375 122 41.339844 121.800781 41.339844 C 121.738281 41.339844 121.675781 41.347656 121.605469 41.367188 C 121.539062 41.390625 121.453125 41.433594 121.355469 41.503906 C 121.253906 41.574219 121.109375 41.707031 120.917969 41.90625 C 120.726562 42.105469 120.511719 42.347656 120.273438 42.632812 C 120.035156 42.921875 119.789062 43.222656 119.535156 43.539062 L 118.835938 44.414062 C 118.960938 45.070312 119.078125 45.640625 119.1875 46.117188 C 119.296875 46.597656 119.394531 46.996094 119.480469 47.316406 C 119.5625 47.632812 119.640625 47.886719 119.703125 48.070312 C 119.769531 48.257812 119.839844 48.394531 119.914062 48.488281 C 119.988281 48.578125 120.066406 48.644531 120.144531 48.683594 C 120.222656 48.722656 120.3125 48.738281 120.417969 48.738281 C 120.601562 48.738281 120.78125 48.667969 120.953125 48.523438 C 121.128906 48.378906 121.378906 48.054688 121.707031 47.546875 L 122.375 47.988281 C 121.894531 48.699219 121.464844 49.203125 121.078125 49.492188 C 120.691406 49.785156 120.230469 49.933594 119.699219 49.933594 C 119.40625 49.933594 119.15625 49.878906 118.949219 49.769531 C 118.746094 49.667969 118.566406 49.496094 118.417969 49.261719 C 118.265625 49.03125 118.132812 48.667969 118.019531 48.171875 C 117.804688 47.296875 117.675781 46.625 117.628906 46.160156 L 117.527344 46.160156 C 116.800781 47.179688 116.261719 47.914062 115.910156 48.359375 C 115.558594 48.804688 115.269531 49.132812 115.039062 49.34375 C 114.808594 49.558594 114.589844 49.707031 114.371094 49.792969 C 114.15625 49.878906 113.871094 49.921875 113.515625 49.921875 C 113.195312 49.921875 112.933594 49.878906 112.726562 49.796875 L 113.136719 47.9375 L 113.855469 47.9375 C 113.894531 48.226562 114.015625 48.371094 114.214844 48.371094 C 114.308594 48.371094 114.410156 48.34375 114.515625 48.292969 C 114.621094 48.238281 114.773438 48.117188 114.972656 47.921875 C 115.171875 47.726562 115.445312 47.421875 115.792969 47.003906 C 116.140625 46.585938 116.648438 45.957031 117.308594 45.121094 C 117.207031 44.582031 117.101562 44.058594 116.992188 43.558594 C 116.882812 43.058594 116.769531 42.59375 116.652344 42.160156 C 116.539062 41.730469 116.441406 41.445312 116.367188 41.3125 C 116.292969 41.183594 116.210938 41.085938 116.125 41.039062 C 116.039062 40.984375 115.933594 40.960938 115.804688 40.960938 C 115.660156 40.960938 115.53125 40.992188 115.414062 41.058594 C 115.296875 41.121094 115.171875 41.238281 115.035156 41.394531 C 114.898438 41.554688 114.714844 41.808594 114.492188 42.152344 L 113.824219 41.710938 C 114.253906 41.058594 114.667969 40.574219 115.066406 40.25 C 115.460938 39.925781 115.929688 39.765625 116.46875 39.765625 Z M 116.46875 39.765625 "/>
<path style=" stroke:none;fill-rule:evenodd;fill:rgb(0%,0%,0%);fill-opacity:1;" d="M 126.511719 46.882812 L 126.949219 46.882812 L 125.878906 51.671875 C 125.769531 52.15625 125.714844 52.527344 125.714844 52.773438 C 125.714844 52.972656 125.746094 53.117188 125.808594 53.207031 C 125.875 53.296875 125.976562 53.34375 126.117188 53.34375 C 126.265625 53.34375 126.421875 53.28125 126.59375 53.15625 C 126.761719 53.035156 127 52.804688 127.304688 52.464844 L 127.730469 52.878906 C 127.246094 53.390625 126.851562 53.742188 126.546875 53.925781 C 126.246094 54.109375 125.90625 54.199219 125.527344 54.199219 C 125.203125 54.199219 124.945312 54.082031 124.753906 53.847656 C 124.558594 53.609375 124.464844 53.308594 124.464844 52.9375 C 124.464844 52.5625 124.53125 52.078125 124.671875 51.492188 L 125.230469 49.050781 C 125.34375 48.554688 125.402344 48.183594 125.402344 47.933594 C 125.402344 47.707031 125.347656 47.554688 125.242188 47.476562 C 125.132812 47.398438 124.925781 47.355469 124.613281 47.34375 L 124.695312 46.949219 Z M 126.308594 44.023438 L 127.625 44.023438 L 127.285156 45.472656 L 125.964844 45.472656 Z M 126.308594 44.023438 "/>
<path style=" stroke:none;fill-rule:evenodd;fill:rgb(0%,0%,0%);fill-opacity:1;" d="M 81.476562 8.710938 C 81.132812 8.710938 80.847656 8.816406 80.617188 9.019531 C 80.386719 9.222656 80.199219 9.515625 80.058594 9.902344 C 79.914062 10.285156 79.816406 10.75 79.757812 11.296875 C 79.695312 11.847656 79.667969 12.46875 79.667969 13.160156 C 79.667969 14.78125 79.816406 15.972656 80.117188 16.730469 C 80.417969 17.488281 80.882812 17.871094 81.511719 17.871094 C 82.113281 17.871094 82.558594 17.511719 82.847656 16.796875 C 83.140625 16.085938 83.285156 14.976562 83.285156 13.480469 C 83.285156 12.335938 83.210938 11.410156 83.0625 10.703125 C 82.914062 9.992188 82.703125 9.484375 82.4375 9.175781 C 82.171875 8.867188 81.851562 8.710938 81.476562 8.710938 Z M 72.847656 8.710938 C 72.503906 8.710938 72.21875 8.816406 71.988281 9.019531 C 71.757812 9.222656 71.570312 9.515625 71.429688 9.902344 C 71.285156 10.285156 71.1875 10.75 71.128906 11.296875 C 71.066406 11.847656 71.039062 12.46875 71.039062 13.160156 C 71.039062 14.78125 71.1875 15.972656 71.488281 16.730469 C 71.789062 17.488281 72.253906 17.871094 72.882812 17.871094 C 73.484375 17.871094 73.929688 17.511719 74.21875 16.796875 C 74.511719 16.085938 74.65625 14.976562 74.65625 13.480469 C 74.65625 12.335938 74.582031 11.410156 74.433594 10.703125 C 74.285156 9.992188 74.074219 9.484375 73.808594 9.175781 C 73.542969 8.867188 73.222656 8.710938 72.847656 8.710938 Z M 81.511719 8.078125 C 82.597656 8.078125 83.410156 8.5 83.9375 9.339844 C 84.46875 10.179688 84.734375 11.453125 84.734375 13.152344 C 84.734375 14.914062 84.453125 16.246094 83.882812 17.148438 C 83.316406 18.050781 82.484375 18.503906 81.394531 18.503906 C 80.320312 18.503906 79.523438 18.078125 79 17.234375 C 78.476562 16.386719 78.214844 15.105469 78.214844 13.382812 C 78.214844 12.46875 78.296875 11.679688 78.457031 11.011719 C 78.617188 10.34375 78.84375 9.792969 79.132812 9.359375 C 79.425781 8.921875 79.773438 8.601562 80.179688 8.394531 C 80.585938 8.183594 81.03125 8.078125 81.511719 8.078125 Z M 72.882812 8.078125 C 73.96875 8.078125 74.78125 8.5 75.308594 9.339844 C 75.839844 10.179688 76.105469 11.453125 76.105469 13.152344 C 76.105469 14.914062 75.824219 16.246094 75.253906 17.148438 C 74.6875 18.050781 73.855469 18.503906 72.765625 18.503906 C 71.691406 18.503906 70.894531 18.078125 70.371094 17.234375 C 69.847656 16.386719 69.585938 15.105469 69.585938 13.382812 C 69.585938 12.46875 69.667969 11.679688 69.828125 11.011719 C 69.988281 10.34375 70.214844 9.792969 70.503906 9.359375 C 70.796875 8.921875 71.144531 8.601562 71.550781 8.394531 C 71.957031 8.183594 72.402344 8.078125 72.882812 8.078125 Z M 64.804688 8.078125 L 65.214844 8.078125 C 65.183594 8.558594 65.171875 9.21875 65.171875 10.066406 L 65.171875 16.4375 C 65.171875 16.726562 65.1875 16.941406 65.21875 17.089844 C 65.25 17.234375 65.308594 17.355469 65.390625 17.445312 C 65.472656 17.539062 65.589844 17.609375 65.742188 17.660156 C 65.898438 17.714844 66.089844 17.753906 66.324219 17.78125 C 66.558594 17.808594 66.863281 17.828125 67.246094 17.835938 L 67.246094 18.382812 L 61.746094 18.382812 L 61.746094 17.835938 C 62.296875 17.816406 62.691406 17.78125 62.925781 17.738281 C 63.160156 17.695312 63.339844 17.632812 63.464844 17.546875 C 63.589844 17.460938 63.679688 17.34375 63.738281 17.1875 C 63.792969 17.035156 63.824219 16.785156 63.824219 16.4375 L 63.824219 10.386719 C 63.824219 10.1875 63.789062 10.042969 63.71875 9.949219 C 63.648438 9.855469 63.546875 9.8125 63.414062 9.8125 C 63.253906 9.8125 63.027344 9.890625 62.734375 10.054688 C 62.445312 10.21875 62.082031 10.449219 61.648438 10.738281 L 61.320312 10.160156 Z M 64.804688 8.078125 "/>
<path style=" stroke:none;fill-rule:evenodd;fill:rgb(0%,0%,0%);fill-opacity:1;" d="M 63.171875 69.515625 L 63.609375 69.515625 L 62.539062 74.304688 C 62.429688 74.796875 62.375 75.160156 62.375 75.410156 C 62.375 75.609375 62.40625 75.753906 62.472656 75.84375 C 62.535156 75.933594 62.636719 75.976562 62.777344 75.976562 C 62.925781 75.976562 63.085938 75.917969 63.253906 75.796875 C 63.421875 75.671875 63.660156 75.441406 63.96875 75.097656 L 64.390625 75.515625 C 63.90625 76.027344 63.511719 76.375 63.210938 76.558594 C 62.90625 76.746094 62.566406 76.835938 62.1875 76.835938 C 61.867188 76.835938 61.609375 76.71875 61.414062 76.480469 C 61.222656 76.246094 61.125 75.941406 61.125 75.574219 C 61.125 75.195312 61.195312 74.714844 61.332031 74.125 L 61.890625 71.6875 C 62.003906 71.191406 62.0625 70.816406 62.0625 70.570312 C 62.0625 70.34375 62.007812 70.195312 61.902344 70.113281 C 61.796875 70.03125 61.585938 69.988281 61.273438 69.976562 L 61.355469 69.582031 Z M 62.96875 66.660156 L 64.289062 66.660156 L 63.945312 68.105469 L 62.628906 68.105469 Z M 62.96875 66.660156 "/>
<path style=" stroke:none;fill-rule:evenodd;fill:rgb(0%,0%,0%);fill-opacity:1;" d="M 66.625 73.402344 L 75.792969 73.402344 L 75.792969 74.398438 L 66.625 74.398438 Z M 66.625 70.304688 L 75.792969 70.304688 L 75.792969 71.300781 L 66.625 71.300781 Z M 66.625 70.304688 "/>
<path style=" stroke:none;fill-rule:evenodd;fill:rgb(0%,0%,0%);fill-opacity:1;" d="M 81.859375 66.410156 L 82.265625 66.410156 C 82.238281 66.890625 82.222656 67.554688 82.222656 68.398438 L 82.222656 74.769531 C 82.222656 75.058594 82.238281 75.273438 82.269531 75.421875 C 82.304688 75.566406 82.359375 75.6875 82.441406 75.78125 C 82.523438 75.871094 82.640625 75.941406 82.796875 75.996094 C 82.949219 76.050781 83.144531 76.089844 83.375 76.117188 C 83.609375 76.140625 83.917969 76.160156 84.300781 76.171875 L 84.300781 76.714844 L 78.796875 76.714844 L 78.796875 76.171875 C 79.347656 76.148438 79.742188 76.113281 79.976562 76.070312 C 80.214844 76.027344 80.394531 75.964844 80.519531 75.878906 C 80.640625 75.796875 80.734375 75.675781 80.789062 75.523438 C 80.847656 75.367188 80.875 75.117188 80.875 74.769531 L 80.875 68.71875 C 80.875 68.519531 80.839844 68.375 80.769531 68.28125 C 80.703125 68.191406 80.601562 68.144531 80.464844 68.144531 C 80.308594 68.144531 80.082031 68.226562 79.789062 68.390625 C 79.496094 68.554688 79.132812 68.78125 78.703125 69.070312 L 78.375 68.492188 Z M 81.859375 66.410156 "/>
<path style=" stroke:none;fill-rule:evenodd;fill:rgb(0%,0%,0%);fill-opacity:1;" d="M 30.519531 42.207031 L 31.144531 42.207031 L 31.144531 49.558594 C 31.144531 50.144531 31.171875 50.554688 31.226562 50.785156 C 31.28125 51.011719 31.386719 51.1875 31.539062 51.308594 C 31.695312 51.429688 31.945312 51.53125 32.292969 51.621094 L 32.292969 52.125 L 28.273438 52.125 L 28.273438 51.621094 C 28.542969 51.539062 28.730469 51.46875 28.84375 51.40625 C 28.957031 51.34375 29.050781 51.257812 29.128906 51.148438 C 29.210938 51.039062 29.269531 50.871094 29.316406 50.644531 C 29.359375 50.417969 29.382812 50.066406 29.382812 49.585938 L 29.382812 45.105469 C 29.382812 44.667969 29.375 44.316406 29.363281 44.046875 C 29.347656 43.78125 29.300781 43.566406 29.21875 43.40625 C 29.136719 43.242188 29.011719 43.125 28.84375 43.046875 C 28.675781 42.964844 28.4375 42.898438 28.132812 42.84375 L 28.132812 42.300781 Z M 40.40625 42.136719 C 40.773438 42.136719 41.105469 42.179688 41.394531 42.265625 C 41.683594 42.347656 41.941406 42.480469 42.164062 42.660156 C 42.386719 42.839844 42.570312 43.058594 42.710938 43.324219 C 42.855469 43.585938 42.964844 43.902344 43.035156 44.273438 C 43.105469 44.644531 43.140625 45.113281 43.140625 45.683594 L 43.140625 49.558594 C 43.140625 50.03125 43.15625 50.371094 43.183594 50.582031 C 43.210938 50.796875 43.257812 50.960938 43.328125 51.078125 C 43.394531 51.195312 43.496094 51.289062 43.625 51.371094 C 43.753906 51.449219 43.980469 51.53125 44.300781 51.621094 L 44.300781 52.125 L 40.261719 52.125 L 40.261719 51.621094 C 40.527344 51.539062 40.71875 51.46875 40.835938 51.40625 C 40.953125 51.34375 41.050781 51.257812 41.128906 51.148438 C 41.207031 51.039062 41.269531 50.867188 41.3125 50.640625 C 41.355469 50.410156 41.378906 50.0625 41.378906 49.597656 L 41.378906 46.90625 C 41.378906 46.425781 41.367188 45.992188 41.339844 45.597656 C 41.3125 45.210938 41.265625 44.890625 41.199219 44.636719 C 41.136719 44.386719 41.054688 44.195312 40.964844 44.054688 C 40.871094 43.910156 40.761719 43.792969 40.636719 43.691406 C 40.507812 43.59375 40.363281 43.515625 40.199219 43.457031 C 40.035156 43.398438 39.820312 43.371094 39.554688 43.371094 C 39.289062 43.371094 39.035156 43.421875 38.796875 43.527344 C 38.554688 43.636719 38.292969 43.816406 38.007812 44.078125 C 37.71875 44.339844 37.511719 44.59375 37.378906 44.847656 C 37.25 45.101562 37.1875 45.394531 37.1875 45.722656 L 37.1875 49.558594 C 37.1875 50.144531 37.214844 50.554688 37.269531 50.785156 C 37.324219 51.011719 37.425781 51.1875 37.582031 51.308594 C 37.734375 51.429688 37.984375 51.53125 38.335938 51.621094 L 38.335938 52.125 L 34.316406 52.125 L 34.316406 51.621094 C 34.582031 51.539062 34.769531 51.46875 34.882812 51.40625 C 34.996094 51.34375 35.09375 51.257812 35.171875 51.148438 C 35.25 51.039062 35.3125 50.871094 35.355469 50.644531 C 35.398438 50.417969 35.421875 50.066406 35.421875 49.585938 L 35.421875 45.105469 C 35.421875 44.667969 35.414062 44.316406 35.402344 44.046875 C 35.386719 43.78125 35.339844 43.566406 35.257812 43.40625 C 35.175781 43.242188 35.050781 43.125 34.882812 43.046875 C 34.714844 42.964844 34.480469 42.898438 34.171875 42.84375 L 34.171875 42.300781 L 36.570312 42.207031 L 37.195312 42.207031 L 37.082031 43.882812 L 37.226562 43.921875 C 37.734375 43.410156 38.140625 43.042969 38.453125 42.824219 C 38.761719 42.605469 39.078125 42.4375 39.394531 42.316406 C 39.714844 42.195312 40.050781 42.136719 40.40625 42.136719 Z M 16.769531 42.136719 C 17.453125 42.136719 18.007812 42.292969 18.4375 42.609375 C 18.871094 42.921875 19.167969 43.40625 19.332031 44.058594 C 19.84375 43.539062 20.257812 43.152344 20.578125 42.90625 C 20.894531 42.660156 21.21875 42.46875 21.550781 42.335938 C 21.882812 42.203125 22.238281 42.136719 22.621094 42.136719 C 23.082031 42.136719 23.476562 42.203125 23.804688 42.335938 C 24.136719 42.46875 24.417969 42.675781 24.648438 42.953125 C 24.875 43.230469 25.042969 43.578125 25.148438 43.996094 C 25.253906 44.414062 25.308594 44.976562 25.308594 45.683594 L 25.308594 49.558594 C 25.308594 50.074219 25.324219 50.4375 25.359375 50.636719 C 25.394531 50.835938 25.441406 50.988281 25.507812 51.097656 C 25.574219 51.207031 25.671875 51.300781 25.800781 51.378906 C 25.929688 51.460938 26.148438 51.539062 26.457031 51.621094 L 26.457031 52.125 L 22.425781 52.125 L 22.425781 51.621094 C 22.695312 51.539062 22.886719 51.46875 23 51.40625 C 23.117188 51.34375 23.214844 51.257812 23.292969 51.148438 C 23.371094 51.039062 23.433594 50.867188 23.476562 50.640625 C 23.523438 50.410156 23.546875 50.0625 23.546875 49.597656 L 23.546875 46.90625 C 23.546875 46.320312 23.53125 45.839844 23.5 45.460938 C 23.46875 45.078125 23.421875 44.777344 23.355469 44.550781 C 23.289062 44.324219 23.210938 44.148438 23.121094 44.015625 C 23.027344 43.886719 22.921875 43.773438 22.804688 43.679688 C 22.691406 43.582031 22.554688 43.503906 22.398438 43.449219 C 22.238281 43.394531 22.03125 43.371094 21.769531 43.371094 C 21.496094 43.371094 21.242188 43.425781 21.007812 43.535156 C 20.773438 43.644531 20.515625 43.828125 20.238281 44.085938 C 19.960938 44.351562 19.761719 44.613281 19.636719 44.875 C 19.515625 45.140625 19.453125 45.449219 19.453125 45.804688 L 19.453125 49.558594 C 19.453125 50.074219 19.472656 50.4375 19.503906 50.636719 C 19.539062 50.835938 19.589844 50.988281 19.652344 51.097656 C 19.71875 51.207031 19.816406 51.300781 19.945312 51.378906 C 20.074219 51.460938 20.292969 51.539062 20.601562 51.621094 L 20.601562 52.125 L 16.574219 52.125 L 16.574219 51.621094 C 16.839844 51.539062 17.03125 51.46875 17.148438 51.40625 C 17.261719 51.34375 17.359375 51.257812 17.4375 51.148438 C 17.519531 51.039062 17.578125 50.867188 17.625 50.640625 C 17.667969 50.410156 17.691406 50.0625 17.691406 49.597656 L 17.691406 46.90625 C 17.691406 46.296875 17.671875 45.796875 17.640625 45.414062 C 17.605469 45.03125 17.550781 44.722656 17.480469 44.488281 C 17.410156 44.257812 17.316406 44.066406 17.203125 43.921875 C 17.089844 43.78125 16.976562 43.667969 16.859375 43.59375 C 16.746094 43.519531 16.605469 43.464844 16.449219 43.425781 C 16.292969 43.386719 16.113281 43.371094 15.917969 43.371094 C 15.636719 43.371094 15.375 43.433594 15.128906 43.558594 C 14.882812 43.6875 14.628906 43.867188 14.375 44.109375 C 14.117188 44.351562 13.925781 44.597656 13.792969 44.859375 C 13.664062 45.121094 13.601562 45.398438 13.601562 45.703125 L 13.601562 49.558594 C 13.601562 49.945312 13.609375 50.242188 13.628906 50.449219 C 13.652344 50.65625 13.683594 50.816406 13.726562 50.933594 C 13.773438 51.050781 13.828125 51.144531 13.898438 51.214844 C 13.964844 51.285156 14.0625 51.355469 14.191406 51.421875 C 14.316406 51.484375 14.503906 51.550781 14.757812 51.621094 L 14.757812 52.125 L 10.738281 52.125 L 10.738281 51.621094 C 11 51.539062 11.183594 51.46875 11.296875 51.40625 C 11.410156 51.34375 11.507812 51.257812 11.589844 51.148438 C 11.671875 51.039062 11.734375 50.871094 11.773438 50.644531 C 11.816406 50.417969 11.835938 50.066406 11.835938 49.585938 L 11.835938 45.105469 C 11.835938 44.667969 11.828125 44.316406 11.816406 44.046875 C 11.800781 43.78125 11.753906 43.566406 11.671875 43.40625 C 11.589844 43.242188 11.464844 43.125 11.296875 43.046875 C 11.128906 42.964844 10.894531 42.898438 10.585938 42.84375 L 10.585938 42.300781 L 12.984375 42.207031 L 13.609375 42.207031 L 13.496094 43.882812 L 13.640625 43.921875 C 14.050781 43.515625 14.386719 43.203125 14.652344 42.996094 C 14.914062 42.785156 15.167969 42.617188 15.414062 42.492188 C 15.660156 42.363281 15.890625 42.273438 16.105469 42.21875 C 16.320312 42.164062 16.542969 42.136719 16.769531 42.136719 Z M 29.320312 38.273438 L 31.207031 38.273438 L 31.207031 40.265625 L 29.320312 40.265625 Z M 29.320312 38.273438 "/>
<path style=" stroke:none;fill-rule:evenodd;fill:rgb(0%,0%,0%);fill-opacity:1;" d="M 62.917969 104.449219 C 63.132812 104.449219 63.316406 104.472656 63.476562 104.523438 C 63.640625 104.570312 63.78125 104.644531 63.902344 104.742188 C 64.027344 104.84375 64.136719 104.96875 64.230469 105.128906 C 64.328125 105.285156 64.417969 105.5 64.507812 105.769531 C 64.597656 106.042969 64.679688 106.375 64.761719 106.777344 C 64.839844 107.179688 64.910156 107.597656 64.96875 108.027344 L 65.074219 108.027344 C 65.730469 107.101562 66.226562 106.425781 66.5625 105.996094 C 66.902344 105.570312 67.1875 105.25 67.421875 105.042969 C 67.652344 104.832031 67.875 104.683594 68.09375 104.601562 C 68.308594 104.515625 68.59375 104.472656 68.949219 104.472656 C 69.269531 104.472656 69.53125 104.511719 69.738281 104.59375 L 69.328125 106.453125 L 68.609375 106.453125 C 68.570312 106.164062 68.449219 106.023438 68.25 106.023438 C 68.191406 106.023438 68.125 106.035156 68.054688 106.054688 C 67.988281 106.074219 67.902344 106.117188 67.804688 106.1875 C 67.707031 106.253906 67.558594 106.386719 67.367188 106.585938 C 67.179688 106.785156 66.960938 107.03125 66.722656 107.316406 C 66.484375 107.605469 66.238281 107.90625 65.984375 108.222656 L 65.289062 109.09375 C 65.410156 109.753906 65.527344 110.320312 65.636719 110.800781 C 65.746094 111.28125 65.84375 111.679688 65.929688 112 C 66.015625 112.316406 66.089844 112.570312 66.152344 112.753906 C 66.21875 112.9375 66.289062 113.078125 66.363281 113.167969 C 66.441406 113.261719 66.515625 113.328125 66.59375 113.363281 C 66.671875 113.402344 66.765625 113.421875 66.867188 113.421875 C 67.050781 113.421875 67.230469 113.351562 67.40625 113.207031 C 67.578125 113.0625 67.832031 112.738281 68.160156 112.230469 L 68.824219 112.671875 C 68.347656 113.386719 67.914062 113.886719 67.527344 114.179688 C 67.140625 114.46875 66.683594 114.613281 66.148438 114.613281 C 65.855469 114.613281 65.605469 114.5625 65.402344 114.453125 C 65.195312 114.347656 65.019531 114.179688 64.867188 113.945312 C 64.71875 113.714844 64.585938 113.351562 64.46875 112.859375 C 64.253906 111.976562 64.125 111.308594 64.078125 110.84375 L 63.976562 110.84375 C 63.25 111.863281 62.714844 112.59375 62.359375 113.042969 C 62.007812 113.484375 61.71875 113.816406 61.488281 114.027344 C 61.261719 114.242188 61.039062 114.386719 60.824219 114.476562 C 60.609375 114.5625 60.320312 114.605469 59.96875 114.605469 C 59.644531 114.605469 59.382812 114.5625 59.175781 114.480469 L 59.585938 112.621094 L 60.304688 112.621094 C 60.347656 112.90625 60.464844 113.050781 60.664062 113.050781 C 60.757812 113.050781 60.859375 113.023438 60.964844 112.976562 C 61.074219 112.925781 61.222656 112.800781 61.421875 112.605469 C 61.621094 112.410156 61.894531 112.101562 62.242188 111.683594 C 62.589844 111.265625 63.097656 110.640625 63.761719 109.804688 C 63.65625 109.261719 63.550781 108.742188 63.441406 108.242188 C 63.332031 107.742188 63.21875 107.277344 63.105469 106.84375 C 62.988281 106.414062 62.890625 106.132812 62.816406 105.996094 C 62.742188 105.863281 62.660156 105.769531 62.574219 105.71875 C 62.492188 105.667969 62.382812 105.640625 62.253906 105.640625 C 62.109375 105.640625 61.980469 105.675781 61.863281 105.738281 C 61.746094 105.804688 61.621094 105.917969 61.484375 106.078125 C 61.347656 106.242188 61.167969 106.492188 60.941406 106.835938 L 60.273438 106.394531 C 60.703125 105.742188 61.117188 105.253906 61.515625 104.933594 C 61.910156 104.613281 62.378906 104.449219 62.917969 104.449219 Z M 62.917969 104.449219 "/>
<path style=" stroke:none;fill-rule:evenodd;fill:rgb(0%,0%,0%);fill-opacity:1;" d="M 72.960938 111.5625 L 73.398438 111.5625 L 72.328125 116.355469 C 72.21875 116.84375 72.164062 117.207031 72.164062 117.457031 C 72.164062 117.65625 72.195312 117.800781 72.261719 117.890625 C 72.324219 117.980469 72.425781 118.023438 72.566406 118.023438 C 72.714844 118.023438 72.875 117.964844 73.042969 117.84375 C 73.210938 117.722656 73.449219 117.488281 73.757812 117.144531 L 74.179688 117.5625 C 73.695312 118.074219 73.300781 118.421875 72.996094 118.605469 C 72.695312 118.789062 72.355469 118.882812 71.976562 118.882812 C 71.65625 118.882812 71.398438 118.765625 71.203125 118.527344 C 71.011719 118.292969 70.914062 117.988281 70.914062 117.625 C 70.914062 117.242188 70.984375 116.761719 71.121094 116.175781 L 71.679688 113.734375 C 71.792969 113.238281 71.851562 112.863281 71.851562 112.617188 C 71.851562 112.390625 71.796875 112.242188 71.691406 112.160156 C 71.585938 112.082031 71.375 112.035156 71.0625 112.027344 L 71.144531 111.628906 Z M 72.757812 108.707031 L 74.078125 108.707031 L 73.734375 110.152344 L 72.417969 110.152344 Z M 72.757812 108.707031 "/>
<path style=" stroke:none;fill-rule:evenodd;fill:rgb(0%,0%,0%);fill-opacity:1;" d="M 83.566406 114.210938 L 96.199219 114.210938 L 96.199219 115.578125 L 83.566406 115.578125 Z M 83.566406 101.296875 L 96.238281 106.238281 L 96.238281 107.675781 L 83.566406 112.621094 L 83.566406 111.078125 L 94.546875 106.957031 L 83.566406 102.835938 Z M 83.566406 101.296875 "/>
<path style=" stroke:none;fill-rule:evenodd;fill:rgb(0%,0%,0%);fill-opacity:1;" d="M 109.613281 100.257812 C 110.886719 100.257812 111.84375 100.535156 112.496094 101.09375 C 113.144531 101.652344 113.46875 102.464844 113.46875 103.523438 C 113.46875 103.886719 113.433594 104.222656 113.359375 104.527344 C 113.289062 104.832031 113.175781 105.132812 113.023438 105.429688 C 112.871094 105.730469 112.664062 106.050781 112.402344 106.394531 C 112.144531 106.734375 111.855469 107.082031 111.542969 107.433594 C 111.226562 107.789062 110.683594 108.375 109.910156 109.199219 C 108.613281 110.574219 107.660156 111.777344 107.050781 112.804688 L 110.914062 112.804688 C 111.25 112.804688 111.519531 112.785156 111.726562 112.742188 C 111.929688 112.703125 112.09375 112.632812 112.21875 112.539062 C 112.339844 112.441406 112.4375 112.316406 112.511719 112.164062 C 112.582031 112.007812 112.671875 111.769531 112.78125 111.449219 L 113.652344 111.449219 L 113.480469 114.449219 L 105.042969 114.449219 L 105.042969 113.957031 C 105.335938 113.234375 105.730469 112.5 106.230469 111.746094 C 106.730469 110.992188 107.4375 110.105469 108.351562 109.082031 C 109.144531 108.207031 109.714844 107.542969 110.066406 107.089844 C 110.449219 106.597656 110.734375 106.171875 110.921875 105.8125 C 111.109375 105.449219 111.246094 105.113281 111.328125 104.792969 C 111.40625 104.476562 111.449219 104.15625 111.449219 103.832031 C 111.449219 103.320312 111.367188 102.863281 111.203125 102.472656 C 111.039062 102.078125 110.789062 101.769531 110.449219 101.542969 C 110.109375 101.316406 109.6875 101.203125 109.171875 101.203125 C 107.894531 101.203125 107.035156 101.917969 106.589844 103.339844 L 105.347656 103.339844 L 105.347656 101.367188 C 106.175781 100.976562 106.949219 100.695312 107.671875 100.519531 C 108.390625 100.34375 109.039062 100.257812 109.613281 100.257812 Z M 109.613281 100.257812 "/>
<path style=" stroke:none;fill-rule:evenodd;fill:rgb(0%,0%,0%);fill-opacity:1;" d="M 137.996094 106.433594 L 140.148438 112.539062 L 142.742188 106.433594 Z M 134.378906 101.296875 L 136.222656 101.296875 L 137.515625 105.023438 L 143.339844 105.023438 L 144.90625 101.296875 L 146.597656 101.296875 L 140.847656 114.460938 L 139.277344 114.460938 Z M 134.378906 101.296875 "/>
<path style=" stroke:none;fill-rule:evenodd;fill:rgb(0%,0%,0%);fill-opacity:1;" d="M 151.316406 104.53125 L 151.917969 104.53125 L 150.441406 111.128906 C 150.289062 111.800781 150.214844 112.308594 150.214844 112.648438 C 150.214844 112.925781 150.261719 113.121094 150.347656 113.246094 C 150.4375 113.371094 150.578125 113.429688 150.769531 113.429688 C 150.976562 113.429688 151.195312 113.347656 151.425781 113.179688 C 151.660156 113.011719 151.988281 112.691406 152.410156 112.21875 L 152.996094 112.792969 C 152.324219 113.5 151.78125 113.980469 151.363281 114.234375 C 150.945312 114.488281 150.480469 114.613281 149.960938 114.613281 C 149.515625 114.613281 149.160156 114.453125 148.894531 114.125 C 148.628906 113.800781 148.492188 113.386719 148.492188 112.878906 C 148.492188 112.355469 148.589844 111.691406 148.78125 110.882812 L 149.546875 107.523438 C 149.707031 106.835938 149.785156 106.324219 149.785156 105.980469 C 149.785156 105.671875 149.710938 105.464844 149.566406 105.355469 C 149.417969 105.242188 149.128906 105.183594 148.699219 105.167969 L 148.8125 104.625 Z M 151.035156 100.597656 L 152.851562 100.597656 L 152.378906 102.589844 L 150.5625 102.589844 Z M 151.035156 100.597656 "/>
<path style=" stroke:none;fill-rule:evenodd;fill:rgb(0%,0%,0%);fill-opacity:1;" d="M 167.71875 102.34375 L 171.921875 102.34375 L 171.921875 103.773438 L 167.710938 103.773438 C 167.03125 103.773438 166.484375 103.808594 166.0625 103.886719 C 165.640625 103.960938 165.292969 104.082031 165.011719 104.25 C 164.734375 104.417969 164.476562 104.65625 164.25 104.964844 C 164.019531 105.273438 163.839844 105.648438 163.707031 106.101562 C 163.578125 106.550781 163.5 107.058594 163.464844 107.625 L 171.921875 107.625 L 171.921875 109.054688 L 163.453125 109.054688 C 163.488281 109.691406 163.578125 110.257812 163.730469 110.75 C 163.882812 111.242188 164.109375 111.660156 164.414062 112.007812 C 164.714844 112.351562 165.109375 112.609375 165.59375 112.773438 C 166.074219 112.9375 166.738281 113.023438 167.585938 113.023438 L 171.921875 113.023438 L 171.921875 114.449219 L 167.546875 114.449219 C 166.875 114.449219 166.292969 114.410156 165.800781 114.324219 C 165.308594 114.246094 164.863281 114.109375 164.46875 113.925781 C 164.070312 113.738281 163.695312 113.460938 163.347656 113.089844 C 162.996094 112.714844 162.707031 112.300781 162.488281 111.847656 C 162.269531 111.394531 162.105469 110.886719 161.996094 110.316406 C 161.886719 109.75 161.832031 109.132812 161.832031 108.46875 C 161.832031 107.386719 161.941406 106.488281 162.152344 105.78125 C 162.363281 105.070312 162.71875 104.441406 163.214844 103.890625 C 163.71875 103.335938 164.316406 102.941406 165.011719 102.703125 C 165.707031 102.464844 166.609375 102.34375 167.71875 102.34375 Z M 167.71875 102.34375 "/>
<path style=" stroke:none;fill-rule:evenodd;fill:rgb(0%,0%,0%);fill-opacity:1;" d="M 281.601562 98.632812 L 281.867188 98.632812 C 283.472656 98.660156 284.675781 99.03125 285.472656 99.738281 C 286.269531 100.445312 286.664062 101.515625 286.664062 102.941406 C 286.664062 103.507812 286.585938 104.15625 286.421875 104.882812 C 286.261719 105.605469 286.183594 106.09375 286.183594 106.34375 C 286.183594 106.816406 286.347656 107.199219 286.671875 107.496094 C 286.996094 107.792969 287.484375 107.953125 288.140625 107.972656 L 288.140625 108.820312 C 287.484375 108.839844 286.996094 108.996094 286.671875 109.292969 C 286.347656 109.59375 286.183594 109.976562 286.183594 110.449219 C 286.183594 110.699219 286.261719 111.183594 286.421875 111.910156 C 286.585938 112.636719 286.664062 113.285156 286.664062 113.851562 C 286.664062 115.324219 286.269531 116.417969 285.472656 117.128906 C 284.675781 117.832031 283.472656 118.203125 281.867188 118.230469 L 281.601562 118.230469 L 281.601562 117.449219 L 281.753906 117.449219 C 282.746094 117.449219 283.523438 117.191406 284.082031 116.675781 C 284.644531 116.15625 284.921875 115.28125 284.921875 114.035156 C 284.921875 113.558594 284.851562 112.96875 284.71875 112.261719 C 284.578125 111.554688 284.515625 111.050781 284.515625 110.75 C 284.515625 110.167969 284.683594 109.6875 285.027344 109.316406 C 285.367188 108.941406 285.773438 108.664062 286.246094 108.488281 L 286.246094 108.300781 C 285.773438 108.125 285.367188 107.851562 285.027344 107.476562 C 284.683594 107.101562 284.515625 106.625 284.515625 106.042969 C 284.515625 105.742188 284.578125 105.238281 284.71875 104.53125 C 284.851562 103.828125 284.921875 103.234375 284.921875 102.753906 C 284.921875 101.5625 284.644531 100.707031 284.082031 100.1875 C 283.523438 99.671875 282.746094 99.414062 281.753906 99.414062 L 281.601562 99.414062 Z M 186.636719 98.632812 L 186.90625 98.632812 L 186.90625 99.414062 L 186.75 99.414062 C 185.761719 99.414062 184.984375 99.671875 184.421875 100.1875 C 183.863281 100.707031 183.582031 101.558594 183.582031 102.742188 C 183.582031 103.222656 183.652344 103.816406 183.789062 104.523438 C 183.925781 105.230469 183.992188 105.730469 183.992188 106.035156 C 183.992188 106.617188 183.824219 107.089844 183.480469 107.464844 C 183.136719 107.839844 182.734375 108.113281 182.261719 108.292969 L 182.261719 108.476562 C 182.734375 108.65625 183.136719 108.929688 183.480469 109.304688 C 183.824219 109.679688 183.992188 110.15625 183.992188 110.738281 C 183.992188 111.042969 183.925781 111.542969 183.789062 112.25 C 183.652344 112.957031 183.582031 113.550781 183.582031 114.027344 C 183.582031 115.273438 183.863281 116.15625 184.421875 116.675781 C 184.984375 117.191406 185.761719 117.449219 186.75 117.449219 L 186.90625 117.449219 L 186.90625 118.230469 L 186.636719 118.230469 C 185.035156 118.203125 183.832031 117.832031 183.035156 117.128906 C 182.238281 116.417969 181.839844 115.324219 181.839844 113.84375 C 181.839844 113.273438 181.921875 112.625 182.082031 111.898438 C 182.242188 111.175781 182.320312 110.6875 182.320312 110.441406 C 182.320312 109.96875 182.160156 109.582031 181.835938 109.285156 C 181.511719 108.988281 181.019531 108.828125 180.367188 108.808594 L 180.367188 107.964844 C 181.019531 107.945312 181.511719 107.785156 181.835938 107.488281 C 182.160156 107.191406 182.320312 106.804688 182.320312 106.332031 C 182.320312 106.085938 182.242188 105.597656 182.082031 104.871094 C 181.921875 104.144531 181.839844 103.496094 181.839844 102.929688 C 181.839844 101.511719 182.238281 100.445312 183.035156 99.738281 C 183.832031 99.03125 185.035156 98.660156 186.636719 98.632812 Z M 186.636719 98.632812 "/>
<path style=" stroke:none;fill-rule:evenodd;fill:rgb(0%,0%,0%);fill-opacity:1;" d="M 194.179688 100.257812 L 194.742188 100.257812 C 194.703125 100.914062 194.683594 101.828125 194.683594 102.992188 L 194.683594 111.769531 C 194.683594 112.164062 194.703125 112.464844 194.75 112.667969 C 194.792969 112.867188 194.875 113.035156 194.984375 113.160156 C 195.097656 113.289062 195.257812 113.386719 195.472656 113.457031 C 195.683594 113.53125 195.949219 113.585938 196.269531 113.621094 C 196.59375 113.660156 197.015625 113.683594 197.542969 113.699219 L 197.542969 114.449219 L 189.964844 114.449219 L 189.964844 113.699219 C 190.726562 113.664062 191.265625 113.617188 191.589844 113.5625 C 191.917969 113.503906 192.164062 113.414062 192.332031 113.296875 C 192.507812 113.179688 192.628906 113.015625 192.707031 112.804688 C 192.789062 112.59375 192.824219 112.246094 192.824219 111.769531 L 192.824219 103.433594 C 192.824219 103.160156 192.78125 102.957031 192.683594 102.832031 C 192.585938 102.703125 192.449219 102.640625 192.261719 102.640625 C 192.042969 102.640625 191.734375 102.753906 191.328125 102.980469 C 190.925781 103.207031 190.425781 103.519531 189.835938 103.914062 L 189.382812 103.125 Z M 194.179688 100.257812 "/>
<path style=" stroke:none;fill-rule:evenodd;fill:rgb(0%,0%,0%);fill-opacity:1;" d="M 200.632812 112.066406 L 202.421875 112.066406 C 202.523438 112.542969 202.566406 113.015625 202.566406 113.484375 C 202.566406 113.960938 202.488281 114.398438 202.324219 114.796875 C 202.160156 115.195312 201.898438 115.589844 201.539062 115.984375 C 201.179688 116.378906 200.6875 116.8125 200.054688 117.285156 L 199.503906 116.65625 C 199.851562 116.328125 200.105469 116.035156 200.261719 115.769531 C 200.417969 115.507812 200.53125 115.207031 200.601562 114.871094 C 200.667969 114.535156 200.703125 114.113281 200.703125 113.605469 C 200.703125 113.085938 200.679688 112.570312 200.632812 112.066406 Z M 200.632812 112.066406 "/>
<path style=" stroke:none;fill-rule:evenodd;fill:rgb(0%,0%,0%);fill-opacity:1;" d="M 212.949219 100.257812 C 214.222656 100.257812 215.179688 100.535156 215.832031 101.09375 C 216.480469 101.652344 216.804688 102.464844 216.804688 103.523438 C 216.804688 103.886719 216.769531 104.222656 216.695312 104.527344 C 216.625 104.832031 216.511719 105.132812 216.359375 105.429688 C 216.203125 105.730469 215.996094 106.050781 215.738281 106.394531 C 215.480469 106.734375 215.191406 107.082031 214.878906 107.433594 C 214.5625 107.789062 214.019531 108.375 213.246094 109.199219 C 211.949219 110.574219 210.996094 111.777344 210.386719 112.804688 L 214.25 112.804688 C 214.585938 112.804688 214.859375 112.785156 215.0625 112.742188 C 215.265625 112.703125 215.429688 112.632812 215.554688 112.539062 C 215.679688 112.441406 215.777344 112.316406 215.847656 112.164062 C 215.917969 112.007812 216.007812 111.769531 216.117188 111.449219 L 216.988281 111.449219 L 216.8125 114.449219 L 208.378906 114.449219 L 208.378906 113.957031 C 208.671875 113.234375 209.066406 112.5 209.566406 111.746094 C 210.066406 110.992188 210.773438 110.105469 211.6875 109.082031 C 212.480469 108.207031 213.050781 107.542969 213.398438 107.089844 C 213.785156 106.597656 214.070312 106.171875 214.257812 105.8125 C 214.445312 105.449219 214.578125 105.113281 214.664062 104.792969 C 214.742188 104.476562 214.785156 104.15625 214.785156 103.832031 C 214.785156 103.320312 214.703125 102.863281 214.539062 102.472656 C 214.375 102.078125 214.125 101.769531 213.785156 101.542969 C 213.445312 101.316406 213.023438 101.203125 212.507812 101.203125 C 211.230469 101.203125 210.371094 101.917969 209.925781 103.339844 L 208.683594 103.339844 L 208.683594 101.367188 C 209.511719 100.976562 210.285156 100.695312 211.007812 100.519531 C 211.730469 100.34375 212.375 100.257812 212.949219 100.257812 Z M 212.949219 100.257812 "/>
<path style=" stroke:none;fill-rule:evenodd;fill:rgb(0%,0%,0%);fill-opacity:1;" d="M 220.128906 112.066406 L 221.921875 112.066406 C 222.015625 112.542969 222.066406 113.015625 222.066406 113.484375 C 222.066406 113.960938 221.984375 114.398438 221.820312 114.796875 C 221.65625 115.195312 221.394531 115.589844 221.035156 115.984375 C 220.675781 116.378906 220.183594 116.8125 219.554688 117.285156 L 219 116.65625 C 219.347656 116.328125 219.601562 116.035156 219.757812 115.769531 C 219.917969 115.507812 220.03125 115.207031 220.097656 114.871094 C 220.164062 114.535156 220.199219 114.113281 220.199219 113.605469 C 220.199219 113.085938 220.175781 112.570312 220.128906 112.066406 Z M 220.128906 112.066406 "/>
<path style=" stroke:none;fill-rule:evenodd;fill:rgb(0%,0%,0%);fill-opacity:1;" d="M 239.152344 112.066406 L 241.226562 112.066406 L 241.226562 114.449219 L 239.152344 114.449219 Z M 234.128906 112.066406 L 236.199219 112.066406 L 236.199219 114.449219 L 234.128906 114.449219 Z M 229.105469 112.066406 L 231.175781 112.066406 L 231.175781 114.449219 L 229.105469 114.449219 Z M 229.105469 112.066406 "/>
<path style=" stroke:none;fill-rule:evenodd;fill:rgb(0%,0%,0%);fill-opacity:1;" d="M 274.996094 101.132812 C 274.523438 101.132812 274.128906 101.269531 273.8125 101.554688 C 273.496094 101.832031 273.238281 102.238281 273.042969 102.765625 C 272.851562 103.292969 272.710938 103.933594 272.628906 104.691406 C 272.546875 105.449219 272.503906 106.304688 272.503906 107.253906 C 272.503906 109.488281 272.710938 111.128906 273.125 112.175781 C 273.539062 113.21875 274.179688 113.738281 275.046875 113.738281 C 275.875 113.738281 276.488281 113.25 276.890625 112.265625 C 277.289062 111.285156 277.488281 109.757812 277.488281 107.695312 C 277.488281 106.121094 277.386719 104.84375 277.183594 103.867188 C 276.976562 102.894531 276.691406 102.191406 276.324219 101.769531 C 275.960938 101.34375 275.515625 101.132812 274.996094 101.132812 Z M 263.492188 101.132812 C 263.019531 101.132812 262.625 101.269531 262.308594 101.554688 C 261.988281 101.832031 261.734375 102.238281 261.539062 102.765625 C 261.34375 103.292969 261.203125 103.933594 261.125 104.691406 C 261.039062 105.449219 261 106.304688 261 107.253906 C 261 109.488281 261.207031 111.128906 261.621094 112.175781 C 262.035156 113.21875 262.675781 113.738281 263.542969 113.738281 C 264.371094 113.738281 264.984375 113.25 265.382812 112.265625 C 265.785156 111.285156 265.980469 109.757812 265.980469 107.695312 C 265.980469 106.121094 265.882812 104.84375 265.675781 103.867188 C 265.46875 102.894531 265.183594 102.191406 264.820312 101.769531 C 264.453125 101.34375 264.011719 101.132812 263.492188 101.132812 Z M 275.046875 100.257812 C 276.546875 100.257812 277.660156 100.835938 278.390625 101.996094 C 279.121094 103.152344 279.488281 104.902344 279.488281 107.246094 C 279.488281 109.671875 279.09375 111.503906 278.3125 112.746094 C 277.53125 113.992188 276.386719 114.613281 274.882812 114.613281 C 273.410156 114.613281 272.308594 114.03125 271.585938 112.867188 C 270.867188 111.703125 270.507812 109.933594 270.507812 107.5625 C 270.507812 106.304688 270.617188 105.214844 270.839844 104.292969 C 271.0625 103.378906 271.371094 102.621094 271.773438 102.019531 C 272.171875 101.421875 272.652344 100.976562 273.210938 100.6875 C 273.773438 100.398438 274.386719 100.257812 275.046875 100.257812 Z M 263.542969 100.257812 C 265.042969 100.257812 266.15625 100.835938 266.886719 101.996094 C 267.617188 103.152344 267.984375 104.902344 267.984375 107.246094 C 267.984375 109.671875 267.589844 111.503906 266.808594 112.746094 C 266.023438 113.992188 264.882812 114.613281 263.378906 114.613281 C 261.902344 114.613281 260.804688 114.03125 260.082031 112.867188 C 259.359375 111.703125 259 109.933594 259 107.5625 C 259 106.304688 259.113281 105.214844 259.335938 104.292969 C 259.554688 103.378906 259.867188 102.621094 260.265625 102.019531 C 260.667969 101.421875 261.148438 100.976562 261.707031 100.6875 C 262.269531 100.398438 262.882812 100.257812 263.542969 100.257812 Z M 252.507812 100.257812 L 253.074219 100.257812 C 253.03125 100.914062 253.011719 101.828125 253.011719 102.992188 L 253.011719 111.769531 C 253.011719 112.164062 253.03125 112.464844 253.078125 112.667969 C 253.121094 112.867188 253.199219 113.035156 253.316406 113.160156 C 253.425781 113.289062 253.585938 113.386719 253.800781 113.457031 C 254.011719 113.53125 254.277344 113.585938 254.601562 113.621094 C 254.921875 113.660156 255.34375 113.683594 255.871094 113.699219 L 255.871094 114.449219 L 248.296875 114.449219 L 248.296875 113.699219 C 249.054688 113.664062 249.59375 113.617188 249.921875 113.5625 C 250.246094 113.503906 250.492188 113.414062 250.664062 113.296875 C 250.835938 113.179688 250.957031 113.015625 251.035156 112.804688 C 251.117188 112.59375 251.15625 112.246094 251.15625 111.769531 L 251.15625 103.433594 C 251.15625 103.160156 251.109375 102.957031 251.011719 102.832031 C 250.914062 102.703125 250.773438 102.640625 250.589844 102.640625 C 250.371094 102.640625 250.0625 102.753906 249.660156 102.980469 C 249.257812 103.207031 248.753906 103.519531 248.164062 103.914062 L 247.710938 103.125 Z M 252.507812 100.257812 "/>
<path style=" stroke:none;fill-rule:evenodd;fill:rgb(0%,0%,0%);fill-opacity:1;" d="M 16.46875 104.449219 C 16.917969 104.449219 17.355469 104.472656 17.773438 104.515625 C 18.195312 104.558594 18.722656 104.648438 19.359375 104.777344 L 19.359375 106.875 L 18.375 106.875 C 18.222656 106.464844 18.046875 106.140625 17.839844 105.902344 C 17.636719 105.667969 17.402344 105.503906 17.144531 105.40625 C 16.882812 105.308594 16.566406 105.261719 16.191406 105.261719 C 15.644531 105.261719 15.207031 105.390625 14.882812 105.648438 C 14.558594 105.902344 14.394531 106.253906 14.394531 106.699219 C 14.394531 107.015625 14.460938 107.277344 14.589844 107.480469 C 14.722656 107.6875 14.921875 107.878906 15.195312 108.058594 C 15.46875 108.234375 15.953125 108.472656 16.640625 108.765625 C 17.339844 109.066406 17.875 109.347656 18.257812 109.601562 C 18.636719 109.851562 18.933594 110.148438 19.148438 110.480469 C 19.363281 110.820312 19.472656 111.21875 19.472656 111.683594 C 19.472656 112.226562 19.378906 112.683594 19.195312 113.050781 C 19.011719 113.421875 18.75 113.722656 18.414062 113.957031 C 18.082031 114.191406 17.683594 114.355469 17.222656 114.460938 C 16.757812 114.5625 16.253906 114.613281 15.707031 114.613281 C 15.132812 114.613281 14.578125 114.570312 14.039062 114.488281 C 13.496094 114.398438 12.972656 114.289062 12.457031 114.152344 L 12.457031 112.003906 L 13.464844 112.003906 C 13.648438 112.632812 13.921875 113.089844 14.285156 113.375 C 14.644531 113.660156 15.144531 113.800781 15.78125 113.800781 C 16.027344 113.800781 16.265625 113.777344 16.503906 113.726562 C 16.738281 113.671875 16.949219 113.585938 17.132812 113.46875 C 17.316406 113.347656 17.464844 113.1875 17.574219 112.980469 C 17.683594 112.773438 17.738281 112.515625 17.738281 112.207031 C 17.738281 111.859375 17.671875 111.574219 17.535156 111.355469 C 17.398438 111.136719 17.183594 110.9375 16.898438 110.753906 C 16.609375 110.574219 16.105469 110.328125 15.378906 110.019531 C 14.757812 109.757812 14.257812 109.507812 13.882812 109.257812 C 13.507812 109.011719 13.210938 108.71875 12.996094 108.386719 C 12.78125 108.050781 12.671875 107.652344 12.671875 107.195312 C 12.671875 106.632812 12.824219 106.144531 13.128906 105.730469 C 13.433594 105.316406 13.875 105 14.449219 104.777344 C 15.023438 104.558594 15.695312 104.449219 16.46875 104.449219 Z M 16.46875 104.449219 "/>
<path style=" stroke:none;fill-rule:evenodd;fill:rgb(0%,0%,0%);fill-opacity:1;" d="M 21.675781 112.066406 L 23.746094 112.066406 L 23.746094 114.449219 L 21.675781 114.449219 Z M 21.675781 112.066406 "/>
<path style=" stroke:none;fill-rule:evenodd;fill:rgb(0%,0%,0%);fill-opacity:1;" d="M 30.558594 102.085938 L 32.015625 102.085938 L 32.015625 104.625 L 35.328125 104.625 L 35.328125 105.660156 L 32.015625 105.660156 L 32.015625 110.238281 C 32.015625 110.898438 32.042969 111.429688 32.097656 111.824219 C 32.152344 112.21875 32.253906 112.527344 32.40625 112.746094 C 32.554688 112.96875 32.726562 113.132812 32.917969 113.226562 C 33.109375 113.320312 33.355469 113.371094 33.65625 113.371094 C 33.929688 113.371094 34.1875 113.3125 34.425781 113.199219 C 34.664062 113.089844 34.898438 112.925781 35.132812 112.714844 L 35.59375 113.265625 C 35.109375 113.738281 34.648438 114.082031 34.214844 114.296875 C 33.78125 114.507812 33.332031 114.613281 32.867188 114.613281 C 31.984375 114.613281 31.328125 114.351562 30.898438 113.828125 C 30.46875 113.304688 30.253906 112.484375 30.253906 111.367188 L 30.253906 105.660156 L 28.734375 105.660156 L 28.734375 105.140625 C 29.078125 105.085938 29.355469 104.988281 29.566406 104.851562 C 29.777344 104.714844 29.941406 104.535156 30.0625 104.320312 C 30.183594 104.105469 30.277344 103.835938 30.34375 103.511719 C 30.414062 103.183594 30.484375 102.710938 30.558594 102.085938 Z M 30.558594 102.085938 "/>
<path style=" stroke:none;fill-rule:evenodd;fill:rgb(0%,0%,0%);fill-opacity:1;" d="M 36.558594 112.066406 L 38.628906 112.066406 L 38.628906 114.449219 L 36.558594 114.449219 Z M 36.558594 112.066406 "/>
</g>
</svg>
