<?xml version="1.0" encoding="UTF-8"?>
<svg xmlns="http://www.w3.org/2000/svg" xmlns:xlink="http://www.w3.org/1999/xlink" width="300px" height="103px" viewBox="0 0 299 103" version="1.1">
<g id="surface1">
<path style=" stroke:none;fill-rule:evenodd;fill:rgb(0%,0%,0%);fill-opacity:1;" d="M 95.949219 17.050781 L 113.785156 17.050781 L 113.785156 21.429688 L 112.8125 21.429688 C 112.699219 20.378906 112.46875 19.550781 112.125 18.9375 C 111.78125 18.324219 111.257812 18.019531 110.558594 18.019531 L 98.902344 18.019531 L 107.714844 30.011719 L 107.714844 30.90625 L 98.203125 43.84375 L 111.015625 43.84375 C 111.582031 43.84375 112.015625 43.644531 112.316406 43.246094 C 112.617188 42.84375 112.875 41.953125 113.089844 40.566406 L 114.183594 40.566406 L 113.808594 45.992188 L 95.644531 45.992188 L 95.644531 45.257812 L 105.992188 31.199219 L 95.949219 17.753906 Z M 95.949219 17.050781 "/>
<path style=" stroke:none;fill-rule:evenodd;fill:rgb(0%,0%,0%);fill-opacity:1;" d="M 121.195312 28.703125 L 121.628906 28.703125 L 120.566406 33.453125 C 120.457031 33.9375 120.402344 34.304688 120.402344 34.550781 C 120.402344 34.746094 120.433594 34.890625 120.5 34.980469 C 120.5625 35.066406 120.664062 35.113281 120.800781 35.113281 C 120.949219 35.113281 121.109375 35.054688 121.273438 34.929688 C 121.441406 34.808594 121.679688 34.578125 121.984375 34.238281 L 122.40625 34.65625 C 121.921875 35.164062 121.53125 35.507812 121.230469 35.691406 C 120.929688 35.875 120.59375 35.964844 120.21875 35.964844 C 119.898438 35.964844 119.640625 35.847656 119.449219 35.613281 C 119.257812 35.378906 119.164062 35.078125 119.164062 34.710938 C 119.164062 34.339844 119.230469 33.859375 119.371094 33.277344 L 119.921875 30.855469 C 120.035156 30.363281 120.09375 29.992188 120.09375 29.746094 C 120.09375 29.523438 120.039062 29.375 119.933594 29.292969 C 119.828125 29.214844 119.621094 29.171875 119.308594 29.160156 L 119.390625 28.769531 Z M 120.992188 25.867188 L 122.300781 25.867188 L 121.960938 27.304688 L 120.652344 27.304688 Z M 120.992188 25.867188 "/>
<path style=" stroke:none;fill-rule:evenodd;fill:rgb(0%,0%,0%);fill-opacity:1;" d="M 127.90625 29.917969 L 129.542969 29.917969 L 129.542969 31.722656 L 127.90625 31.722656 Z M 127.90625 29.917969 "/>
<path style=" stroke:none;fill-rule:evenodd;fill:rgb(0%,0%,0%);fill-opacity:1;" d="M 136.949219 28.644531 C 137.101562 28.644531 137.234375 28.660156 137.351562 28.695312 C 137.464844 28.730469 137.570312 28.785156 137.65625 28.855469 C 137.746094 28.925781 137.824219 29.019531 137.894531 29.132812 C 137.964844 29.246094 138.027344 29.402344 138.09375 29.59375 C 138.15625 29.789062 138.21875 30.03125 138.273438 30.320312 C 138.332031 30.609375 138.382812 30.910156 138.425781 31.21875 L 138.5 31.21875 C 138.972656 30.554688 139.332031 30.066406 139.574219 29.757812 C 139.816406 29.449219 140.023438 29.21875 140.191406 29.070312 C 140.359375 28.917969 140.519531 28.8125 140.675781 28.75 C 140.828125 28.6875 141.035156 28.660156 141.292969 28.660156 C 141.523438 28.660156 141.710938 28.6875 141.859375 28.746094 L 141.566406 30.085938 L 141.046875 30.085938 C 141.019531 29.878906 140.933594 29.777344 140.789062 29.777344 C 140.746094 29.777344 140.699219 29.78125 140.648438 29.796875 C 140.601562 29.8125 140.539062 29.84375 140.46875 29.894531 C 140.394531 29.945312 140.292969 30.039062 140.152344 30.183594 C 140.015625 30.328125 139.859375 30.5 139.6875 30.707031 C 139.515625 30.917969 139.339844 31.132812 139.15625 31.359375 L 138.65625 31.988281 C 138.742188 32.464844 138.828125 32.871094 138.90625 33.21875 C 138.984375 33.5625 139.054688 33.851562 139.117188 34.082031 C 139.179688 34.308594 139.230469 34.492188 139.277344 34.625 C 139.324219 34.757812 139.375 34.859375 139.429688 34.925781 C 139.484375 34.992188 139.539062 35.039062 139.597656 35.066406 C 139.652344 35.09375 139.71875 35.105469 139.792969 35.105469 C 139.925781 35.105469 140.054688 35.054688 140.179688 34.949219 C 140.304688 34.84375 140.484375 34.613281 140.722656 34.246094 L 141.203125 34.566406 C 140.859375 35.078125 140.546875 35.441406 140.269531 35.648438 C 139.988281 35.859375 139.660156 35.964844 139.273438 35.964844 C 139.0625 35.964844 138.882812 35.925781 138.734375 35.847656 C 138.589844 35.773438 138.460938 35.652344 138.351562 35.484375 C 138.242188 35.316406 138.148438 35.054688 138.0625 34.699219 C 137.910156 34.066406 137.816406 33.582031 137.78125 33.25 L 137.710938 33.25 C 137.1875 33.984375 136.800781 34.511719 136.546875 34.832031 C 136.292969 35.152344 136.082031 35.390625 135.917969 35.542969 C 135.753906 35.695312 135.59375 35.804688 135.4375 35.863281 C 135.28125 35.925781 135.078125 35.957031 134.820312 35.957031 C 134.589844 35.957031 134.402344 35.925781 134.253906 35.867188 L 134.546875 34.527344 L 135.066406 34.527344 C 135.09375 34.734375 135.179688 34.839844 135.324219 34.839844 C 135.390625 34.839844 135.464844 34.820312 135.542969 34.785156 C 135.617188 34.746094 135.726562 34.660156 135.871094 34.515625 C 136.011719 34.375 136.210938 34.15625 136.460938 33.855469 C 136.710938 33.554688 137.078125 33.101562 137.554688 32.5 C 137.480469 32.109375 137.402344 31.734375 137.324219 31.375 C 137.246094 31.015625 137.164062 30.679688 137.082031 30.367188 C 136.996094 30.058594 136.929688 29.851562 136.875 29.757812 C 136.820312 29.664062 136.761719 29.59375 136.699219 29.558594 C 136.640625 29.519531 136.5625 29.503906 136.46875 29.503906 C 136.363281 29.503906 136.269531 29.523438 136.1875 29.574219 C 136.105469 29.617188 136.011719 29.703125 135.914062 29.816406 C 135.816406 29.933594 135.683594 30.113281 135.523438 30.359375 L 135.042969 30.042969 C 135.351562 29.574219 135.652344 29.222656 135.9375 28.992188 C 136.222656 28.757812 136.558594 28.644531 136.949219 28.644531 Z M 136.949219 28.644531 "/>
<path style=" stroke:none;fill-rule:evenodd;fill:rgb(0%,0%,0%);fill-opacity:1;" d="M 144.179688 33.769531 L 144.496094 33.769531 L 143.726562 37.21875 C 143.648438 37.566406 143.609375 37.832031 143.609375 38.011719 C 143.609375 38.15625 143.632812 38.257812 143.675781 38.324219 C 143.722656 38.386719 143.796875 38.421875 143.898438 38.421875 C 144.003906 38.421875 144.117188 38.378906 144.242188 38.289062 C 144.363281 38.203125 144.535156 38.035156 144.753906 37.789062 L 145.0625 38.085938 C 144.710938 38.457031 144.425781 38.707031 144.207031 38.839844 C 143.992188 38.972656 143.746094 39.039062 143.472656 39.039062 C 143.242188 39.039062 143.054688 38.957031 142.917969 38.785156 C 142.777344 38.613281 142.707031 38.398438 142.707031 38.128906 C 142.707031 37.859375 142.757812 37.511719 142.855469 37.089844 L 143.257812 35.332031 C 143.339844 34.972656 143.382812 34.703125 143.382812 34.527344 C 143.382812 34.363281 143.34375 34.253906 143.265625 34.199219 C 143.191406 34.140625 143.039062 34.109375 142.8125 34.101562 L 142.875 33.816406 Z M 144.035156 31.710938 L 144.984375 31.710938 L 144.738281 32.753906 L 143.789062 32.753906 Z M 144.035156 31.710938 "/>
<path style=" stroke:none;fill-rule:evenodd;fill:rgb(0%,0%,0%);fill-opacity:1;" d="M 111.738281 6.277344 C 111.492188 6.277344 111.285156 6.351562 111.121094 6.496094 C 110.953125 6.644531 110.820312 6.855469 110.71875 7.132812 C 110.617188 7.40625 110.542969 7.742188 110.5 8.136719 C 110.457031 8.535156 110.4375 8.980469 110.4375 9.480469 C 110.4375 10.648438 110.542969 11.503906 110.761719 12.050781 C 110.976562 12.597656 111.3125 12.871094 111.765625 12.871094 C 112.199219 12.871094 112.519531 12.613281 112.730469 12.097656 C 112.9375 11.585938 113.042969 10.789062 113.042969 9.710938 C 113.042969 8.886719 112.988281 8.21875 112.882812 7.707031 C 112.773438 7.199219 112.625 6.832031 112.433594 6.609375 C 112.242188 6.386719 112.011719 6.277344 111.738281 6.277344 Z M 105.523438 6.277344 C 105.277344 6.277344 105.070312 6.351562 104.902344 6.496094 C 104.738281 6.644531 104.601562 6.855469 104.5 7.132812 C 104.398438 7.40625 104.328125 7.742188 104.285156 8.136719 C 104.242188 8.535156 104.21875 8.980469 104.21875 9.480469 C 104.21875 10.648438 104.328125 11.503906 104.542969 12.050781 C 104.761719 12.597656 105.09375 12.871094 105.550781 12.871094 C 105.980469 12.871094 106.304688 12.613281 106.511719 12.097656 C 106.722656 11.585938 106.824219 10.789062 106.824219 9.710938 C 106.824219 8.886719 106.773438 8.21875 106.664062 7.707031 C 106.558594 7.199219 106.410156 6.832031 106.21875 6.609375 C 106.027344 6.386719 105.792969 6.277344 105.523438 6.277344 Z M 111.765625 5.820312 C 112.550781 5.820312 113.132812 6.121094 113.515625 6.726562 C 113.898438 7.332031 114.085938 8.25 114.085938 9.472656 C 114.085938 10.742188 113.882812 11.703125 113.472656 12.351562 C 113.066406 13 112.464844 13.328125 111.679688 13.328125 C 110.90625 13.328125 110.332031 13.023438 109.957031 12.414062 C 109.578125 11.804688 109.390625 10.878906 109.390625 9.640625 C 109.390625 8.980469 109.449219 8.414062 109.566406 7.929688 C 109.679688 7.449219 109.84375 7.054688 110.050781 6.742188 C 110.261719 6.425781 110.511719 6.195312 110.804688 6.046875 C 111.097656 5.894531 111.417969 5.820312 111.765625 5.820312 Z M 105.550781 5.820312 C 106.332031 5.820312 106.914062 6.121094 107.296875 6.726562 C 107.679688 7.332031 107.871094 8.25 107.871094 9.472656 C 107.871094 10.742188 107.667969 11.703125 107.257812 12.351562 C 106.847656 13 106.25 13.328125 105.464844 13.328125 C 104.691406 13.328125 104.117188 13.023438 103.738281 12.414062 C 103.363281 11.804688 103.175781 10.878906 103.175781 9.640625 C 103.175781 8.980469 103.230469 8.414062 103.347656 7.929688 C 103.464844 7.449219 103.628906 7.054688 103.835938 6.742188 C 104.046875 6.425781 104.296875 6.195312 104.589844 6.046875 C 104.882812 5.894531 105.203125 5.820312 105.550781 5.820312 Z M 99.730469 5.820312 L 100.023438 5.820312 C 100.003906 6.164062 99.992188 6.640625 99.992188 7.25 L 99.992188 11.839844 C 99.992188 12.046875 100.003906 12.203125 100.027344 12.308594 C 100.050781 12.414062 100.09375 12.5 100.152344 12.566406 C 100.210938 12.632812 100.296875 12.683594 100.40625 12.722656 C 100.515625 12.761719 100.65625 12.789062 100.824219 12.808594 C 100.992188 12.828125 101.214844 12.839844 101.488281 12.847656 L 101.488281 13.242188 L 97.527344 13.242188 L 97.527344 12.847656 C 97.921875 12.832031 98.207031 12.804688 98.375 12.773438 C 98.546875 12.746094 98.675781 12.699219 98.765625 12.636719 C 98.855469 12.578125 98.917969 12.492188 98.960938 12.378906 C 99 12.269531 99.023438 12.089844 99.023438 11.839844 L 99.023438 7.480469 C 99.023438 7.335938 98.996094 7.234375 98.949219 7.167969 C 98.898438 7.101562 98.824219 7.066406 98.726562 7.066406 C 98.613281 7.066406 98.449219 7.125 98.238281 7.242188 C 98.027344 7.363281 97.769531 7.527344 97.457031 7.734375 L 97.222656 7.316406 Z M 99.730469 5.820312 "/>
<path style=" stroke:none;fill-rule:evenodd;fill:rgb(0%,0%,0%);fill-opacity:1;" d="M 98.554688 50.070312 L 98.871094 50.070312 L 98.097656 53.519531 C 98.019531 53.875 97.980469 54.136719 97.980469 54.316406 C 97.980469 54.460938 98.003906 54.566406 98.050781 54.628906 C 98.097656 54.695312 98.167969 54.726562 98.269531 54.726562 C 98.375 54.726562 98.492188 54.679688 98.613281 54.59375 C 98.734375 54.503906 98.90625 54.339844 99.128906 54.089844 L 99.433594 54.394531 C 99.082031 54.761719 98.796875 55.011719 98.582031 55.144531 C 98.363281 55.277344 98.117188 55.34375 97.84375 55.34375 C 97.613281 55.34375 97.425781 55.257812 97.289062 55.089844 C 97.148438 54.917969 97.078125 54.699219 97.078125 54.433594 C 97.078125 54.164062 97.128906 53.816406 97.230469 53.390625 L 97.632812 51.636719 C 97.714844 51.277344 97.753906 51.007812 97.753906 50.828125 C 97.753906 50.667969 97.714844 50.558594 97.640625 50.5 C 97.5625 50.441406 97.410156 50.410156 97.1875 50.402344 L 97.246094 50.117188 Z M 98.410156 48.011719 L 99.359375 48.011719 L 99.109375 49.054688 L 98.160156 49.054688 Z M 98.410156 48.011719 "/>
<path style=" stroke:none;fill-rule:evenodd;fill:rgb(0%,0%,0%);fill-opacity:1;" d="M 101.039062 52.871094 L 107.644531 52.871094 L 107.644531 53.585938 L 101.039062 53.585938 Z M 101.039062 50.640625 L 107.644531 50.640625 L 107.644531 51.355469 L 101.039062 51.355469 Z M 101.039062 50.640625 "/>
<path style=" stroke:none;fill-rule:evenodd;fill:rgb(0%,0%,0%);fill-opacity:1;" d="M 112.015625 47.835938 L 112.308594 47.835938 C 112.289062 48.179688 112.277344 48.65625 112.277344 49.265625 L 112.277344 53.855469 C 112.277344 54.0625 112.289062 54.21875 112.3125 54.324219 C 112.335938 54.429688 112.375 54.515625 112.4375 54.582031 C 112.496094 54.648438 112.578125 54.699219 112.691406 54.738281 C 112.800781 54.777344 112.941406 54.804688 113.109375 54.824219 C 113.277344 54.84375 113.5 54.859375 113.773438 54.863281 L 113.773438 55.257812 L 109.8125 55.257812 L 109.8125 54.863281 C 110.207031 54.847656 110.492188 54.824219 110.660156 54.792969 C 110.832031 54.761719 110.960938 54.714844 111.050781 54.65625 C 111.140625 54.59375 111.203125 54.507812 111.246094 54.398438 C 111.285156 54.285156 111.308594 54.105469 111.308594 53.855469 L 111.308594 49.496094 C 111.308594 49.351562 111.28125 49.25 111.230469 49.183594 C 111.183594 49.117188 111.109375 49.082031 111.011719 49.082031 C 110.898438 49.082031 110.734375 49.140625 110.523438 49.257812 C 110.3125 49.378906 110.050781 49.542969 109.742188 49.75 L 109.503906 49.335938 Z M 112.015625 47.835938 "/>
<path style=" stroke:none;fill-rule:evenodd;fill:rgb(0%,0%,0%);fill-opacity:1;" d="M 71.292969 30.402344 L 71.742188 30.402344 L 71.742188 35.695312 C 71.742188 36.117188 71.761719 36.414062 71.800781 36.578125 C 71.839844 36.742188 71.917969 36.871094 72.027344 36.957031 C 72.136719 37.042969 72.320312 37.117188 72.570312 37.183594 L 72.570312 37.546875 L 69.675781 37.546875 L 69.675781 37.183594 C 69.867188 37.125 70.003906 37.070312 70.085938 37.027344 C 70.164062 36.980469 70.234375 36.921875 70.292969 36.839844 C 70.347656 36.761719 70.390625 36.640625 70.425781 36.476562 C 70.457031 36.316406 70.472656 36.0625 70.472656 35.714844 L 70.472656 32.488281 C 70.472656 32.171875 70.46875 31.917969 70.457031 31.726562 C 70.449219 31.535156 70.414062 31.378906 70.355469 31.261719 C 70.296875 31.148438 70.207031 31.0625 70.085938 31.007812 C 69.964844 30.949219 69.792969 30.898438 69.570312 30.859375 L 69.570312 30.46875 Z M 78.414062 30.351562 C 78.679688 30.351562 78.917969 30.378906 79.125 30.441406 C 79.335938 30.503906 79.519531 30.597656 79.679688 30.726562 C 79.839844 30.855469 79.972656 31.015625 80.074219 31.207031 C 80.179688 31.394531 80.257812 31.621094 80.308594 31.890625 C 80.359375 32.15625 80.386719 32.496094 80.386719 32.902344 L 80.386719 35.695312 C 80.386719 36.035156 80.394531 36.28125 80.414062 36.433594 C 80.433594 36.585938 80.46875 36.707031 80.519531 36.789062 C 80.566406 36.875 80.640625 36.941406 80.734375 37 C 80.824219 37.058594 80.988281 37.117188 81.21875 37.183594 L 81.21875 37.546875 L 78.308594 37.546875 L 78.308594 37.183594 C 78.5 37.125 78.640625 37.070312 78.722656 37.027344 C 78.808594 36.980469 78.878906 36.921875 78.933594 36.839844 C 78.992188 36.761719 79.035156 36.640625 79.066406 36.476562 C 79.097656 36.308594 79.113281 36.058594 79.113281 35.722656 L 79.113281 33.785156 C 79.113281 33.441406 79.105469 33.125 79.085938 32.84375 C 79.066406 32.5625 79.03125 32.332031 78.984375 32.152344 C 78.9375 31.972656 78.882812 31.832031 78.816406 31.730469 C 78.75 31.628906 78.671875 31.542969 78.578125 31.472656 C 78.488281 31.402344 78.382812 31.34375 78.265625 31.300781 C 78.148438 31.257812 77.992188 31.238281 77.800781 31.238281 C 77.609375 31.238281 77.425781 31.277344 77.253906 31.351562 C 77.082031 31.429688 76.890625 31.558594 76.683594 31.75 C 76.476562 31.9375 76.328125 32.121094 76.234375 32.304688 C 76.140625 32.488281 76.09375 32.695312 76.09375 32.933594 L 76.09375 35.695312 C 76.09375 36.117188 76.113281 36.414062 76.152344 36.578125 C 76.191406 36.742188 76.269531 36.871094 76.378906 36.957031 C 76.488281 37.042969 76.671875 37.117188 76.921875 37.183594 L 76.921875 37.546875 L 74.027344 37.546875 L 74.027344 37.183594 C 74.21875 37.125 74.355469 37.070312 74.4375 37.027344 C 74.515625 36.980469 74.585938 36.921875 74.644531 36.839844 C 74.699219 36.761719 74.742188 36.640625 74.777344 36.476562 C 74.808594 36.316406 74.824219 36.0625 74.824219 35.714844 L 74.824219 32.488281 C 74.824219 32.171875 74.820312 31.917969 74.808594 31.726562 C 74.800781 31.535156 74.765625 31.378906 74.707031 31.261719 C 74.648438 31.148438 74.558594 31.0625 74.4375 31.007812 C 74.316406 30.949219 74.144531 30.898438 73.921875 30.859375 L 73.921875 30.46875 L 75.652344 30.402344 L 76.101562 30.402344 L 76.019531 31.609375 L 76.125 31.636719 C 76.488281 31.265625 76.78125 31.003906 77.007812 30.847656 C 77.230469 30.6875 77.457031 30.566406 77.6875 30.476562 C 77.914062 30.394531 78.15625 30.351562 78.414062 30.351562 Z M 61.386719 30.351562 C 61.878906 30.351562 62.277344 30.464844 62.589844 30.691406 C 62.898438 30.917969 63.113281 31.265625 63.230469 31.734375 C 63.601562 31.359375 63.898438 31.082031 64.128906 30.902344 C 64.359375 30.726562 64.59375 30.589844 64.832031 30.496094 C 65.070312 30.398438 65.328125 30.351562 65.601562 30.351562 C 65.933594 30.351562 66.21875 30.398438 66.457031 30.496094 C 66.695312 30.589844 66.894531 30.738281 67.0625 30.9375 C 67.226562 31.140625 67.347656 31.386719 67.421875 31.6875 C 67.5 31.988281 67.539062 32.394531 67.539062 32.902344 L 67.539062 35.695312 C 67.539062 36.070312 67.550781 36.328125 67.574219 36.472656 C 67.597656 36.613281 67.636719 36.726562 67.683594 36.804688 C 67.730469 36.882812 67.796875 36.953125 67.890625 37.007812 C 67.984375 37.066406 68.144531 37.125 68.363281 37.183594 L 68.363281 37.546875 L 65.460938 37.546875 L 65.460938 37.183594 C 65.65625 37.125 65.792969 37.070312 65.875 37.027344 C 65.960938 36.980469 66.03125 36.921875 66.085938 36.839844 C 66.144531 36.761719 66.1875 36.640625 66.21875 36.476562 C 66.25 36.308594 66.265625 36.058594 66.265625 35.722656 L 66.265625 33.785156 C 66.265625 33.363281 66.257812 33.019531 66.234375 32.742188 C 66.210938 32.46875 66.175781 32.25 66.128906 32.089844 C 66.082031 31.925781 66.027344 31.800781 65.960938 31.703125 C 65.894531 31.609375 65.820312 31.527344 65.734375 31.460938 C 65.652344 31.390625 65.554688 31.335938 65.441406 31.296875 C 65.328125 31.257812 65.175781 31.238281 64.988281 31.238281 C 64.792969 31.238281 64.609375 31.277344 64.4375 31.355469 C 64.269531 31.4375 64.085938 31.570312 63.886719 31.753906 C 63.6875 31.945312 63.542969 32.132812 63.453125 32.324219 C 63.363281 32.511719 63.320312 32.734375 63.320312 32.992188 L 63.320312 35.695312 C 63.320312 36.070312 63.332031 36.328125 63.355469 36.472656 C 63.382812 36.613281 63.417969 36.726562 63.464844 36.804688 C 63.511719 36.882812 63.582031 36.953125 63.675781 37.007812 C 63.769531 37.066406 63.925781 37.125 64.148438 37.183594 L 64.148438 37.546875 L 61.246094 37.546875 L 61.246094 37.183594 C 61.4375 37.125 61.574219 37.070312 61.660156 37.027344 C 61.742188 36.980469 61.8125 36.921875 61.871094 36.839844 C 61.925781 36.761719 61.96875 36.640625 62.003906 36.476562 C 62.035156 36.308594 62.050781 36.058594 62.050781 35.722656 L 62.050781 33.785156 C 62.050781 33.347656 62.039062 32.988281 62.011719 32.710938 C 61.988281 32.433594 61.949219 32.210938 61.898438 32.042969 C 61.847656 31.878906 61.78125 31.742188 61.699219 31.636719 C 61.617188 31.535156 61.535156 31.453125 61.453125 31.402344 C 61.367188 31.347656 61.269531 31.308594 61.15625 31.277344 C 61.042969 31.25 60.914062 31.238281 60.773438 31.238281 C 60.570312 31.238281 60.382812 31.285156 60.203125 31.375 C 60.027344 31.46875 59.84375 31.597656 59.660156 31.769531 C 59.476562 31.945312 59.335938 32.125 59.242188 32.3125 C 59.148438 32.5 59.101562 32.699219 59.101562 32.917969 L 59.101562 35.695312 C 59.101562 35.976562 59.109375 36.1875 59.125 36.339844 C 59.140625 36.484375 59.164062 36.601562 59.195312 36.683594 C 59.226562 36.769531 59.269531 36.835938 59.316406 36.890625 C 59.367188 36.941406 59.4375 36.992188 59.527344 37.039062 C 59.617188 37.085938 59.753906 37.132812 59.9375 37.183594 L 59.9375 37.546875 L 57.042969 37.546875 L 57.042969 37.183594 C 57.230469 37.125 57.363281 37.070312 57.445312 37.027344 C 57.527344 36.980469 57.597656 36.921875 57.65625 36.839844 C 57.714844 36.761719 57.757812 36.640625 57.789062 36.476562 C 57.816406 36.316406 57.832031 36.0625 57.832031 35.714844 L 57.832031 32.488281 C 57.832031 32.171875 57.828125 31.917969 57.816406 31.726562 C 57.808594 31.535156 57.773438 31.378906 57.714844 31.261719 C 57.65625 31.148438 57.566406 31.0625 57.445312 31.007812 C 57.324219 30.949219 57.152344 30.898438 56.933594 30.859375 L 56.933594 30.46875 L 58.660156 30.402344 L 59.109375 30.402344 L 59.03125 31.609375 L 59.132812 31.636719 C 59.429688 31.34375 59.671875 31.117188 59.859375 30.96875 C 60.050781 30.816406 60.234375 30.695312 60.410156 30.605469 C 60.585938 30.515625 60.753906 30.449219 60.910156 30.410156 C 61.0625 30.371094 61.222656 30.351562 61.386719 30.351562 Z M 70.429688 27.566406 L 71.789062 27.566406 L 71.789062 29.003906 L 70.429688 29.003906 Z M 70.429688 27.566406 "/>
<path style=" stroke:none;fill-rule:evenodd;fill:rgb(0%,0%,0%);fill-opacity:1;" d="M 98.371094 75.234375 C 98.523438 75.234375 98.660156 75.25 98.773438 75.285156 C 98.890625 75.320312 98.992188 75.371094 99.082031 75.441406 C 99.167969 75.515625 99.25 75.605469 99.316406 75.722656 C 99.386719 75.835938 99.453125 75.988281 99.515625 76.183594 C 99.582031 76.378906 99.640625 76.621094 99.699219 76.910156 C 99.753906 77.199219 99.804688 77.5 99.847656 77.808594 L 99.921875 77.808594 C 100.394531 77.140625 100.753906 76.65625 100.996094 76.347656 C 101.242188 76.039062 101.445312 75.808594 101.613281 75.660156 C 101.78125 75.507812 101.941406 75.402344 102.097656 75.339844 C 102.253906 75.277344 102.457031 75.25 102.714844 75.25 C 102.945312 75.25 103.136719 75.277344 103.285156 75.335938 L 102.988281 76.675781 L 102.472656 76.675781 C 102.441406 76.46875 102.355469 76.367188 102.210938 76.367188 C 102.167969 76.367188 102.121094 76.375 102.070312 76.386719 C 102.023438 76.402344 101.960938 76.433594 101.890625 76.484375 C 101.820312 76.535156 101.714844 76.628906 101.578125 76.773438 C 101.4375 76.914062 101.285156 77.09375 101.113281 77.296875 C 100.941406 77.503906 100.761719 77.722656 100.578125 77.949219 L 100.078125 78.578125 C 100.167969 79.050781 100.25 79.460938 100.328125 79.808594 C 100.40625 80.152344 100.476562 80.441406 100.539062 80.671875 C 100.601562 80.898438 100.65625 81.082031 100.703125 81.214844 C 100.75 81.347656 100.800781 81.445312 100.851562 81.511719 C 100.90625 81.578125 100.964844 81.628906 101.019531 81.65625 C 101.074219 81.679688 101.140625 81.695312 101.214844 81.695312 C 101.347656 81.695312 101.476562 81.644531 101.601562 81.539062 C 101.730469 81.4375 101.910156 81.203125 102.144531 80.835938 L 102.625 81.152344 C 102.28125 81.667969 101.96875 82.03125 101.691406 82.238281 C 101.414062 82.449219 101.082031 82.554688 100.699219 82.554688 C 100.488281 82.554688 100.308594 82.515625 100.160156 82.441406 C 100.011719 82.363281 99.882812 82.238281 99.773438 82.070312 C 99.667969 81.90625 99.570312 81.644531 99.488281 81.289062 C 99.335938 80.65625 99.242188 80.175781 99.207031 79.835938 L 99.132812 79.835938 C 98.609375 80.574219 98.222656 81.101562 97.96875 81.421875 C 97.714844 81.742188 97.507812 81.976562 97.339844 82.132812 C 97.175781 82.285156 97.015625 82.390625 96.859375 82.453125 C 96.707031 82.515625 96.5 82.546875 96.246094 82.546875 C 96.011719 82.546875 95.824219 82.515625 95.675781 82.457031 L 95.972656 81.117188 L 96.488281 81.117188 C 96.519531 81.324219 96.605469 81.429688 96.746094 81.429688 C 96.816406 81.429688 96.886719 81.410156 96.964844 81.375 C 97.039062 81.335938 97.152344 81.246094 97.292969 81.105469 C 97.4375 80.96875 97.632812 80.746094 97.882812 80.445312 C 98.136719 80.144531 98.5 79.691406 98.976562 79.089844 C 98.902344 78.699219 98.828125 78.324219 98.75 77.964844 C 98.667969 77.605469 98.589844 77.269531 98.503906 76.957031 C 98.421875 76.648438 98.351562 76.445312 98.296875 76.347656 C 98.242188 76.25 98.1875 76.183594 98.125 76.148438 C 98.0625 76.109375 97.984375 76.089844 97.890625 76.089844 C 97.789062 76.089844 97.695312 76.117188 97.609375 76.160156 C 97.527344 76.210938 97.4375 76.289062 97.335938 76.40625 C 97.238281 76.523438 97.109375 76.703125 96.945312 76.949219 L 96.464844 76.632812 C 96.777344 76.164062 97.074219 75.8125 97.359375 75.582031 C 97.644531 75.351562 97.984375 75.234375 98.371094 75.234375 Z M 98.371094 75.234375 "/>
<path style=" stroke:none;fill-rule:evenodd;fill:rgb(0%,0%,0%);fill-opacity:1;" d="M 105.605469 80.355469 L 105.921875 80.355469 L 105.148438 83.808594 C 105.070312 84.160156 105.03125 84.421875 105.03125 84.601562 C 105.03125 84.746094 105.054688 84.851562 105.101562 84.914062 C 105.148438 84.980469 105.21875 85.011719 105.320312 85.011719 C 105.429688 85.011719 105.542969 84.964844 105.664062 84.878906 C 105.785156 84.792969 105.957031 84.625 106.179688 84.375 L 106.484375 84.679688 C 106.132812 85.046875 105.851562 85.296875 105.632812 85.429688 C 105.414062 85.5625 105.167969 85.628906 104.898438 85.628906 C 104.664062 85.628906 104.480469 85.542969 104.339844 85.375 C 104.199219 85.203125 104.128906 84.984375 104.128906 84.722656 C 104.128906 84.449219 104.179688 84.101562 104.28125 83.679688 L 104.683594 81.921875 C 104.765625 81.5625 104.804688 81.292969 104.804688 81.113281 C 104.804688 80.953125 104.765625 80.84375 104.691406 80.785156 C 104.613281 80.730469 104.460938 80.695312 104.238281 80.691406 L 104.296875 80.40625 Z M 105.460938 78.296875 L 106.410156 78.296875 L 106.164062 79.339844 L 105.214844 79.339844 Z M 105.460938 78.296875 "/>
<path style=" stroke:none;fill-rule:evenodd;fill:rgb(0%,0%,0%);fill-opacity:1;" d="M 113.246094 82.265625 L 122.34375 82.265625 L 122.34375 83.25 L 113.246094 83.25 Z M 113.246094 72.960938 L 122.375 76.519531 L 122.375 77.558594 L 113.246094 81.117188 L 113.246094 80.007812 L 121.15625 77.039062 L 113.246094 74.070312 Z M 113.246094 72.960938 "/>
<path style=" stroke:none;fill-rule:evenodd;fill:rgb(0%,0%,0%);fill-opacity:1;" d="M 132.011719 72.214844 C 132.925781 72.214844 133.617188 72.414062 134.085938 72.816406 C 134.554688 73.21875 134.785156 73.804688 134.785156 74.566406 C 134.785156 74.828125 134.761719 75.070312 134.710938 75.289062 C 134.65625 75.507812 134.578125 75.726562 134.464844 75.941406 C 134.355469 76.15625 134.207031 76.386719 134.019531 76.632812 C 133.832031 76.878906 133.625 77.128906 133.398438 77.382812 C 133.171875 77.636719 132.78125 78.058594 132.222656 78.652344 C 131.289062 79.644531 130.601562 80.511719 130.164062 81.25 L 132.949219 81.25 C 133.1875 81.25 133.382812 81.238281 133.53125 81.207031 C 133.679688 81.175781 133.796875 81.128906 133.886719 81.058594 C 133.972656 80.988281 134.042969 80.898438 134.097656 80.789062 C 134.148438 80.675781 134.214844 80.507812 134.292969 80.273438 L 134.917969 80.273438 L 134.792969 82.433594 L 128.714844 82.433594 L 128.714844 82.082031 C 128.925781 81.5625 129.214844 81.03125 129.574219 80.488281 C 129.933594 79.945312 130.441406 79.304688 131.101562 78.570312 C 131.671875 77.9375 132.082031 77.460938 132.335938 77.136719 C 132.609375 76.78125 132.816406 76.472656 132.953125 76.214844 C 133.085938 75.953125 133.183594 75.710938 133.242188 75.480469 C 133.300781 75.253906 133.332031 75.023438 133.332031 74.789062 C 133.332031 74.417969 133.273438 74.089844 133.15625 73.808594 C 133.035156 73.523438 132.855469 73.300781 132.613281 73.136719 C 132.367188 72.976562 132.0625 72.894531 131.691406 72.894531 C 130.773438 72.894531 130.152344 73.410156 129.832031 74.433594 L 128.9375 74.433594 L 128.9375 73.011719 C 129.535156 72.730469 130.089844 72.527344 130.609375 72.402344 C 131.128906 72.277344 131.597656 72.214844 132.011719 72.214844 Z M 132.011719 72.214844 "/>
<path style=" stroke:none;fill-rule:evenodd;fill:rgb(0%,0%,0%);fill-opacity:1;" d="M 152.457031 76.664062 L 154.007812 81.058594 L 155.875 76.664062 Z M 149.847656 72.960938 L 151.179688 72.960938 L 152.109375 75.648438 L 156.304688 75.648438 L 157.433594 72.960938 L 158.652344 72.960938 L 154.511719 82.445312 L 153.378906 82.445312 Z M 149.847656 72.960938 "/>
<path style=" stroke:none;fill-rule:evenodd;fill:rgb(0%,0%,0%);fill-opacity:1;" d="M 162.050781 75.292969 L 162.484375 75.292969 L 161.421875 80.046875 C 161.3125 80.527344 161.257812 80.890625 161.257812 81.140625 C 161.257812 81.335938 161.292969 81.480469 161.355469 81.570312 C 161.417969 81.660156 161.519531 81.703125 161.660156 81.703125 C 161.804688 81.703125 161.964844 81.640625 162.132812 81.523438 C 162.300781 81.402344 162.535156 81.171875 162.839844 80.832031 L 163.261719 81.242188 C 162.777344 81.753906 162.386719 82.097656 162.085938 82.28125 C 161.785156 82.460938 161.449219 82.554688 161.074219 82.554688 C 160.753906 82.554688 160.5 82.4375 160.304688 82.203125 C 160.113281 81.96875 160.019531 81.667969 160.019531 81.304688 C 160.019531 80.925781 160.089844 80.449219 160.226562 79.867188 L 160.777344 77.449219 C 160.890625 76.953125 160.949219 76.582031 160.949219 76.335938 C 160.949219 76.113281 160.894531 75.964844 160.789062 75.886719 C 160.683594 75.804688 160.476562 75.761719 160.167969 75.75 L 160.246094 75.359375 Z M 161.847656 72.457031 L 163.15625 72.457031 L 162.816406 73.894531 L 161.507812 73.894531 Z M 161.847656 72.457031 "/>
<path style=" stroke:none;fill-rule:evenodd;fill:rgb(0%,0%,0%);fill-opacity:1;" d="M 173.867188 73.714844 L 176.898438 73.714844 L 176.898438 74.746094 L 173.863281 74.746094 C 173.371094 74.746094 172.980469 74.773438 172.675781 74.828125 C 172.371094 74.878906 172.121094 74.96875 171.917969 75.089844 C 171.714844 75.210938 171.53125 75.382812 171.367188 75.601562 C 171.203125 75.824219 171.074219 76.097656 170.980469 76.421875 C 170.886719 76.746094 170.828125 77.109375 170.804688 77.519531 L 176.898438 77.519531 L 176.898438 78.550781 L 170.792969 78.550781 C 170.820312 79.007812 170.886719 79.414062 170.996094 79.769531 C 171.101562 80.125 171.265625 80.425781 171.488281 80.675781 C 171.703125 80.925781 171.988281 81.109375 172.335938 81.230469 C 172.683594 81.347656 173.160156 81.40625 173.773438 81.40625 L 176.898438 81.40625 L 176.898438 82.433594 L 173.742188 82.433594 C 173.261719 82.433594 172.84375 82.40625 172.488281 82.347656 C 172.132812 82.289062 171.8125 82.191406 171.527344 82.058594 C 171.238281 81.925781 170.972656 81.722656 170.71875 81.457031 C 170.464844 81.183594 170.257812 80.886719 170.101562 80.5625 C 169.941406 80.234375 169.824219 79.867188 169.746094 79.460938 C 169.667969 79.050781 169.628906 78.605469 169.628906 78.128906 C 169.628906 77.347656 169.703125 76.703125 169.859375 76.191406 C 170.007812 75.679688 170.265625 75.226562 170.625 74.832031 C 170.984375 74.433594 171.417969 74.148438 171.917969 73.976562 C 172.417969 73.804688 173.070312 73.714844 173.867188 73.714844 Z M 173.867188 73.714844 "/>
<path style=" stroke:none;fill-rule:evenodd;fill:rgb(0%,0%,0%);fill-opacity:1;" d="M 255.90625 71.042969 L 256.101562 71.042969 C 257.257812 71.0625 258.121094 71.328125 258.695312 71.839844 C 259.269531 72.347656 259.554688 73.121094 259.554688 74.144531 C 259.554688 74.554688 259.496094 75.023438 259.382812 75.546875 C 259.265625 76.066406 259.210938 76.417969 259.210938 76.597656 C 259.210938 76.9375 259.324219 77.210938 259.558594 77.429688 C 259.792969 77.640625 260.148438 77.757812 260.617188 77.769531 L 260.617188 78.378906 C 260.148438 78.394531 259.792969 78.507812 259.558594 78.722656 C 259.324219 78.9375 259.210938 79.214844 259.210938 79.554688 C 259.210938 79.734375 259.265625 80.085938 259.382812 80.609375 C 259.496094 81.128906 259.554688 81.597656 259.554688 82.003906 C 259.554688 83.066406 259.269531 83.855469 258.695312 84.363281 C 258.121094 84.875 257.257812 85.140625 256.101562 85.160156 L 255.90625 85.160156 L 255.90625 84.597656 L 256.019531 84.597656 C 256.730469 84.597656 257.292969 84.410156 257.695312 84.039062 C 258.097656 83.664062 258.300781 83.035156 258.300781 82.136719 C 258.300781 81.792969 258.25 81.367188 258.152344 80.859375 C 258.054688 80.351562 258.007812 79.988281 258.007812 79.769531 C 258.007812 79.351562 258.128906 79.007812 258.375 78.738281 C 258.621094 78.46875 258.914062 78.269531 259.253906 78.144531 L 259.253906 78.007812 C 258.914062 77.882812 258.621094 77.683594 258.375 77.414062 C 258.128906 77.144531 258.007812 76.800781 258.007812 76.378906 C 258.007812 76.164062 258.054688 75.800781 258.152344 75.292969 C 258.25 74.785156 258.300781 74.355469 258.300781 74.011719 C 258.300781 73.152344 258.097656 72.539062 257.695312 72.164062 C 257.292969 71.792969 256.730469 71.605469 256.019531 71.605469 L 255.90625 71.605469 Z M 187.496094 71.042969 L 187.691406 71.042969 L 187.691406 71.605469 L 187.578125 71.605469 C 186.867188 71.605469 186.304688 71.792969 185.902344 72.164062 C 185.5 72.539062 185.296875 73.152344 185.296875 74.003906 C 185.296875 74.347656 185.347656 74.777344 185.445312 75.285156 C 185.542969 75.792969 185.589844 76.15625 185.589844 76.375 C 185.589844 76.792969 185.46875 77.136719 185.222656 77.40625 C 184.976562 77.671875 184.683594 77.871094 184.34375 78 L 184.34375 78.132812 C 184.683594 78.261719 184.976562 78.460938 185.222656 78.730469 C 185.46875 79 185.589844 79.34375 185.589844 79.761719 C 185.589844 79.980469 185.542969 80.34375 185.445312 80.851562 C 185.347656 81.359375 185.296875 81.789062 185.296875 82.132812 C 185.296875 83.027344 185.5 83.664062 185.902344 84.039062 C 186.304688 84.410156 186.867188 84.597656 187.578125 84.597656 L 187.691406 84.597656 L 187.691406 85.160156 L 187.496094 85.160156 C 186.339844 85.140625 185.476562 84.875 184.902344 84.363281 C 184.328125 83.855469 184.042969 83.066406 184.042969 82 C 184.042969 81.589844 184.097656 81.121094 184.214844 80.597656 C 184.328125 80.078125 184.386719 79.726562 184.386719 79.546875 C 184.386719 79.207031 184.269531 78.929688 184.039062 78.714844 C 183.804688 78.503906 183.449219 78.386719 182.976562 78.371094 L 182.976562 77.765625 C 183.449219 77.75 183.804688 77.632812 184.039062 77.421875 C 184.269531 77.207031 184.386719 76.929688 184.386719 76.585938 C 184.386719 76.410156 184.328125 76.058594 184.214844 75.535156 C 184.097656 75.011719 184.042969 74.546875 184.042969 74.136719 C 184.042969 73.117188 184.328125 72.347656 184.902344 71.839844 C 185.476562 71.328125 186.339844 71.0625 187.496094 71.042969 Z M 187.496094 71.042969 "/>
<path style=" stroke:none;fill-rule:evenodd;fill:rgb(0%,0%,0%);fill-opacity:1;" d="M 192.929688 72.214844 L 193.335938 72.214844 C 193.308594 72.6875 193.292969 73.34375 193.292969 74.183594 L 193.292969 80.503906 C 193.292969 80.789062 193.308594 81.007812 193.339844 81.152344 C 193.371094 81.296875 193.429688 81.414062 193.511719 81.507812 C 193.589844 81.597656 193.707031 81.667969 193.859375 81.722656 C 194.015625 81.773438 194.203125 81.8125 194.4375 81.839844 C 194.667969 81.867188 194.972656 81.886719 195.351562 81.894531 L 195.351562 82.433594 L 189.894531 82.433594 L 189.894531 81.894531 C 190.441406 81.871094 190.832031 81.835938 191.066406 81.796875 C 191.300781 81.753906 191.476562 81.691406 191.601562 81.605469 C 191.726562 81.523438 191.8125 81.402344 191.871094 81.25 C 191.929688 81.097656 191.953125 80.847656 191.953125 80.503906 L 191.953125 74.5 C 191.953125 74.304688 191.921875 74.15625 191.851562 74.066406 C 191.78125 73.976562 191.683594 73.929688 191.546875 73.929688 C 191.390625 73.929688 191.167969 74.011719 190.878906 74.175781 C 190.585938 74.339844 190.226562 74.5625 189.800781 74.847656 L 189.472656 74.277344 Z M 192.929688 72.214844 "/>
<path style=" stroke:none;fill-rule:evenodd;fill:rgb(0%,0%,0%);fill-opacity:1;" d="M 197.578125 80.71875 L 198.871094 80.71875 C 198.941406 81.0625 198.972656 81.402344 198.972656 81.738281 C 198.972656 82.085938 198.914062 82.398438 198.796875 82.6875 C 198.679688 82.972656 198.488281 83.257812 198.230469 83.542969 C 197.972656 83.828125 197.617188 84.136719 197.164062 84.480469 L 196.765625 84.027344 C 197.015625 83.789062 197.199219 83.578125 197.3125 83.386719 C 197.425781 83.199219 197.503906 82.980469 197.554688 82.738281 C 197.605469 82.496094 197.628906 82.195312 197.628906 81.828125 C 197.628906 81.453125 197.613281 81.082031 197.578125 80.71875 Z M 197.578125 80.71875 "/>
<path style=" stroke:none;fill-rule:evenodd;fill:rgb(0%,0%,0%);fill-opacity:1;" d="M 206.453125 72.214844 C 207.367188 72.214844 208.058594 72.414062 208.527344 72.816406 C 208.996094 73.21875 209.230469 73.804688 209.230469 74.566406 C 209.230469 74.828125 209.203125 75.070312 209.152344 75.289062 C 209.097656 75.507812 209.019531 75.726562 208.910156 75.941406 C 208.796875 76.15625 208.648438 76.386719 208.460938 76.632812 C 208.273438 76.878906 208.066406 77.128906 207.839844 77.382812 C 207.613281 77.636719 207.222656 78.058594 206.667969 78.652344 C 205.730469 79.644531 205.042969 80.511719 204.605469 81.25 L 207.390625 81.25 C 207.632812 81.25 207.828125 81.238281 207.972656 81.207031 C 208.121094 81.175781 208.238281 81.128906 208.328125 81.058594 C 208.417969 80.988281 208.488281 80.898438 208.539062 80.789062 C 208.589844 80.675781 208.65625 80.507812 208.734375 80.273438 L 209.363281 80.273438 L 209.234375 82.433594 L 203.160156 82.433594 L 203.160156 82.082031 C 203.371094 81.5625 203.65625 81.03125 204.015625 80.488281 C 204.375 79.945312 204.882812 79.304688 205.542969 78.570312 C 206.113281 77.9375 206.527344 77.460938 206.777344 77.136719 C 207.054688 76.78125 207.257812 76.472656 207.394531 76.214844 C 207.527344 75.953125 207.625 75.710938 207.6875 75.480469 C 207.742188 75.253906 207.773438 75.023438 207.773438 74.789062 C 207.773438 74.417969 207.714844 74.089844 207.597656 73.808594 C 207.480469 73.523438 207.296875 73.300781 207.054688 73.136719 C 206.808594 72.976562 206.503906 72.894531 206.132812 72.894531 C 205.214844 72.894531 204.59375 73.410156 204.273438 74.433594 L 203.378906 74.433594 L 203.378906 73.011719 C 203.976562 72.730469 204.53125 72.527344 205.050781 72.402344 C 205.574219 72.277344 206.039062 72.214844 206.453125 72.214844 Z M 206.453125 72.214844 "/>
<path style=" stroke:none;fill-rule:evenodd;fill:rgb(0%,0%,0%);fill-opacity:1;" d="M 211.621094 80.71875 L 212.914062 80.71875 C 212.984375 81.0625 213.019531 81.402344 213.019531 81.738281 C 213.019531 82.085938 212.960938 82.398438 212.84375 82.6875 C 212.722656 82.972656 212.535156 83.257812 212.277344 83.542969 C 212.019531 83.828125 211.664062 84.136719 211.210938 84.480469 L 210.808594 84.027344 C 211.0625 83.789062 211.242188 83.578125 211.359375 83.386719 C 211.472656 83.199219 211.550781 82.980469 211.601562 82.738281 C 211.648438 82.496094 211.675781 82.195312 211.675781 81.828125 C 211.675781 81.453125 211.65625 81.082031 211.621094 80.71875 Z M 211.621094 80.71875 "/>
<path style=" stroke:none;fill-rule:evenodd;fill:rgb(0%,0%,0%);fill-opacity:1;" d="M 225.328125 80.71875 L 226.820312 80.71875 L 226.820312 82.433594 L 225.328125 82.433594 Z M 221.710938 80.71875 L 223.203125 80.71875 L 223.203125 82.433594 L 221.710938 82.433594 Z M 218.089844 80.71875 L 219.582031 80.71875 L 219.582031 82.433594 L 218.089844 82.433594 Z M 218.089844 80.71875 "/>
<path style=" stroke:none;fill-rule:evenodd;fill:rgb(0%,0%,0%);fill-opacity:1;" d="M 251.148438 72.84375 C 250.808594 72.84375 250.527344 72.941406 250.296875 73.148438 C 250.066406 73.347656 249.882812 73.640625 249.742188 74.019531 C 249.605469 74.398438 249.503906 74.863281 249.445312 75.40625 C 249.382812 75.953125 249.355469 76.570312 249.355469 77.253906 C 249.355469 78.863281 249.503906 80.042969 249.804688 80.796875 C 250.101562 81.546875 250.5625 81.925781 251.1875 81.925781 C 251.785156 81.925781 252.226562 81.570312 252.511719 80.863281 C 252.800781 80.15625 252.945312 79.058594 252.945312 77.570312 C 252.945312 76.4375 252.871094 75.519531 252.722656 74.8125 C 252.574219 74.113281 252.371094 73.609375 252.105469 73.300781 C 251.84375 72.996094 251.523438 72.84375 251.148438 72.84375 Z M 242.863281 72.84375 C 242.523438 72.84375 242.238281 72.941406 242.007812 73.148438 C 241.78125 73.347656 241.59375 73.640625 241.453125 74.019531 C 241.316406 74.398438 241.214844 74.863281 241.15625 75.40625 C 241.097656 75.953125 241.066406 76.570312 241.066406 77.253906 C 241.066406 78.863281 241.214844 80.042969 241.515625 80.796875 C 241.8125 81.546875 242.273438 81.925781 242.898438 81.925781 C 243.496094 81.925781 243.9375 81.570312 244.226562 80.863281 C 244.511719 80.15625 244.65625 79.058594 244.65625 77.570312 C 244.65625 76.4375 244.582031 75.519531 244.4375 74.8125 C 244.285156 74.113281 244.082031 73.609375 243.820312 73.300781 C 243.554688 72.996094 243.238281 72.84375 242.863281 72.84375 Z M 251.1875 72.214844 C 252.265625 72.214844 253.070312 72.628906 253.59375 73.464844 C 254.121094 74.300781 254.386719 75.558594 254.386719 77.246094 C 254.386719 78.996094 254.101562 80.316406 253.539062 81.210938 C 252.976562 82.105469 252.152344 82.554688 251.070312 82.554688 C 250.003906 82.554688 249.214844 82.132812 248.695312 81.296875 C 248.175781 80.457031 247.914062 79.183594 247.914062 77.476562 C 247.914062 76.570312 247.996094 75.785156 248.15625 75.121094 C 248.316406 74.460938 248.539062 73.914062 248.828125 73.484375 C 249.113281 73.050781 249.460938 72.730469 249.863281 72.523438 C 250.269531 72.316406 250.710938 72.214844 251.1875 72.214844 Z M 242.898438 72.214844 C 243.976562 72.214844 244.78125 72.628906 245.304688 73.464844 C 245.832031 74.300781 246.097656 75.558594 246.097656 77.246094 C 246.097656 78.996094 245.8125 80.316406 245.25 81.210938 C 244.6875 82.105469 243.863281 82.554688 242.78125 82.554688 C 241.71875 82.554688 240.925781 82.132812 240.40625 81.296875 C 239.886719 80.457031 239.625 79.183594 239.625 77.476562 C 239.625 76.570312 239.707031 75.785156 239.867188 75.121094 C 240.027344 74.460938 240.25 73.914062 240.539062 73.484375 C 240.828125 73.050781 241.171875 72.730469 241.578125 72.523438 C 241.980469 72.316406 242.421875 72.214844 242.898438 72.214844 Z M 234.949219 72.214844 L 235.355469 72.214844 C 235.328125 72.6875 235.3125 73.34375 235.3125 74.183594 L 235.3125 80.503906 C 235.3125 80.789062 235.328125 81.007812 235.359375 81.152344 C 235.390625 81.296875 235.449219 81.414062 235.53125 81.507812 C 235.609375 81.597656 235.726562 81.667969 235.878906 81.722656 C 236.035156 81.773438 236.222656 81.8125 236.457031 81.839844 C 236.6875 81.867188 236.992188 81.886719 237.371094 81.894531 L 237.371094 82.433594 L 231.914062 82.433594 L 231.914062 81.894531 C 232.460938 81.871094 232.851562 81.835938 233.085938 81.796875 C 233.320312 81.753906 233.496094 81.691406 233.621094 81.605469 C 233.746094 81.523438 233.832031 81.402344 233.890625 81.25 C 233.949219 81.097656 233.972656 80.847656 233.972656 80.503906 L 233.972656 74.5 C 233.972656 74.304688 233.941406 74.15625 233.871094 74.066406 C 233.800781 73.976562 233.699219 73.929688 233.566406 73.929688 C 233.410156 73.929688 233.1875 74.011719 232.898438 74.175781 C 232.605469 74.339844 232.246094 74.5625 231.820312 74.847656 L 231.492188 74.277344 Z M 234.949219 72.214844 "/>
<path style=" stroke:none;fill-rule:evenodd;fill:rgb(0%,0%,0%);fill-opacity:1;" d="M 64.96875 75.234375 C 65.292969 75.234375 65.605469 75.25 65.910156 75.28125 C 66.210938 75.3125 66.59375 75.375 67.050781 75.46875 L 67.050781 76.980469 L 66.339844 76.980469 C 66.234375 76.683594 66.105469 76.449219 65.957031 76.28125 C 65.808594 76.109375 65.640625 75.992188 65.453125 75.921875 C 65.269531 75.851562 65.039062 75.816406 64.769531 75.816406 C 64.375 75.816406 64.058594 75.910156 63.828125 76.09375 C 63.59375 76.28125 63.476562 76.535156 63.476562 76.851562 C 63.476562 77.082031 63.523438 77.269531 63.617188 77.417969 C 63.710938 77.566406 63.855469 77.703125 64.050781 77.832031 C 64.25 77.960938 64.597656 78.128906 65.09375 78.34375 C 65.59375 78.558594 65.984375 78.757812 66.257812 78.941406 C 66.53125 79.125 66.742188 79.335938 66.898438 79.578125 C 67.054688 79.820312 67.132812 80.109375 67.132812 80.445312 C 67.132812 80.835938 67.066406 81.164062 66.933594 81.429688 C 66.800781 81.695312 66.613281 81.910156 66.371094 82.082031 C 66.128906 82.25 65.84375 82.367188 65.511719 82.445312 C 65.179688 82.515625 64.816406 82.554688 64.421875 82.554688 C 64.007812 82.554688 63.605469 82.523438 63.21875 82.460938 C 62.828125 82.398438 62.449219 82.320312 62.078125 82.222656 L 62.078125 80.675781 L 62.804688 80.675781 C 62.9375 81.128906 63.132812 81.457031 63.394531 81.664062 C 63.65625 81.867188 64.015625 81.96875 64.472656 81.96875 C 64.648438 81.96875 64.824219 81.953125 64.992188 81.914062 C 65.164062 81.875 65.316406 81.8125 65.449219 81.730469 C 65.582031 81.640625 65.6875 81.527344 65.765625 81.375 C 65.84375 81.230469 65.882812 81.042969 65.882812 80.820312 C 65.882812 80.570312 65.835938 80.363281 65.734375 80.207031 C 65.636719 80.050781 65.484375 79.90625 65.277344 79.773438 C 65.070312 79.644531 64.707031 79.46875 64.183594 79.246094 C 63.738281 79.058594 63.378906 78.875 63.105469 78.699219 C 62.835938 78.519531 62.621094 78.308594 62.46875 78.066406 C 62.3125 77.828125 62.234375 77.539062 62.234375 77.210938 C 62.234375 76.804688 62.34375 76.453125 62.5625 76.15625 C 62.78125 75.855469 63.097656 75.628906 63.511719 75.46875 C 63.925781 75.3125 64.410156 75.234375 64.96875 75.234375 Z M 64.96875 75.234375 "/>
<path style=" stroke:none;fill-rule:evenodd;fill:rgb(0%,0%,0%);fill-opacity:1;" d="M 68.71875 80.71875 L 70.210938 80.71875 L 70.210938 82.433594 L 68.71875 82.433594 Z M 68.71875 80.71875 "/>
<path style=" stroke:none;fill-rule:evenodd;fill:rgb(0%,0%,0%);fill-opacity:1;" d="M 75.121094 73.53125 L 76.167969 73.53125 L 76.167969 75.359375 L 78.554688 75.359375 L 78.554688 76.105469 L 76.167969 76.105469 L 76.167969 79.402344 C 76.167969 79.878906 76.1875 80.261719 76.226562 80.542969 C 76.265625 80.828125 76.339844 81.050781 76.449219 81.210938 C 76.558594 81.371094 76.679688 81.484375 76.820312 81.554688 C 76.957031 81.625 77.132812 81.660156 77.351562 81.660156 C 77.546875 81.660156 77.730469 81.617188 77.90625 81.535156 C 78.078125 81.457031 78.246094 81.335938 78.414062 81.183594 L 78.746094 81.582031 C 78.398438 81.925781 78.066406 82.171875 77.753906 82.324219 C 77.441406 82.476562 77.117188 82.554688 76.78125 82.554688 C 76.148438 82.554688 75.675781 82.363281 75.363281 81.988281 C 75.054688 81.609375 74.898438 81.019531 74.898438 80.214844 L 74.898438 76.105469 L 73.804688 76.105469 L 73.804688 75.730469 C 74.050781 75.691406 74.25 75.621094 74.402344 75.523438 C 74.554688 75.421875 74.675781 75.296875 74.761719 75.140625 C 74.847656 74.984375 74.914062 74.792969 74.964844 74.554688 C 75.015625 74.320312 75.066406 73.980469 75.121094 73.53125 Z M 75.121094 73.53125 "/>
<path style=" stroke:none;fill-rule:evenodd;fill:rgb(0%,0%,0%);fill-opacity:1;" d="M 79.441406 80.71875 L 80.933594 80.71875 L 80.933594 82.433594 L 79.441406 82.433594 Z M 79.441406 80.71875 "/>
</g>
</svg>
