<?xml version="1.0" encoding="UTF-8"?>
<svg xmlns="http://www.w3.org/2000/svg" xmlns:xlink="http://www.w3.org/1999/xlink" width="360px" height="124px" viewBox="0 0 360 124" version="1.1">
<g id="surface1">
<path style=" stroke:none;fill-rule:evenodd;fill:rgb(0%,0%,0%);fill-opacity:1;" d="M 115.523438 20.523438 L 137 20.523438 L 137 25.800781 L 135.824219 25.800781 C 135.691406 24.535156 135.414062 23.535156 135 22.796875 C 134.582031 22.058594 133.957031 21.691406 133.113281 21.691406 L 119.082031 21.691406 L 129.691406 36.128906 L 129.691406 37.207031 L 118.238281 52.785156 L 133.664062 52.785156 C 134.347656 52.785156 134.867188 52.542969 135.230469 52.0625 C 135.589844 51.578125 135.902344 50.503906 136.164062 48.835938 L 137.480469 48.835938 L 137.027344 55.367188 L 115.160156 55.367188 L 115.160156 54.484375 L 127.617188 37.5625 L 115.523438 21.371094 Z M 115.523438 20.523438 "/>
<path style=" stroke:none;fill-rule:evenodd;fill:rgb(0%,0%,0%);fill-opacity:1;" d="M 145.917969 34.554688 L 146.441406 34.554688 L 145.164062 40.273438 C 145.03125 40.859375 144.96875 41.296875 144.96875 41.59375 C 144.96875 41.832031 145.003906 42.003906 145.082031 42.113281 C 145.160156 42.21875 145.28125 42.273438 145.445312 42.273438 C 145.625 42.273438 145.816406 42.199219 146.015625 42.050781 C 146.21875 41.90625 146.503906 41.628906 146.871094 41.21875 L 147.378906 41.71875 C 146.796875 42.332031 146.324219 42.746094 145.964844 42.96875 C 145.601562 43.1875 145.195312 43.296875 144.746094 43.296875 C 144.359375 43.296875 144.050781 43.15625 143.820312 42.871094 C 143.589844 42.589844 143.472656 42.230469 143.472656 41.789062 C 143.472656 41.339844 143.554688 40.761719 143.722656 40.0625 L 144.390625 37.148438 C 144.527344 36.554688 144.59375 36.109375 144.59375 35.8125 C 144.59375 35.546875 144.53125 35.363281 144.402344 35.265625 C 144.273438 35.171875 144.023438 35.121094 143.652344 35.109375 L 143.75 34.636719 Z M 145.679688 31.140625 L 147.253906 31.140625 L 146.84375 32.871094 L 145.269531 32.871094 Z M 145.679688 31.140625 "/>
<path style=" stroke:none;fill-rule:evenodd;fill:rgb(0%,0%,0%);fill-opacity:1;" d="M 154 36.015625 L 155.972656 36.015625 L 155.972656 38.191406 L 154 38.191406 Z M 154 36.015625 "/>
<path style=" stroke:none;fill-rule:evenodd;fill:rgb(0%,0%,0%);fill-opacity:1;" d="M 164.886719 34.484375 C 165.070312 34.484375 165.234375 34.503906 165.371094 34.546875 C 165.511719 34.585938 165.632812 34.652344 165.742188 34.738281 C 165.847656 34.824219 165.941406 34.933594 166.027344 35.074219 C 166.109375 35.207031 166.1875 35.394531 166.265625 35.628906 C 166.34375 35.863281 166.414062 36.15625 166.484375 36.503906 C 166.550781 36.851562 166.613281 37.210938 166.667969 37.585938 L 166.753906 37.585938 C 167.324219 36.78125 167.753906 36.195312 168.050781 35.824219 C 168.34375 35.453125 168.589844 35.175781 168.792969 34.996094 C 168.992188 34.816406 169.1875 34.6875 169.375 34.613281 C 169.5625 34.539062 169.808594 34.503906 170.117188 34.503906 C 170.394531 34.503906 170.625 34.539062 170.800781 34.609375 L 170.445312 36.21875 L 169.824219 36.21875 C 169.789062 35.972656 169.683594 35.847656 169.511719 35.847656 C 169.457031 35.847656 169.402344 35.855469 169.34375 35.871094 C 169.285156 35.890625 169.210938 35.929688 169.125 35.988281 C 169.039062 36.050781 168.914062 36.164062 168.746094 36.335938 C 168.582031 36.511719 168.394531 36.71875 168.1875 36.96875 C 167.980469 37.21875 167.765625 37.480469 167.546875 37.753906 L 166.941406 38.511719 C 167.046875 39.082031 167.148438 39.574219 167.246094 39.988281 C 167.339844 40.40625 167.421875 40.753906 167.496094 41.03125 C 167.570312 41.304688 167.636719 41.523438 167.695312 41.683594 C 167.75 41.84375 167.8125 41.964844 167.875 42.046875 C 167.941406 42.125 168.007812 42.183594 168.074219 42.214844 C 168.144531 42.246094 168.222656 42.261719 168.3125 42.261719 C 168.472656 42.261719 168.628906 42.199219 168.777344 42.074219 C 168.929688 41.949219 169.148438 41.671875 169.433594 41.230469 L 170.011719 41.613281 C 169.59375 42.230469 169.21875 42.664062 168.886719 42.917969 C 168.550781 43.171875 168.152344 43.296875 167.6875 43.296875 C 167.433594 43.296875 167.21875 43.25 167.039062 43.15625 C 166.863281 43.066406 166.707031 42.921875 166.578125 42.71875 C 166.445312 42.515625 166.332031 42.199219 166.230469 41.773438 C 166.046875 41.011719 165.933594 40.429688 165.894531 40.027344 L 165.804688 40.027344 C 165.175781 40.914062 164.707031 41.546875 164.402344 41.933594 C 164.097656 42.320312 163.847656 42.605469 163.648438 42.789062 C 163.449219 42.972656 163.257812 43.101562 163.070312 43.175781 C 162.882812 43.25 162.636719 43.289062 162.328125 43.289062 C 162.046875 43.289062 161.820312 43.253906 161.640625 43.179688 L 161.996094 41.566406 L 162.621094 41.566406 C 162.65625 41.816406 162.757812 41.941406 162.929688 41.941406 C 163.015625 41.941406 163.101562 41.921875 163.195312 41.875 C 163.285156 41.828125 163.417969 41.726562 163.589844 41.554688 C 163.761719 41.386719 164 41.121094 164.300781 40.757812 C 164.601562 40.394531 165.042969 39.851562 165.617188 39.128906 C 165.527344 38.65625 165.4375 38.203125 165.339844 37.773438 C 165.246094 37.335938 165.148438 36.933594 165.046875 36.558594 C 164.945312 36.183594 164.863281 35.941406 164.800781 35.824219 C 164.734375 35.710938 164.664062 35.628906 164.589844 35.585938 C 164.515625 35.539062 164.421875 35.515625 164.308594 35.515625 C 164.183594 35.515625 164.074219 35.546875 163.972656 35.601562 C 163.871094 35.65625 163.761719 35.757812 163.644531 35.894531 C 163.523438 36.035156 163.367188 36.253906 163.171875 36.550781 L 162.59375 36.167969 C 162.96875 35.601562 163.324219 35.183594 163.667969 34.902344 C 164.011719 34.621094 164.417969 34.484375 164.886719 34.484375 Z M 164.886719 34.484375 "/>
<path style=" stroke:none;fill-rule:evenodd;fill:rgb(0%,0%,0%);fill-opacity:1;" d="M 173.597656 40.652344 L 173.976562 40.652344 L 173.046875 44.804688 C 172.953125 45.226562 172.90625 45.546875 172.90625 45.761719 C 172.90625 45.933594 172.933594 46.058594 172.988281 46.136719 C 173.046875 46.214844 173.132812 46.253906 173.253906 46.253906 C 173.382812 46.253906 173.519531 46.203125 173.667969 46.09375 C 173.8125 45.988281 174.019531 45.789062 174.289062 45.492188 L 174.65625 45.851562 C 174.234375 46.296875 173.890625 46.601562 173.628906 46.761719 C 173.367188 46.921875 173.070312 46.996094 172.746094 46.996094 C 172.464844 46.996094 172.242188 46.898438 172.074219 46.691406 C 171.90625 46.488281 171.820312 46.226562 171.820312 45.90625 C 171.820312 45.578125 171.882812 45.160156 172 44.648438 L 172.484375 42.535156 C 172.585938 42.101562 172.632812 41.78125 172.632812 41.566406 C 172.632812 41.371094 172.589844 41.238281 172.496094 41.171875 C 172.402344 41.101562 172.222656 41.0625 171.949219 41.050781 L 172.019531 40.710938 Z M 173.421875 38.175781 L 174.566406 38.175781 L 174.269531 39.429688 L 173.125 39.429688 Z M 173.421875 38.175781 "/>
<path style=" stroke:none;fill-rule:evenodd;fill:rgb(0%,0%,0%);fill-opacity:1;" d="M 134.535156 7.554688 C 134.238281 7.554688 133.988281 7.644531 133.789062 7.820312 C 133.589844 7.996094 133.429688 8.253906 133.304688 8.585938 C 133.183594 8.917969 133.097656 9.320312 133.042969 9.796875 C 132.992188 10.273438 132.964844 10.8125 132.964844 11.414062 C 132.964844 12.816406 133.097656 13.851562 133.355469 14.507812 C 133.617188 15.164062 134.019531 15.496094 134.566406 15.496094 C 135.089844 15.496094 135.476562 15.183594 135.726562 14.566406 C 135.976562 13.949219 136.105469 12.988281 136.105469 11.691406 C 136.105469 10.699219 136.039062 9.894531 135.910156 9.28125 C 135.78125 8.664062 135.601562 8.226562 135.371094 7.957031 C 135.140625 7.691406 134.863281 7.554688 134.535156 7.554688 Z M 127.050781 7.554688 C 126.753906 7.554688 126.503906 7.644531 126.304688 7.820312 C 126.105469 7.996094 125.945312 8.253906 125.820312 8.585938 C 125.699219 8.917969 125.609375 9.320312 125.558594 9.796875 C 125.507812 10.273438 125.480469 10.8125 125.480469 11.414062 C 125.480469 12.816406 125.613281 13.851562 125.871094 14.507812 C 126.132812 15.164062 126.535156 15.496094 127.082031 15.496094 C 127.605469 15.496094 127.992188 15.183594 128.242188 14.566406 C 128.492188 13.949219 128.621094 12.988281 128.621094 11.691406 C 128.621094 10.699219 128.554688 9.894531 128.425781 9.28125 C 128.296875 8.664062 128.117188 8.226562 127.886719 7.957031 C 127.65625 7.691406 127.378906 7.554688 127.050781 7.554688 Z M 134.566406 7.003906 C 135.511719 7.003906 136.210938 7.371094 136.671875 8.101562 C 137.132812 8.828125 137.363281 9.929688 137.363281 11.40625 C 137.363281 12.933594 137.117188 14.085938 136.625 14.871094 C 136.132812 15.652344 135.410156 16.046875 134.464844 16.046875 C 133.535156 16.046875 132.84375 15.675781 132.390625 14.945312 C 131.933594 14.210938 131.707031 13.097656 131.707031 11.605469 C 131.707031 10.8125 131.777344 10.128906 131.917969 9.546875 C 132.058594 8.96875 132.253906 8.492188 132.503906 8.113281 C 132.757812 7.738281 133.058594 7.457031 133.410156 7.277344 C 133.765625 7.097656 134.148438 7.003906 134.566406 7.003906 Z M 127.082031 7.003906 C 128.027344 7.003906 128.726562 7.371094 129.1875 8.101562 C 129.648438 8.828125 129.878906 9.929688 129.878906 11.40625 C 129.878906 12.933594 129.632812 14.085938 129.140625 14.871094 C 128.648438 15.652344 127.925781 16.046875 126.980469 16.046875 C 126.050781 16.046875 125.359375 15.675781 124.902344 14.945312 C 124.449219 14.210938 124.222656 13.097656 124.222656 11.605469 C 124.222656 10.8125 124.292969 10.128906 124.433594 9.546875 C 124.574219 8.96875 124.769531 8.492188 125.019531 8.113281 C 125.273438 7.738281 125.574219 7.457031 125.925781 7.277344 C 126.28125 7.097656 126.664062 7.003906 127.082031 7.003906 Z M 120.078125 7.003906 L 120.433594 7.003906 C 120.40625 7.421875 120.394531 7.992188 120.394531 8.726562 L 120.394531 14.253906 C 120.394531 14.503906 120.40625 14.691406 120.433594 14.816406 C 120.464844 14.945312 120.511719 15.050781 120.582031 15.128906 C 120.65625 15.207031 120.757812 15.269531 120.890625 15.316406 C 121.023438 15.363281 121.191406 15.394531 121.394531 15.421875 C 121.597656 15.441406 121.863281 15.460938 122.195312 15.46875 L 122.195312 15.941406 L 117.421875 15.941406 L 117.421875 15.46875 C 117.902344 15.449219 118.242188 15.417969 118.445312 15.378906 C 118.652344 15.34375 118.808594 15.289062 118.914062 15.214844 C 119.023438 15.140625 119.101562 15.039062 119.148438 14.90625 C 119.199219 14.773438 119.222656 14.554688 119.222656 14.253906 L 119.222656 9.003906 C 119.222656 8.832031 119.195312 8.707031 119.132812 8.628906 C 119.074219 8.546875 118.984375 8.507812 118.871094 8.507812 C 118.730469 8.507812 118.535156 8.578125 118.28125 8.71875 C 118.027344 8.863281 117.714844 9.058594 117.339844 9.308594 L 117.054688 8.808594 Z M 120.078125 7.003906 "/>
<path style=" stroke:none;fill-rule:evenodd;fill:rgb(0%,0%,0%);fill-opacity:1;" d="M 118.660156 60.28125 L 119.039062 60.28125 L 118.109375 64.433594 C 118.015625 64.859375 117.96875 65.175781 117.96875 65.390625 C 117.96875 65.5625 117.996094 65.691406 118.054688 65.765625 C 118.109375 65.84375 118.195312 65.882812 118.316406 65.882812 C 118.445312 65.882812 118.585938 65.828125 118.730469 65.726562 C 118.875 65.617188 119.082031 65.417969 119.351562 65.121094 L 119.71875 65.484375 C 119.296875 65.925781 118.953125 66.226562 118.691406 66.386719 C 118.429688 66.546875 118.132812 66.628906 117.808594 66.628906 C 117.527344 66.628906 117.304688 66.523438 117.136719 66.320312 C 116.96875 66.113281 116.882812 65.851562 116.882812 65.53125 C 116.882812 65.203125 116.945312 64.789062 117.066406 64.277344 L 117.550781 62.164062 C 117.648438 61.734375 117.699219 61.40625 117.699219 61.191406 C 117.699219 60.996094 117.652344 60.867188 117.558594 60.796875 C 117.464844 60.726562 117.285156 60.691406 117.011719 60.679688 L 117.085938 60.335938 Z M 118.484375 57.800781 L 119.628906 57.800781 L 119.332031 59.058594 L 118.1875 59.058594 Z M 118.484375 57.800781 "/>
<path style=" stroke:none;fill-rule:evenodd;fill:rgb(0%,0%,0%);fill-opacity:1;" d="M 121.652344 63.648438 L 129.609375 63.648438 L 129.609375 64.511719 L 121.652344 64.511719 Z M 121.652344 60.964844 L 129.609375 60.964844 L 129.609375 61.828125 L 121.652344 61.828125 Z M 121.652344 60.964844 "/>
<path style=" stroke:none;fill-rule:evenodd;fill:rgb(0%,0%,0%);fill-opacity:1;" d="M 134.867188 57.585938 L 135.222656 57.585938 C 135.195312 58.003906 135.183594 58.578125 135.183594 59.308594 L 135.183594 64.835938 C 135.183594 65.085938 135.199219 65.273438 135.226562 65.398438 C 135.253906 65.527344 135.304688 65.632812 135.375 65.710938 C 135.445312 65.789062 135.546875 65.851562 135.679688 65.898438 C 135.8125 65.945312 135.980469 65.980469 136.183594 66.003906 C 136.386719 66.023438 136.652344 66.042969 136.984375 66.050781 L 136.984375 66.523438 L 132.214844 66.523438 L 132.214844 66.050781 C 132.691406 66.03125 133.03125 66 133.238281 65.960938 C 133.441406 65.925781 133.597656 65.871094 133.707031 65.796875 C 133.8125 65.726562 133.890625 65.621094 133.941406 65.488281 C 133.992188 65.355469 134.015625 65.136719 134.015625 64.835938 L 134.015625 59.585938 C 134.015625 59.414062 133.984375 59.289062 133.925781 59.210938 C 133.863281 59.128906 133.777344 59.089844 133.660156 59.089844 C 133.523438 59.089844 133.328125 59.160156 133.074219 59.300781 C 132.816406 59.445312 132.503906 59.640625 132.128906 59.890625 L 131.84375 59.390625 Z M 134.867188 57.585938 "/>
<path style=" stroke:none;fill-rule:evenodd;fill:rgb(0%,0%,0%);fill-opacity:1;" d="M 85.835938 36.601562 L 86.378906 36.601562 L 86.378906 42.972656 C 86.378906 43.484375 86.402344 43.835938 86.449219 44.039062 C 86.496094 44.234375 86.589844 44.386719 86.722656 44.488281 C 86.855469 44.59375 87.074219 44.683594 87.375 44.761719 L 87.375 45.199219 L 83.890625 45.199219 L 83.890625 44.761719 C 84.121094 44.691406 84.285156 44.628906 84.382812 44.574219 C 84.480469 44.523438 84.5625 44.449219 84.632812 44.351562 C 84.699219 44.257812 84.753906 44.113281 84.792969 43.914062 C 84.832031 43.71875 84.851562 43.414062 84.851562 42.996094 L 84.851562 39.113281 C 84.851562 38.734375 84.84375 38.425781 84.832031 38.195312 C 84.820312 37.960938 84.777344 37.777344 84.707031 37.636719 C 84.636719 37.496094 84.527344 37.394531 84.382812 37.328125 C 84.238281 37.257812 84.03125 37.199219 83.765625 37.152344 L 83.765625 36.679688 Z M 94.410156 36.539062 C 94.730469 36.539062 95.015625 36.574219 95.269531 36.648438 C 95.519531 36.722656 95.742188 36.835938 95.9375 36.992188 C 96.128906 37.148438 96.289062 37.335938 96.410156 37.566406 C 96.535156 37.796875 96.628906 38.070312 96.691406 38.390625 C 96.753906 38.710938 96.785156 39.121094 96.785156 39.613281 L 96.785156 42.972656 C 96.785156 43.382812 96.796875 43.675781 96.820312 43.863281 C 96.84375 44.046875 96.886719 44.191406 96.945312 44.289062 C 97.003906 44.390625 97.089844 44.476562 97.203125 44.546875 C 97.316406 44.613281 97.511719 44.683594 97.789062 44.761719 L 97.789062 45.199219 L 94.285156 45.199219 L 94.285156 44.761719 C 94.515625 44.691406 94.683594 44.628906 94.785156 44.574219 C 94.886719 44.523438 94.96875 44.449219 95.039062 44.351562 C 95.105469 44.257812 95.160156 44.109375 95.199219 43.914062 C 95.238281 43.710938 95.253906 43.410156 95.253906 43.007812 L 95.253906 40.671875 C 95.253906 40.257812 95.242188 39.878906 95.21875 39.539062 C 95.195312 39.203125 95.15625 38.925781 95.101562 38.707031 C 95.042969 38.488281 94.976562 38.324219 94.894531 38.199219 C 94.816406 38.078125 94.71875 37.976562 94.609375 37.886719 C 94.5 37.800781 94.375 37.734375 94.234375 37.683594 C 94.089844 37.632812 93.902344 37.609375 93.671875 37.609375 C 93.441406 37.609375 93.222656 37.652344 93.015625 37.746094 C 92.808594 37.835938 92.578125 37.996094 92.328125 38.222656 C 92.082031 38.449219 91.898438 38.671875 91.789062 38.890625 C 91.675781 39.109375 91.617188 39.363281 91.617188 39.648438 L 91.617188 42.972656 C 91.617188 43.484375 91.640625 43.835938 91.691406 44.039062 C 91.738281 44.234375 91.828125 44.386719 91.960938 44.488281 C 92.09375 44.59375 92.3125 44.683594 92.613281 44.761719 L 92.613281 45.199219 L 89.128906 45.199219 L 89.128906 44.761719 C 89.359375 44.691406 89.523438 44.628906 89.621094 44.574219 C 89.71875 44.523438 89.804688 44.449219 89.871094 44.351562 C 89.9375 44.257812 89.992188 44.113281 90.03125 43.914062 C 90.070312 43.71875 90.089844 43.414062 90.089844 42.996094 L 90.089844 39.113281 C 90.089844 38.734375 90.082031 38.425781 90.070312 38.195312 C 90.058594 37.960938 90.019531 37.777344 89.945312 37.636719 C 89.875 37.496094 89.765625 37.394531 89.621094 37.328125 C 89.476562 37.257812 89.269531 37.199219 89.003906 37.152344 L 89.003906 36.679688 L 91.085938 36.601562 L 91.628906 36.601562 L 91.53125 38.050781 L 91.652344 38.085938 C 92.09375 37.640625 92.445312 37.324219 92.714844 37.136719 C 92.984375 36.945312 93.257812 36.796875 93.535156 36.691406 C 93.8125 36.589844 94.101562 36.539062 94.410156 36.539062 Z M 73.910156 36.539062 C 74.5 36.539062 74.984375 36.675781 75.359375 36.949219 C 75.730469 37.21875 75.988281 37.640625 76.132812 38.203125 C 76.578125 37.753906 76.9375 37.421875 77.210938 37.203125 C 77.488281 36.992188 77.769531 36.828125 78.058594 36.710938 C 78.34375 36.59375 78.65625 36.539062 78.988281 36.539062 C 79.382812 36.539062 79.726562 36.59375 80.011719 36.710938 C 80.300781 36.828125 80.542969 37.003906 80.742188 37.246094 C 80.941406 37.488281 81.085938 37.789062 81.179688 38.148438 C 81.269531 38.511719 81.316406 39 81.316406 39.613281 L 81.316406 42.972656 C 81.316406 43.421875 81.332031 43.734375 81.359375 43.90625 C 81.390625 44.078125 81.433594 44.210938 81.488281 44.308594 C 81.546875 44.402344 81.628906 44.484375 81.742188 44.550781 C 81.855469 44.621094 82.046875 44.691406 82.3125 44.761719 L 82.3125 45.199219 L 78.816406 45.199219 L 78.816406 44.761719 C 79.046875 44.691406 79.214844 44.628906 79.316406 44.574219 C 79.417969 44.523438 79.5 44.449219 79.570312 44.351562 C 79.636719 44.257812 79.691406 44.109375 79.730469 43.914062 C 79.765625 43.710938 79.785156 43.410156 79.785156 43.007812 L 79.785156 40.671875 C 79.785156 40.167969 79.773438 39.75 79.746094 39.421875 C 79.71875 39.089844 79.679688 38.828125 79.621094 38.632812 C 79.566406 38.433594 79.496094 38.28125 79.417969 38.167969 C 79.335938 38.054688 79.246094 37.957031 79.148438 37.875 C 79.046875 37.792969 78.925781 37.726562 78.789062 37.675781 C 78.65625 37.628906 78.472656 37.609375 78.25 37.609375 C 78.011719 37.609375 77.789062 37.65625 77.585938 37.75 C 77.382812 37.84375 77.160156 38.003906 76.917969 38.230469 C 76.679688 38.457031 76.503906 38.683594 76.398438 38.914062 C 76.292969 39.140625 76.238281 39.410156 76.238281 39.71875 L 76.238281 42.972656 C 76.238281 43.421875 76.253906 43.734375 76.28125 43.90625 C 76.3125 44.078125 76.355469 44.210938 76.410156 44.308594 C 76.46875 44.402344 76.554688 44.484375 76.664062 44.550781 C 76.777344 44.621094 76.96875 44.691406 77.234375 44.761719 L 77.234375 45.199219 L 73.738281 45.199219 L 73.738281 44.761719 C 73.972656 44.691406 74.136719 44.628906 74.238281 44.574219 C 74.339844 44.523438 74.421875 44.449219 74.492188 44.351562 C 74.558594 44.257812 74.613281 44.109375 74.652344 43.914062 C 74.691406 43.710938 74.710938 43.410156 74.710938 43.007812 L 74.710938 40.671875 C 74.710938 40.144531 74.695312 39.710938 74.664062 39.378906 C 74.636719 39.046875 74.589844 38.78125 74.527344 38.578125 C 74.464844 38.378906 74.382812 38.210938 74.285156 38.085938 C 74.1875 37.960938 74.089844 37.867188 73.988281 37.800781 C 73.886719 37.738281 73.769531 37.691406 73.632812 37.65625 C 73.496094 37.621094 73.34375 37.609375 73.171875 37.609375 C 72.929688 37.609375 72.699219 37.664062 72.484375 37.773438 C 72.273438 37.882812 72.054688 38.039062 71.832031 38.246094 C 71.609375 38.457031 71.441406 38.671875 71.328125 38.898438 C 71.21875 39.125 71.160156 39.367188 71.160156 39.628906 L 71.160156 42.972656 C 71.160156 43.308594 71.171875 43.566406 71.1875 43.746094 C 71.207031 43.925781 71.234375 44.066406 71.273438 44.164062 C 71.3125 44.265625 71.359375 44.347656 71.417969 44.410156 C 71.476562 44.472656 71.5625 44.53125 71.671875 44.589844 C 71.78125 44.644531 71.945312 44.703125 72.164062 44.761719 L 72.164062 45.199219 L 68.679688 45.199219 L 68.679688 44.761719 C 68.90625 44.691406 69.066406 44.628906 69.164062 44.574219 C 69.261719 44.523438 69.347656 44.449219 69.417969 44.351562 C 69.488281 44.257812 69.542969 44.113281 69.578125 43.914062 C 69.613281 43.71875 69.632812 43.414062 69.632812 42.996094 L 69.632812 39.113281 C 69.632812 38.734375 69.625 38.425781 69.613281 38.195312 C 69.601562 37.960938 69.558594 37.777344 69.488281 37.636719 C 69.417969 37.496094 69.308594 37.394531 69.164062 37.328125 C 69.019531 37.257812 68.8125 37.199219 68.546875 37.152344 L 68.546875 36.679688 L 70.628906 36.601562 L 71.171875 36.601562 L 71.070312 38.050781 L 71.195312 38.085938 C 71.550781 37.734375 71.84375 37.460938 72.074219 37.28125 C 72.300781 37.101562 72.523438 36.953125 72.734375 36.84375 C 72.949219 36.734375 73.148438 36.65625 73.335938 36.609375 C 73.523438 36.5625 73.714844 36.539062 73.910156 36.539062 Z M 84.796875 33.1875 L 86.433594 33.1875 L 86.433594 34.914062 L 84.796875 34.914062 Z M 84.796875 33.1875 "/>
<path style=" stroke:none;fill-rule:evenodd;fill:rgb(0%,0%,0%);fill-opacity:1;" d="M 118.441406 90.574219 C 118.625 90.574219 118.785156 90.59375 118.925781 90.636719 C 119.066406 90.675781 119.1875 90.738281 119.292969 90.824219 C 119.402344 90.914062 119.496094 91.023438 119.578125 91.160156 C 119.664062 91.296875 119.742188 91.484375 119.820312 91.71875 C 119.894531 91.953125 119.96875 92.242188 120.039062 92.589844 C 120.105469 92.9375 120.164062 93.300781 120.21875 93.671875 L 120.308594 93.671875 C 120.878906 92.871094 121.308594 92.285156 121.601562 91.914062 C 121.894531 91.542969 122.144531 91.265625 122.34375 91.085938 C 122.546875 90.902344 122.742188 90.773438 122.925781 90.703125 C 123.113281 90.628906 123.363281 90.589844 123.667969 90.589844 C 123.949219 90.589844 124.175781 90.625 124.355469 90.699219 L 124 92.308594 L 123.375 92.308594 C 123.339844 92.058594 123.238281 91.933594 123.066406 91.933594 C 123.011719 91.933594 122.957031 91.945312 122.894531 91.960938 C 122.835938 91.980469 122.765625 92.015625 122.679688 92.078125 C 122.59375 92.136719 122.464844 92.253906 122.300781 92.425781 C 122.132812 92.597656 121.949219 92.808594 121.738281 93.058594 C 121.53125 93.308594 121.320312 93.570312 121.101562 93.84375 L 120.496094 94.601562 C 120.601562 95.171875 120.703125 95.664062 120.796875 96.078125 C 120.890625 96.496094 120.976562 96.839844 121.050781 97.117188 C 121.125 97.390625 121.191406 97.613281 121.246094 97.773438 C 121.304688 97.933594 121.363281 98.050781 121.429688 98.132812 C 121.492188 98.210938 121.5625 98.269531 121.628906 98.300781 C 121.695312 98.335938 121.777344 98.351562 121.863281 98.351562 C 122.023438 98.351562 122.179688 98.289062 122.332031 98.164062 C 122.484375 98.039062 122.699219 97.757812 122.984375 97.316406 L 123.5625 97.699219 C 123.148438 98.320312 122.773438 98.753906 122.4375 99.007812 C 122.101562 99.261719 121.703125 99.386719 121.242188 99.386719 C 120.988281 99.386719 120.769531 99.339844 120.59375 99.246094 C 120.414062 99.15625 120.261719 99.007812 120.128906 98.804688 C 120 98.605469 119.882812 98.289062 119.785156 97.863281 C 119.601562 97.101562 119.488281 96.519531 119.445312 96.113281 L 119.355469 96.113281 C 118.726562 97 118.261719 97.636719 117.957031 98.023438 C 117.652344 98.40625 117.398438 98.691406 117.199219 98.878906 C 117 99.0625 116.808594 99.191406 116.621094 99.265625 C 116.4375 99.339844 116.1875 99.378906 115.878906 99.378906 C 115.601562 99.378906 115.371094 99.339844 115.195312 99.269531 L 115.550781 97.65625 L 116.171875 97.65625 C 116.207031 97.90625 116.3125 98.03125 116.484375 98.03125 C 116.566406 98.03125 116.65625 98.007812 116.746094 97.964844 C 116.839844 97.921875 116.96875 97.8125 117.140625 97.640625 C 117.3125 97.476562 117.550781 97.207031 117.855469 96.84375 C 118.15625 96.484375 118.59375 95.941406 119.171875 95.214844 C 119.082031 94.746094 118.988281 94.296875 118.894531 93.859375 C 118.800781 93.425781 118.703125 93.023438 118.601562 92.648438 C 118.5 92.273438 118.417969 92.03125 118.351562 91.914062 C 118.285156 91.796875 118.21875 91.71875 118.144531 91.671875 C 118.070312 91.628906 117.976562 91.605469 117.863281 91.605469 C 117.738281 91.605469 117.625 91.636719 117.523438 91.691406 C 117.425781 91.746094 117.3125 91.84375 117.195312 91.984375 C 117.078125 92.125 116.921875 92.34375 116.722656 92.640625 L 116.148438 92.257812 C 116.519531 91.691406 116.878906 91.269531 117.222656 90.988281 C 117.566406 90.710938 117.972656 90.574219 118.441406 90.574219 Z M 118.441406 90.574219 "/>
<path style=" stroke:none;fill-rule:evenodd;fill:rgb(0%,0%,0%);fill-opacity:1;" d="M 127.148438 96.738281 L 127.53125 96.738281 L 126.601562 100.894531 C 126.507812 101.316406 126.457031 101.636719 126.457031 101.851562 C 126.457031 102.023438 126.488281 102.148438 126.542969 102.226562 C 126.597656 102.304688 126.6875 102.34375 126.808594 102.34375 C 126.9375 102.34375 127.074219 102.289062 127.222656 102.183594 C 127.367188 102.078125 127.574219 101.878906 127.839844 101.578125 L 128.207031 101.941406 C 127.785156 102.386719 127.445312 102.6875 127.183594 102.847656 C 126.917969 103.007812 126.625 103.085938 126.296875 103.085938 C 126.019531 103.085938 125.792969 102.984375 125.625 102.78125 C 125.457031 102.574219 125.375 102.3125 125.375 101.996094 C 125.375 101.664062 125.433594 101.246094 125.554688 100.738281 L 126.039062 98.621094 C 126.136719 98.191406 126.1875 97.867188 126.1875 97.652344 C 126.1875 97.457031 126.140625 97.328125 126.050781 97.257812 C 125.957031 97.191406 125.773438 97.148438 125.503906 97.140625 L 125.574219 96.796875 Z M 126.976562 94.261719 L 128.117188 94.261719 L 127.820312 95.515625 L 126.679688 95.515625 Z M 126.976562 94.261719 "/>
<path style=" stroke:none;fill-rule:evenodd;fill:rgb(0%,0%,0%);fill-opacity:1;" d="M 136.347656 99.039062 L 147.304688 99.039062 L 147.304688 100.222656 L 136.347656 100.222656 Z M 136.347656 87.835938 L 147.339844 92.121094 L 147.339844 93.371094 L 136.347656 97.65625 L 136.347656 96.320312 L 145.875 92.746094 L 136.347656 89.171875 Z M 136.347656 87.835938 "/>
<path style=" stroke:none;fill-rule:evenodd;fill:rgb(0%,0%,0%);fill-opacity:1;" d="M 158.941406 86.9375 C 160.042969 86.9375 160.878906 87.175781 161.441406 87.664062 C 162.003906 88.148438 162.285156 88.851562 162.285156 89.769531 C 162.285156 90.085938 162.253906 90.375 162.191406 90.640625 C 162.128906 90.902344 162.03125 91.164062 161.898438 91.421875 C 161.765625 91.683594 161.585938 91.960938 161.359375 92.257812 C 161.136719 92.550781 160.886719 92.855469 160.613281 93.160156 C 160.339844 93.46875 159.871094 93.976562 159.199219 94.691406 C 158.074219 95.882812 157.246094 96.925781 156.71875 97.816406 L 160.070312 97.816406 C 160.363281 97.816406 160.59375 97.800781 160.773438 97.761719 C 160.953125 97.726562 161.09375 97.667969 161.199219 97.585938 C 161.308594 97.503906 161.390625 97.390625 161.453125 97.261719 C 161.515625 97.125 161.59375 96.921875 161.691406 96.640625 L 162.445312 96.640625 L 162.292969 99.242188 L 154.976562 99.242188 L 154.976562 98.816406 C 155.230469 98.191406 155.574219 97.550781 156.007812 96.898438 C 156.441406 96.246094 157.054688 95.476562 157.847656 94.589844 C 158.535156 93.828125 159.03125 93.253906 159.332031 92.863281 C 159.664062 92.433594 159.914062 92.066406 160.074219 91.753906 C 160.238281 91.441406 160.355469 91.148438 160.425781 90.871094 C 160.496094 90.59375 160.535156 90.316406 160.535156 90.039062 C 160.535156 89.59375 160.460938 89.199219 160.320312 88.859375 C 160.179688 88.515625 159.960938 88.246094 159.667969 88.050781 C 159.371094 87.855469 159.003906 87.753906 158.558594 87.753906 C 157.449219 87.753906 156.703125 88.375 156.316406 89.609375 L 155.242188 89.609375 L 155.242188 87.898438 C 155.960938 87.558594 156.632812 87.316406 157.257812 87.164062 C 157.882812 87.011719 158.445312 86.9375 158.941406 86.9375 Z M 158.941406 86.9375 "/>
<path style=" stroke:none;fill-rule:evenodd;fill:rgb(0%,0%,0%);fill-opacity:1;" d="M 183.558594 92.292969 L 185.425781 97.585938 L 187.675781 92.292969 Z M 180.421875 87.835938 L 182.019531 87.835938 L 183.140625 91.070312 L 188.191406 91.070312 L 189.550781 87.835938 L 191.019531 87.835938 L 186.03125 99.253906 L 184.671875 99.253906 Z M 180.421875 87.835938 "/>
<path style=" stroke:none;fill-rule:evenodd;fill:rgb(0%,0%,0%);fill-opacity:1;" d="M 195.109375 90.640625 L 195.636719 90.640625 L 194.355469 96.363281 C 194.222656 96.949219 194.15625 97.386719 194.15625 97.683594 C 194.15625 97.921875 194.199219 98.09375 194.273438 98.199219 C 194.351562 98.308594 194.472656 98.359375 194.640625 98.359375 C 194.816406 98.359375 195.007812 98.289062 195.207031 98.140625 C 195.410156 97.996094 195.695312 97.71875 196.0625 97.308594 L 196.566406 97.808594 C 195.988281 98.421875 195.515625 98.835938 195.152344 99.054688 C 194.792969 99.273438 194.386719 99.386719 193.9375 99.386719 C 193.550781 99.386719 193.242188 99.246094 193.011719 98.960938 C 192.78125 98.679688 192.664062 98.320312 192.664062 97.878906 C 192.664062 97.425781 192.75 96.851562 192.914062 96.148438 L 193.578125 93.238281 C 193.714844 92.640625 193.785156 92.199219 193.785156 91.898438 C 193.785156 91.632812 193.722656 91.453125 193.59375 91.359375 C 193.46875 91.261719 193.214844 91.207031 192.84375 91.195312 L 192.941406 90.722656 Z M 194.867188 87.230469 L 196.441406 87.230469 L 196.035156 88.960938 L 194.460938 88.960938 Z M 194.867188 87.230469 "/>
<path style=" stroke:none;fill-rule:evenodd;fill:rgb(0%,0%,0%);fill-opacity:1;" d="M 209.339844 88.746094 L 212.984375 88.746094 L 212.984375 89.984375 L 209.332031 89.984375 C 208.742188 89.984375 208.269531 90.015625 207.902344 90.082031 C 207.539062 90.148438 207.234375 90.253906 206.992188 90.398438 C 206.75 90.546875 206.527344 90.75 206.332031 91.015625 C 206.128906 91.285156 205.976562 91.613281 205.859375 92.003906 C 205.75 92.390625 205.679688 92.832031 205.648438 93.324219 L 212.984375 93.324219 L 212.984375 94.566406 L 205.640625 94.566406 C 205.667969 95.117188 205.75 95.609375 205.882812 96.035156 C 206.011719 96.460938 206.207031 96.824219 206.472656 97.125 C 206.734375 97.425781 207.074219 97.648438 207.496094 97.789062 C 207.910156 97.933594 208.488281 98.003906 209.222656 98.003906 L 212.984375 98.003906 L 212.984375 99.242188 L 209.1875 99.242188 C 208.609375 99.242188 208.105469 99.207031 207.675781 99.136719 C 207.25 99.066406 206.863281 98.949219 206.519531 98.789062 C 206.175781 98.628906 205.851562 98.386719 205.546875 98.0625 C 205.242188 97.738281 204.992188 97.378906 204.804688 96.988281 C 204.613281 96.59375 204.472656 96.152344 204.375 95.660156 C 204.28125 95.167969 204.234375 94.632812 204.234375 94.058594 C 204.234375 93.117188 204.328125 92.339844 204.511719 91.726562 C 204.695312 91.109375 205.003906 90.566406 205.433594 90.085938 C 205.867188 89.609375 206.386719 89.265625 206.992188 89.058594 C 207.59375 88.851562 208.378906 88.746094 209.339844 88.746094 Z M 209.339844 88.746094 "/>
<path style=" stroke:none;fill-rule:evenodd;fill:rgb(0%,0%,0%);fill-opacity:1;" d="M 308.117188 85.527344 L 308.347656 85.527344 C 309.738281 85.550781 310.78125 85.871094 311.472656 86.484375 C 312.164062 87.101562 312.507812 88.027344 312.507812 89.261719 C 312.507812 89.753906 312.4375 90.316406 312.300781 90.949219 C 312.160156 91.574219 312.09375 91.996094 312.09375 92.210938 C 312.09375 92.621094 312.230469 92.953125 312.515625 93.214844 C 312.796875 93.472656 313.21875 93.609375 313.789062 93.628906 L 313.789062 94.359375 C 313.21875 94.378906 312.796875 94.515625 312.515625 94.773438 C 312.230469 95.03125 312.09375 95.363281 312.09375 95.773438 C 312.09375 95.988281 312.160156 96.414062 312.300781 97.042969 C 312.4375 97.671875 312.507812 98.234375 312.507812 98.726562 C 312.507812 100.003906 312.164062 100.949219 311.472656 101.566406 C 310.78125 102.175781 309.738281 102.496094 308.347656 102.523438 L 308.117188 102.523438 L 308.117188 101.84375 L 308.25 101.84375 C 309.109375 101.84375 309.78125 101.621094 310.269531 101.171875 C 310.753906 100.722656 310.996094 99.960938 310.996094 98.886719 C 310.996094 98.46875 310.9375 97.957031 310.820312 97.34375 C 310.699219 96.734375 310.644531 96.296875 310.644531 96.035156 C 310.644531 95.53125 310.789062 95.113281 311.085938 94.792969 C 311.382812 94.46875 311.734375 94.226562 312.144531 94.074219 L 312.144531 93.914062 C 311.734375 93.761719 311.382812 93.519531 311.085938 93.199219 C 310.789062 92.871094 310.644531 92.457031 310.644531 91.953125 C 310.644531 91.691406 310.699219 91.253906 310.820312 90.640625 C 310.9375 90.03125 310.996094 89.515625 310.996094 89.101562 C 310.996094 88.066406 310.753906 87.328125 310.269531 86.878906 C 309.78125 86.429688 309.109375 86.203125 308.25 86.203125 L 308.117188 86.203125 Z M 225.75 85.527344 L 225.980469 85.527344 L 225.980469 86.203125 L 225.847656 86.203125 C 224.988281 86.203125 224.316406 86.429688 223.828125 86.878906 C 223.34375 87.328125 223.101562 88.066406 223.101562 89.09375 C 223.101562 89.507812 223.160156 90.023438 223.277344 90.636719 C 223.398438 91.246094 223.453125 91.683594 223.453125 91.945312 C 223.453125 92.449219 223.308594 92.863281 223.011719 93.1875 C 222.714844 93.511719 222.363281 93.75 221.953125 93.90625 L 221.953125 94.066406 C 222.363281 94.21875 222.714844 94.457031 223.011719 94.78125 C 223.308594 95.109375 223.453125 95.519531 223.453125 96.023438 C 223.453125 96.289062 223.398438 96.722656 223.277344 97.335938 C 223.160156 97.949219 223.101562 98.460938 223.101562 98.878906 C 223.101562 99.957031 223.34375 100.722656 223.828125 101.171875 C 224.316406 101.621094 224.988281 101.84375 225.847656 101.84375 L 225.980469 101.84375 L 225.980469 102.523438 L 225.75 102.523438 C 224.359375 102.496094 223.316406 102.175781 222.625 101.566406 C 221.933594 100.949219 221.589844 100 221.589844 98.71875 C 221.589844 98.222656 221.660156 97.664062 221.796875 97.03125 C 221.933594 96.402344 222.003906 95.980469 222.003906 95.765625 C 222.003906 95.359375 221.867188 95.023438 221.582031 94.765625 C 221.300781 94.507812 220.878906 94.367188 220.308594 94.351562 L 220.308594 93.621094 C 220.878906 93.601562 221.300781 93.460938 221.582031 93.203125 C 221.867188 92.949219 222.003906 92.613281 222.003906 92.203125 C 222.003906 91.988281 221.933594 91.566406 221.796875 90.9375 C 221.660156 90.308594 221.589844 89.746094 221.589844 89.253906 C 221.589844 88.023438 221.933594 87.101562 222.625 86.484375 C 223.316406 85.871094 224.359375 85.550781 225.75 85.527344 Z M 225.75 85.527344 "/>
<path style=" stroke:none;fill-rule:evenodd;fill:rgb(0%,0%,0%);fill-opacity:1;" d="M 232.292969 86.9375 L 232.78125 86.9375 C 232.746094 87.507812 232.726562 88.296875 232.726562 89.308594 L 232.726562 96.917969 C 232.726562 97.261719 232.746094 97.523438 232.785156 97.699219 C 232.824219 97.871094 232.890625 98.015625 232.988281 98.125 C 233.085938 98.234375 233.226562 98.320312 233.410156 98.382812 C 233.597656 98.445312 233.824219 98.492188 234.105469 98.523438 C 234.382812 98.558594 234.75 98.578125 235.207031 98.59375 L 235.207031 99.242188 L 228.636719 99.242188 L 228.636719 98.59375 C 229.292969 98.5625 229.765625 98.523438 230.046875 98.472656 C 230.328125 98.421875 230.542969 98.34375 230.6875 98.246094 C 230.839844 98.140625 230.945312 98 231.015625 97.816406 C 231.082031 97.632812 231.117188 97.332031 231.117188 96.917969 L 231.117188 89.691406 C 231.117188 89.453125 231.074219 89.277344 230.992188 89.167969 C 230.910156 89.058594 230.789062 89.003906 230.628906 89.003906 C 230.4375 89.003906 230.167969 89.101562 229.820312 89.296875 C 229.46875 89.496094 229.035156 89.765625 228.519531 90.109375 L 228.128906 89.421875 Z M 232.292969 86.9375 "/>
<path style=" stroke:none;fill-rule:evenodd;fill:rgb(0%,0%,0%);fill-opacity:1;" d="M 237.886719 97.175781 L 239.441406 97.175781 C 239.527344 97.589844 239.566406 98 239.566406 98.40625 C 239.566406 98.820312 239.496094 99.199219 239.355469 99.546875 C 239.210938 99.890625 238.984375 100.234375 238.671875 100.574219 C 238.359375 100.917969 237.933594 101.292969 237.386719 101.703125 L 236.910156 101.15625 C 237.210938 100.871094 237.429688 100.617188 237.566406 100.386719 C 237.703125 100.160156 237.800781 99.898438 237.859375 99.609375 C 237.917969 99.316406 237.949219 98.953125 237.949219 98.511719 C 237.949219 98.058594 237.925781 97.613281 237.886719 97.175781 Z M 237.886719 97.175781 "/>
<path style=" stroke:none;fill-rule:evenodd;fill:rgb(0%,0%,0%);fill-opacity:1;" d="M 248.570312 86.9375 C 249.675781 86.9375 250.503906 87.175781 251.070312 87.664062 C 251.632812 88.148438 251.914062 88.851562 251.914062 89.769531 C 251.914062 90.085938 251.882812 90.375 251.820312 90.640625 C 251.757812 90.902344 251.660156 91.164062 251.527344 91.421875 C 251.394531 91.683594 251.214844 91.960938 250.988281 92.257812 C 250.765625 92.550781 250.515625 92.855469 250.242188 93.160156 C 249.96875 93.46875 249.496094 93.976562 248.828125 94.691406 C 247.703125 95.882812 246.875 96.925781 246.347656 97.816406 L 249.699219 97.816406 C 249.992188 97.816406 250.226562 97.800781 250.402344 97.761719 C 250.582031 97.726562 250.722656 97.667969 250.828125 97.585938 C 250.9375 97.503906 251.023438 97.390625 251.085938 97.261719 C 251.148438 97.125 251.222656 96.921875 251.320312 96.640625 L 252.074219 96.640625 L 251.921875 99.242188 L 244.605469 99.242188 L 244.605469 98.816406 C 244.859375 98.191406 245.203125 97.550781 245.636719 96.898438 C 246.070312 96.246094 246.683594 95.476562 247.476562 94.589844 C 248.164062 93.828125 248.660156 93.253906 248.960938 92.863281 C 249.296875 92.433594 249.542969 92.066406 249.703125 91.753906 C 249.867188 91.441406 249.984375 91.148438 250.054688 90.871094 C 250.125 90.59375 250.164062 90.316406 250.164062 90.039062 C 250.164062 89.59375 250.089844 89.199219 249.949219 88.859375 C 249.808594 88.515625 249.589844 88.246094 249.296875 88.050781 C 249 87.855469 248.632812 87.753906 248.1875 87.753906 C 247.082031 87.753906 246.335938 88.375 245.949219 89.609375 L 244.871094 89.609375 L 244.871094 87.898438 C 245.589844 87.558594 246.257812 87.316406 246.886719 87.164062 C 247.511719 87.011719 248.074219 86.9375 248.570312 86.9375 Z M 248.570312 86.9375 "/>
<path style=" stroke:none;fill-rule:evenodd;fill:rgb(0%,0%,0%);fill-opacity:1;" d="M 254.796875 97.175781 L 256.351562 97.175781 C 256.4375 97.589844 256.476562 98 256.476562 98.40625 C 256.476562 98.820312 256.410156 99.199219 256.265625 99.546875 C 256.121094 99.890625 255.898438 100.234375 255.585938 100.574219 C 255.273438 100.917969 254.84375 101.292969 254.300781 101.703125 L 253.820312 101.15625 C 254.121094 100.871094 254.339844 100.617188 254.476562 100.386719 C 254.613281 100.160156 254.710938 99.898438 254.773438 99.609375 C 254.828125 99.316406 254.859375 98.953125 254.859375 98.511719 C 254.859375 98.058594 254.839844 97.613281 254.796875 97.175781 Z M 254.796875 97.175781 "/>
<path style=" stroke:none;fill-rule:evenodd;fill:rgb(0%,0%,0%);fill-opacity:1;" d="M 271.296875 97.175781 L 273.097656 97.175781 L 273.097656 99.242188 L 271.296875 99.242188 Z M 266.941406 97.175781 L 268.738281 97.175781 L 268.738281 99.242188 L 266.941406 99.242188 Z M 262.582031 97.175781 L 264.378906 97.175781 L 264.378906 99.242188 L 262.582031 99.242188 Z M 262.582031 97.175781 "/>
<path style=" stroke:none;fill-rule:evenodd;fill:rgb(0%,0%,0%);fill-opacity:1;" d="M 302.386719 87.695312 C 301.976562 87.695312 301.636719 87.816406 301.363281 88.058594 C 301.085938 88.300781 300.863281 88.652344 300.695312 89.109375 C 300.527344 89.566406 300.402344 90.125 300.335938 90.78125 C 300.261719 91.4375 300.226562 92.179688 300.226562 93.003906 C 300.226562 94.941406 300.40625 96.363281 300.765625 97.269531 C 301.125 98.175781 301.679688 98.628906 302.433594 98.628906 C 303.152344 98.628906 303.683594 98.203125 304.027344 97.351562 C 304.375 96.496094 304.546875 95.175781 304.546875 93.386719 C 304.546875 92.023438 304.460938 90.914062 304.285156 90.066406 C 304.105469 89.222656 303.855469 88.613281 303.539062 88.246094 C 303.222656 87.878906 302.839844 87.695312 302.386719 87.695312 Z M 292.410156 87.695312 C 292 87.695312 291.65625 87.816406 291.382812 88.058594 C 291.105469 88.300781 290.882812 88.652344 290.714844 89.109375 C 290.546875 89.566406 290.425781 90.125 290.355469 90.78125 C 290.28125 91.4375 290.246094 92.179688 290.246094 93.003906 C 290.246094 94.941406 290.425781 96.363281 290.785156 97.269531 C 291.144531 98.175781 291.699219 98.628906 292.453125 98.628906 C 293.171875 98.628906 293.703125 98.203125 294.050781 97.351562 C 294.398438 96.496094 294.570312 95.175781 294.570312 93.386719 C 294.570312 92.023438 294.480469 90.914062 294.304688 90.066406 C 294.125 89.222656 293.878906 88.613281 293.5625 88.246094 C 293.242188 87.878906 292.859375 87.695312 292.410156 87.695312 Z M 302.433594 86.9375 C 303.730469 86.9375 304.699219 87.4375 305.332031 88.441406 C 305.964844 89.449219 306.285156 90.964844 306.285156 92.996094 C 306.285156 95.101562 305.941406 96.691406 305.265625 97.765625 C 304.585938 98.84375 303.59375 99.386719 302.289062 99.386719 C 301.011719 99.386719 300.058594 98.878906 299.429688 97.871094 C 298.804688 96.859375 298.492188 95.328125 298.492188 93.273438 C 298.492188 92.179688 298.589844 91.234375 298.78125 90.4375 C 298.976562 89.640625 299.242188 88.984375 299.589844 88.464844 C 299.9375 87.945312 300.355469 87.558594 300.839844 87.308594 C 301.328125 87.058594 301.859375 86.9375 302.433594 86.9375 Z M 292.453125 86.9375 C 293.753906 86.9375 294.71875 87.4375 295.351562 88.441406 C 295.984375 89.449219 296.304688 90.964844 296.304688 92.996094 C 296.304688 95.101562 295.964844 96.691406 295.285156 97.765625 C 294.605469 98.84375 293.617188 99.386719 292.3125 99.386719 C 291.03125 99.386719 290.078125 98.878906 289.453125 97.871094 C 288.824219 96.859375 288.515625 95.328125 288.515625 93.273438 C 288.515625 92.179688 288.609375 91.234375 288.804688 90.4375 C 288.996094 89.640625 289.265625 88.984375 289.613281 88.464844 C 289.957031 87.945312 290.375 87.558594 290.863281 87.308594 C 291.347656 87.058594 291.878906 86.9375 292.453125 86.9375 Z M 282.882812 86.9375 L 283.371094 86.9375 C 283.335938 87.507812 283.320312 88.296875 283.320312 89.308594 L 283.320312 96.917969 C 283.320312 97.261719 283.335938 97.523438 283.378906 97.699219 C 283.414062 97.871094 283.480469 98.015625 283.582031 98.125 C 283.679688 98.234375 283.820312 98.320312 284.003906 98.382812 C 284.1875 98.445312 284.417969 98.492188 284.695312 98.523438 C 284.976562 98.558594 285.34375 98.578125 285.800781 98.59375 L 285.800781 99.242188 L 279.226562 99.242188 L 279.226562 98.59375 C 279.886719 98.5625 280.355469 98.523438 280.636719 98.472656 C 280.917969 98.421875 281.132812 98.34375 281.28125 98.246094 C 281.429688 98.140625 281.539062 98 281.605469 97.816406 C 281.675781 97.632812 281.707031 97.332031 281.707031 96.917969 L 281.707031 89.691406 C 281.707031 89.453125 281.667969 89.277344 281.582031 89.167969 C 281.5 89.058594 281.378906 89.003906 281.21875 89.003906 C 281.03125 89.003906 280.761719 89.101562 280.410156 89.296875 C 280.0625 89.496094 279.628906 89.765625 279.113281 90.109375 L 278.722656 89.421875 Z M 282.882812 86.9375 "/>
<path style=" stroke:none;fill-rule:evenodd;fill:rgb(0%,0%,0%);fill-opacity:1;" d="M 45.957031 91.648438 C 45.621094 91.648438 45.332031 91.703125 45.09375 91.808594 C 44.859375 91.910156 44.621094 92.074219 44.386719 92.292969 C 44.15625 92.511719 43.984375 92.726562 43.871094 92.941406 C 43.761719 93.15625 43.707031 93.398438 43.707031 93.671875 L 43.707031 96.035156 C 43.707031 96.492188 43.730469 96.855469 43.769531 97.125 C 43.8125 97.398438 43.882812 97.621094 43.980469 97.800781 C 44.078125 97.976562 44.21875 98.140625 44.40625 98.289062 C 44.59375 98.4375 44.800781 98.539062 45.035156 98.597656 C 45.265625 98.652344 45.523438 98.679688 45.808594 98.679688 C 46.519531 98.679688 47.058594 98.390625 47.425781 97.808594 C 47.792969 97.226562 47.976562 96.351562 47.976562 95.1875 C 47.976562 94.011719 47.808594 93.128906 47.472656 92.539062 C 47.140625 91.945312 46.632812 91.648438 45.957031 91.648438 Z M 60.269531 91.273438 C 59.660156 91.273438 59.171875 91.519531 58.804688 92.011719 C 58.441406 92.503906 58.226562 93.199219 58.160156 94.109375 L 62.046875 94.109375 C 62.011719 93.46875 61.933594 92.945312 61.808594 92.539062 C 61.683594 92.128906 61.496094 91.816406 61.246094 91.601562 C 61 91.386719 60.671875 91.273438 60.269531 91.273438 Z M 31.273438 90.722656 L 33.808594 90.722656 L 33.808594 95.261719 C 33.808594 95.953125 33.835938 96.484375 33.890625 96.84375 C 33.941406 97.207031 34.023438 97.480469 34.128906 97.664062 C 34.234375 97.851562 34.386719 98.003906 34.582031 98.128906 C 34.777344 98.253906 35.046875 98.316406 35.390625 98.316406 C 35.617188 98.316406 35.832031 98.273438 36.042969 98.183594 C 36.25 98.09375 36.480469 97.9375 36.734375 97.714844 C 36.988281 97.492188 37.171875 97.269531 37.28125 97.050781 C 37.390625 96.828125 37.445312 96.574219 37.445312 96.285156 L 37.445312 92.941406 C 37.445312 92.605469 37.4375 92.347656 37.417969 92.175781 C 37.402344 92.003906 37.371094 91.863281 37.332031 91.761719 C 37.289062 91.65625 37.238281 91.574219 37.183594 91.507812 C 37.128906 91.441406 37.046875 91.382812 36.945312 91.328125 C 36.839844 91.273438 36.671875 91.21875 36.441406 91.160156 L 36.441406 90.722656 L 38.976562 90.722656 L 38.976562 96.808594 C 38.976562 97.265625 38.984375 97.597656 39.003906 97.800781 C 39.019531 98 39.058594 98.164062 39.117188 98.28125 C 39.175781 98.398438 39.269531 98.496094 39.394531 98.570312 C 39.519531 98.644531 39.742188 98.714844 40.058594 98.78125 L 40.058594 99.242188 L 38.023438 99.332031 L 37.480469 99.332031 L 37.535156 97.871094 L 37.402344 97.835938 C 36.910156 98.371094 36.441406 98.761719 35.992188 99.011719 C 35.542969 99.261719 35.09375 99.386719 34.644531 99.386719 C 34.105469 99.386719 33.660156 99.277344 33.3125 99.066406 C 32.960938 98.851562 32.699219 98.53125 32.527344 98.109375 C 32.355469 97.683594 32.269531 97.082031 32.269531 96.308594 L 32.269531 92.941406 C 32.269531 92.441406 32.25 92.101562 32.210938 91.914062 C 32.175781 91.726562 32.101562 91.578125 31.992188 91.46875 C 31.878906 91.359375 31.640625 91.253906 31.273438 91.160156 Z M 53.3125 90.640625 L 53.855469 90.640625 L 53.855469 99.074219 C 53.855469 99.90625 53.769531 100.570312 53.597656 101.070312 C 53.425781 101.566406 53.128906 101.992188 52.703125 102.339844 C 52.28125 102.6875 51.691406 102.96875 50.929688 103.191406 L 50.628906 102.40625 C 50.996094 102.261719 51.277344 102.128906 51.46875 102 C 51.660156 101.871094 51.820312 101.726562 51.945312 101.554688 C 52.070312 101.386719 52.164062 101.15625 52.230469 100.871094 C 52.292969 100.585938 52.328125 100.222656 52.328125 99.777344 L 52.328125 93.15625 C 52.328125 92.691406 52.316406 92.359375 52.300781 92.15625 C 52.28125 91.957031 52.242188 91.796875 52.183594 91.683594 C 52.125 91.566406 52.035156 91.472656 51.910156 91.398438 C 51.785156 91.328125 51.558594 91.261719 51.234375 91.195312 L 51.234375 90.722656 Z M 69.207031 90.574219 C 69.691406 90.574219 70.140625 90.601562 70.550781 90.65625 C 70.964844 90.710938 71.378906 90.804688 71.792969 90.925781 L 71.792969 92.789062 L 70.664062 92.789062 C 70.5625 92.40625 70.4375 92.101562 70.289062 91.878906 C 70.140625 91.65625 69.96875 91.5 69.773438 91.410156 C 69.578125 91.320312 69.335938 91.273438 69.046875 91.273438 C 68.628906 91.273438 68.261719 91.410156 67.941406 91.675781 C 67.621094 91.945312 67.367188 92.351562 67.183594 92.898438 C 66.996094 93.445312 66.902344 94.113281 66.902344 94.902344 C 66.902344 95.40625 66.9375 95.871094 67.007812 96.289062 C 67.078125 96.707031 67.203125 97.066406 67.375 97.363281 C 67.546875 97.660156 67.773438 97.890625 68.058594 98.058594 C 68.34375 98.226562 68.695312 98.308594 69.117188 98.308594 C 69.527344 98.308594 69.90625 98.226562 70.257812 98.066406 C 70.613281 97.90625 70.976562 97.621094 71.355469 97.21875 L 71.863281 97.808594 C 71.5625 98.140625 71.296875 98.398438 71.0625 98.578125 C 70.832031 98.761719 70.585938 98.914062 70.320312 99.03125 C 70.058594 99.15625 69.796875 99.246094 69.539062 99.300781 C 69.28125 99.359375 69 99.386719 68.699219 99.386719 C 67.578125 99.386719 66.722656 99.011719 66.128906 98.265625 C 65.535156 97.523438 65.238281 96.445312 65.238281 95.039062 C 65.238281 94.15625 65.40625 93.378906 65.738281 92.699219 C 66.070312 92.015625 66.535156 91.492188 67.132812 91.125 C 67.730469 90.757812 68.421875 90.574219 69.207031 90.574219 Z M 60.359375 90.574219 C 60.957031 90.574219 61.464844 90.667969 61.886719 90.859375 C 62.308594 91.046875 62.644531 91.308594 62.898438 91.636719 C 63.148438 91.96875 63.34375 92.382812 63.484375 92.886719 C 63.621094 93.386719 63.703125 94.042969 63.71875 94.851562 L 58.117188 94.851562 L 58.117188 95.011719 C 58.117188 95.710938 58.195312 96.300781 58.351562 96.777344 C 58.507812 97.257812 58.765625 97.628906 59.125 97.902344 C 59.484375 98.171875 59.953125 98.308594 60.527344 98.308594 C 61.011719 98.308594 61.449219 98.21875 61.839844 98.035156 C 62.226562 97.855469 62.613281 97.558594 63 97.148438 L 63.542969 97.726562 C 63.160156 98.125 62.8125 98.4375 62.496094 98.664062 C 62.179688 98.890625 61.832031 99.066406 61.453125 99.191406 C 61.074219 99.324219 60.652344 99.386719 60.199219 99.386719 C 58.976562 99.386719 58.054688 99.015625 57.433594 98.285156 C 56.808594 97.550781 56.5 96.46875 56.5 95.039062 C 56.5 94.152344 56.65625 93.371094 56.972656 92.691406 C 57.292969 92.015625 57.742188 91.492188 58.332031 91.125 C 58.917969 90.757812 59.59375 90.574219 60.359375 90.574219 Z M 26.957031 90.574219 C 27.347656 90.574219 27.722656 90.59375 28.089844 90.628906 C 28.453125 90.667969 28.910156 90.746094 29.460938 90.859375 L 29.460938 92.675781 L 28.609375 92.675781 C 28.480469 92.316406 28.324219 92.039062 28.148438 91.832031 C 27.96875 91.628906 27.765625 91.484375 27.542969 91.398438 C 27.316406 91.316406 27.042969 91.273438 26.714844 91.273438 C 26.242188 91.273438 25.863281 91.386719 25.582031 91.609375 C 25.300781 91.832031 25.160156 92.136719 25.160156 92.523438 C 25.160156 92.796875 25.214844 93.023438 25.328125 93.199219 C 25.441406 93.378906 25.617188 93.546875 25.851562 93.699219 C 26.089844 93.855469 26.507812 94.058594 27.105469 94.316406 C 27.710938 94.574219 28.179688 94.816406 28.507812 95.039062 C 28.835938 95.257812 29.09375 95.511719 29.28125 95.800781 C 29.46875 96.09375 29.5625 96.441406 29.5625 96.84375 C 29.5625 97.316406 29.480469 97.710938 29.320312 98.03125 C 29.160156 98.351562 28.933594 98.613281 28.644531 98.816406 C 28.355469 99.015625 28.007812 99.164062 27.609375 99.253906 C 27.207031 99.339844 26.769531 99.386719 26.296875 99.386719 C 25.800781 99.386719 25.316406 99.347656 24.847656 99.273438 C 24.378906 99.199219 23.921875 99.101562 23.476562 98.984375 L 23.476562 97.121094 L 24.347656 97.121094 C 24.507812 97.667969 24.746094 98.066406 25.0625 98.3125 C 25.375 98.558594 25.808594 98.679688 26.359375 98.679688 C 26.574219 98.679688 26.78125 98.660156 26.984375 98.613281 C 27.191406 98.570312 27.371094 98.496094 27.53125 98.390625 C 27.691406 98.289062 27.820312 98.148438 27.914062 97.96875 C 28.011719 97.789062 28.058594 97.566406 28.058594 97.300781 C 28.058594 96.996094 28 96.75 27.878906 96.558594 C 27.761719 96.371094 27.578125 96.199219 27.328125 96.039062 C 27.078125 95.882812 26.640625 95.671875 26.011719 95.402344 C 25.472656 95.175781 25.039062 94.957031 24.714844 94.742188 C 24.386719 94.527344 24.132812 94.273438 23.945312 93.984375 C 23.757812 93.695312 23.664062 93.351562 23.664062 92.953125 C 23.664062 92.464844 23.796875 92.039062 24.0625 91.683594 C 24.324219 91.324219 24.707031 91.046875 25.203125 90.859375 C 25.703125 90.667969 26.285156 90.574219 26.957031 90.574219 Z M 74.199219 88.523438 L 75.464844 88.523438 L 75.464844 90.722656 L 78.335938 90.722656 L 78.335938 91.621094 L 75.464844 91.621094 L 75.464844 95.589844 C 75.464844 96.164062 75.488281 96.625 75.535156 96.964844 C 75.582031 97.308594 75.671875 97.574219 75.800781 97.765625 C 75.933594 97.960938 76.078125 98.101562 76.246094 98.183594 C 76.410156 98.265625 76.625 98.308594 76.886719 98.308594 C 77.125 98.308594 77.34375 98.257812 77.554688 98.160156 C 77.761719 98.0625 77.964844 97.921875 78.167969 97.738281 L 78.566406 98.21875 C 78.144531 98.628906 77.746094 98.925781 77.371094 99.109375 C 76.996094 99.292969 76.605469 99.386719 76.203125 99.386719 C 75.4375 99.386719 74.867188 99.15625 74.492188 98.703125 C 74.121094 98.25 73.933594 97.539062 73.933594 96.570312 L 73.933594 91.621094 L 72.617188 91.621094 L 72.617188 91.171875 C 72.914062 91.121094 73.15625 91.039062 73.339844 90.921875 C 73.523438 90.800781 73.664062 90.648438 73.769531 90.460938 C 73.875 90.273438 73.953125 90.039062 74.015625 89.757812 C 74.074219 89.476562 74.136719 89.0625 74.199219 88.523438 Z M 52.273438 87.230469 L 53.902344 87.230469 L 53.902344 88.960938 L 52.273438 88.960938 Z M 43.183594 86.488281 L 43.707031 86.488281 L 43.707031 92.121094 L 43.742188 92.132812 C 44.160156 91.699219 44.503906 91.382812 44.78125 91.1875 C 45.054688 90.988281 45.339844 90.839844 45.632812 90.738281 C 45.925781 90.632812 46.25 90.578125 46.597656 90.578125 C 47.234375 90.578125 47.777344 90.742188 48.230469 91.066406 C 48.683594 91.390625 49.035156 91.875 49.28125 92.523438 C 49.527344 93.171875 49.648438 93.964844 49.648438 94.902344 C 49.648438 95.871094 49.5 96.691406 49.207031 97.359375 C 48.914062 98.023438 48.480469 98.53125 47.910156 98.871094 C 47.335938 99.214844 46.660156 99.386719 45.878906 99.386719 C 45.4375 99.386719 45.027344 99.34375 44.636719 99.265625 C 44.25 99.183594 43.839844 99.042969 43.414062 98.84375 L 42.792969 99.386719 L 42.179688 99.242188 L 42.179688 89.554688 C 42.179688 88.984375 42.175781 88.585938 42.164062 88.363281 C 42.15625 88.136719 42.132812 87.945312 42.09375 87.789062 C 42.054688 87.628906 42.003906 87.507812 41.933594 87.417969 C 41.867188 87.328125 41.773438 87.257812 41.660156 87.203125 C 41.542969 87.148438 41.332031 87.097656 41.03125 87.042969 L 41.03125 86.578125 Z M 43.183594 86.488281 "/>
<path style=" stroke:none;fill-rule:evenodd;fill:rgb(0%,0%,0%);fill-opacity:1;" d="M 93.605469 91.273438 C 92.886719 91.273438 92.335938 91.585938 91.957031 92.210938 C 91.574219 92.835938 91.382812 93.722656 91.382812 94.875 C 91.382812 96.101562 91.574219 97.039062 91.964844 97.699219 C 92.351562 98.351562 92.910156 98.679688 93.632812 98.679688 C 94.027344 98.679688 94.367188 98.585938 94.644531 98.390625 C 94.925781 98.199219 95.152344 97.9375 95.324219 97.613281 C 95.5 97.285156 95.625 96.90625 95.703125 96.476562 C 95.78125 96.046875 95.820312 95.59375 95.820312 95.125 C 95.820312 94.253906 95.722656 93.527344 95.53125 92.953125 C 95.335938 92.375 95.074219 91.953125 94.742188 91.683594 C 94.410156 91.410156 94.03125 91.273438 93.605469 91.273438 Z M 93.640625 90.574219 C 94.910156 90.574219 95.871094 90.941406 96.523438 91.683594 C 97.175781 92.421875 97.5 93.484375 97.5 94.867188 C 97.5 95.851562 97.335938 96.683594 97.011719 97.363281 C 96.683594 98.039062 96.222656 98.546875 95.625 98.882812 C 95.023438 99.21875 94.316406 99.386719 93.5 99.386719 C 92.265625 99.386719 91.324219 99.023438 90.675781 98.292969 C 90.027344 97.566406 89.699219 96.488281 89.699219 95.0625 C 89.699219 94.082031 89.871094 93.253906 90.210938 92.578125 C 90.554688 91.898438 91.019531 91.398438 91.613281 91.066406 C 92.207031 90.738281 92.882812 90.574219 93.640625 90.574219 Z M 84.441406 88.523438 L 85.707031 88.523438 L 85.707031 90.722656 L 88.578125 90.722656 L 88.578125 91.621094 L 85.707031 91.621094 L 85.707031 95.589844 C 85.707031 96.164062 85.730469 96.625 85.777344 96.964844 C 85.824219 97.308594 85.914062 97.574219 86.042969 97.765625 C 86.171875 97.960938 86.320312 98.101562 86.488281 98.183594 C 86.652344 98.265625 86.867188 98.308594 87.128906 98.308594 C 87.363281 98.308594 87.585938 98.257812 87.792969 98.160156 C 88.003906 98.0625 88.207031 97.921875 88.410156 97.738281 L 88.808594 98.21875 C 88.386719 98.628906 87.988281 98.925781 87.613281 99.109375 C 87.234375 99.292969 86.847656 99.386719 86.441406 99.386719 C 85.679688 99.386719 85.109375 99.15625 84.734375 98.703125 C 84.363281 98.25 84.175781 97.539062 84.175781 96.570312 L 84.175781 91.621094 L 82.859375 91.621094 L 82.859375 91.171875 C 83.15625 91.121094 83.394531 91.039062 83.578125 90.921875 C 83.761719 90.800781 83.90625 90.648438 84.011719 90.460938 C 84.113281 90.273438 84.195312 90.039062 84.253906 89.757812 C 84.316406 89.476562 84.378906 89.0625 84.441406 88.523438 Z M 84.441406 88.523438 "/>
</g>
</svg>
