<svg width="2992" height="528" xmlns="http://www.w3.org/2000/svg" xmlns:xlink="http://www.w3.org/1999/xlink" xml:space="preserve" overflow="hidden"><g transform="translate(-165 -430)"><rect x="167.5" y="663.5" width="501" height="126" stroke="#000000" stroke-width="4.58333" stroke-miterlimit="8" fill="none"/><text font-family="Courier New,Courier New_MSFontService,sans-serif" font-weight="400" font-size="55" transform="matrix(1 0 0 1 201.199 741)">Q=0; M=”Idle”</text><path d="M894.5 726.5C894.5 661.883 988.968 609.5 1105.5 609.5 1222.03 609.5 1316.5 661.883 1316.5 726.5 1316.5 791.117 1222.03 843.5 1105.5 843.5 988.968 843.5 894.5 791.117 894.5 726.5Z" stroke="#000000" stroke-width="4.58333" stroke-miterlimit="8" fill="none" fill-rule="evenodd"/><text font-family="Courier New,Courier New_MSFontService,sans-serif" font-weight="400" font-size="55" transform="matrix(1 0 0 1 1005.34 741)">Arrive</text><text font-family="Courier New,Courier New_MSFontService,sans-serif" font-weight="400" font-size="55" transform="matrix(1 0 0 1 989.563 907)">{Q=Q+1}</text><path d="M0.0326359-1.14537 7.65021-0.928315 15.2837-0.283694 22.8851 0.773549 30.4396 2.22943 37.9323 4.07 45.3612 6.28512 59.8924 11.7598 73.9541 18.5565 87.4158 26.5604 100.16 35.6621 112.069 45.7526 123.026 56.7235 132.911 68.4668 141.606 80.8747 148.985 93.8266 152.155 100.497 154.947 107.253 157.352 114.095 159.354 121.009 160.937 127.981 162.088 134.997 162.789 142.044 163.026 149.107 162.796 156.168 162.114 163.213 160.997 170.228 159.459 177.198 157.514 184.11 155.173 190.965 149.392 204.363 142.215 217.327 133.766 229.735 124.161 241.479 113.514 252.451 101.94 262.542 89.5546 271.646 76.4711 279.651 62.8038 286.45 48.6801 291.926 41.4583 294.142 34.1408 295.992 27.5214 296.889 27.2136 294.618 33.7688 293.73 33.6419 293.754 40.8688 291.927 40.8134 291.943 47.9683 289.747 47.8902 289.774 61.9263 284.332 61.8302 284.375 75.4055 277.622 75.3178 277.67 88.317 269.716 88.2365 269.77 100.544 260.724 100.47 260.784 111.972 250.755 111.902 250.82 122.482 239.918 122.418 239.99 131.961 228.323 131.9 228.404 140.291 216.081 140.236 216.171 147.36 203.303 147.31 203.404 153.051 190.098 153.019 190.182 155.335 183.4 155.316 183.459 157.244 176.609 157.228 176.672 158.752 169.767 158.739 169.834 159.846 162.888 159.837 162.957 160.511 155.984 160.507 156.057 160.735 149.07 160.735 149.146 160.5 142.159 160.505 142.234 159.811 135.26 159.82 135.332 158.682 128.386 158.695 128.454 157.126 121.549 157.143 121.614 155.16 114.763 155.179 114.825 152.796 108.042 152.818 108.1 150.049 101.399 150.073 101.454 146.933 94.8488 146.973 94.9241 139.641 82.0556 139.699 82.146 131.063 69.8235 131.125 69.9038 121.304 58.2366 121.37 58.3084 110.482 47.4057 110.552 47.4702 98.7149 37.4412 98.7897 37.4994 86.123 28.4532 86.2034 28.5057 72.8254 20.5516 72.9123 20.5983 58.9415 13.8455 59.0362 13.8862 44.5911 8.44389 44.6677 8.46969 37.3043 6.27413 37.3584 6.28882 29.921 4.46184 29.9775 4.47422 22.4808 3.02947 22.5398 3.03925 14.9986 1.99038 15.06 1.99724 7.48921 1.35791 7.55299 1.36151-0.0326359 1.14537ZM33.4007 308.932 4.58333 298.214 30.448 281.591Z" transform="matrix(-1.83697e-16 -1 -1 1.83697e-16 1256.21 645.584)"/><path d="M1316 724.854 1780.89 724.854 1780.89 727.146 1316 727.146ZM1776.31 712.25 1803.81 726 1776.31 739.75Z"/><text font-family="Courier New,Courier New_MSFontService,sans-serif" font-weight="400" font-size="55" transform="matrix(1 0 0 1 1373.62 678)">(M</text><text font-family="Courier New,Courier New_MSFontService,sans-serif" font-weight="400" font-size="55" transform="matrix(1 0 0 1 1440.08 678)">==</text><text font-family="Courier New,Courier New_MSFontService,sans-serif" font-weight="400" font-size="55" transform="matrix(1 0 0 1 1506.54 678)">”</text><text font-family="Courier New,Courier New_MSFontService,sans-serif" font-weight="400" font-size="55" transform="matrix(1 0 0 1 1539.77 678)">Idle”)</text><text font-family="Courier New,Courier New_MSFontService,sans-serif" font-weight="400" font-size="55" transform="matrix(1 0 0 1 1541.76 744)">/</text><path d="M668 724.854 871.39 724.854 871.39 727.146 668 727.146ZM866.807 712.25 894.306 726 866.806 739.75Z"/><path d="M1804.5 726.5C1804.5 661.883 1898.74 609.5 2015 609.5 2131.26 609.5 2225.5 661.883 2225.5 726.5 2225.5 791.117 2131.26 843.5 2015 843.5 1898.74 843.5 1804.5 791.117 1804.5 726.5Z" stroke="#000000" stroke-width="4.58333" stroke-miterlimit="8" fill="none" fill-rule="evenodd"/><text font-family="Courier New,Courier New_MSFontService,sans-serif" font-weight="400" font-size="55" transform="matrix(1 0 0 1 1931.51 741)">Start</text><path d="M2713.5 726.5C2713.5 661.883 2807.97 609.5 2924.5 609.5 3041.03 609.5 3135.5 661.883 3135.5 726.5 3135.5 791.117 3041.03 843.5 2924.5 843.5 2807.97 843.5 2713.5 791.117 2713.5 726.5Z" stroke="#000000" stroke-width="4.58333" stroke-miterlimit="8" fill="none" fill-rule="evenodd"/><text font-family="Courier New,Courier New_MSFontService,sans-serif" font-weight="400" font-size="55" transform="matrix(1 0 0 1 2841.06 741)">Leave</text><path d="M2225 724.854 2689.89 724.854 2689.89 727.146 2225 727.146ZM2685.31 712.25 2712.81 726 2685.31 739.75Z"/><text font-family="Courier New,Courier New_MSFontService,sans-serif" font-weight="400" font-size="55" transform="matrix(1 0 0 1 1762.61 907)">{M</text><text font-family="Courier New,Courier New_MSFontService,sans-serif" font-weight="400" font-size="55" transform="matrix(1 0 0 1 1829.06 907)">=”Busy”; Q=Q</text><text font-family="Courier New,Courier New_MSFontService,sans-serif" font-weight="400" font-size="55" transform="matrix(1 0 0 1 2227.81 907)">-</text><text font-family="Courier New,Courier New_MSFontService,sans-serif" font-weight="400" font-size="55" transform="matrix(1 0 0 1 2261.04 907)">1</text><text font-family="Courier New,Courier New_MSFontService,sans-serif" font-weight="400" font-size="55" transform="matrix(1 0 0 1 2294.27 907)">}</text><path d="M0.120604-1.13947 6.46252-0.468224 12.8824 1.5456 19.2362 4.82825 25.5143 9.32249 31.7121 14.9779 37.8258 21.7494 43.8496 29.5946 49.7761 38.4726 55.5966 48.3429 61.3012 59.1647 66.8794 70.8976 72.3203 83.5008 77.6124 96.9332 82.7442 111.154 87.7041 126.122 92.48 141.796 97.0602 158.134 101.433 175.095 105.585 192.639 109.506 210.723 113.183 229.305 116.604 248.346 119.757 267.802 122.63 287.637 127.485 328.251 131.074 369.87 133.299 412.15 133.87 433.444 134.063 454.775 133.876 476.105 133.325 497.398 131.178 539.678 127.712 581.295 123.025 621.908 120.251 641.742 117.207 661.198 113.904 680.237 110.354 698.82 106.568 716.903 102.559 734.446 98.3374 751.406 93.9153 767.744 89.3042 783.417 84.5156 798.384 79.561 812.604 74.4516 826.036 69.1987 838.639 63.8131 850.371 58.3054 861.192 52.6859 871.062 46.9639 879.94 41.1476 887.785 35.1919 894.617 26.1451 901.074 24.8139 899.209 33.7511 892.83 33.553 893.01 39.3904 886.314 39.3336 886.384 45.1006 878.605 45.0579 878.667 50.7426 869.847 50.71 869.901 56.3007 860.082 56.2753 860.129 61.7602 849.352 61.74 849.394 67.1075 837.701 67.0912 837.738 72.3294 825.171 72.3161 825.205 77.4133 811.805 77.4022 811.835 82.3467 797.644 82.3374 797.672 87.1174 782.732 87.1095 782.757 91.7133 767.109 91.7065 767.133 96.1222 750.819 96.1164 750.842 100.332 733.903 100.327 733.924 104.332 716.402 104.327 716.423 108.109 698.36 108.105 698.38 111.651 679.817 111.647 679.836 114.947 660.816 114.944 660.834 117.985 641.397 117.982 641.416 120.753 621.604 120.75 621.631 125.434 581.05 125.43 581.086 128.892 539.506 128.89 539.543 131.036 497.296 131.035 497.325 131.585 476.056 131.585 476.076 131.771 454.765 131.771 454.785 131.578 433.475 131.579 433.495 131.009 412.226 131.01 412.256 128.787 370.009 128.79 370.047 125.204 328.467 125.208 328.505 120.356 287.923 120.36 287.952 117.49 268.14 117.493 268.159 114.344 248.722 114.347 248.741 110.929 229.721 110.933 229.74 107.26 211.178 107.264 211.198 103.348 193.135 103.353 193.156 99.2053 175.634 99.2107 175.656 94.8441 158.718 94.8504 158.741 90.2769 142.426 90.2841 142.451 85.516 126.803 85.5244 126.829 80.5737 111.889 80.5835 111.918 75.4624 97.7267 75.4742 97.7578 70.1949 84.358 70.209 84.3921 64.7837 71.825 64.8009 71.8629 59.2417 60.1701 59.2629 60.2124 53.5821 49.4357 53.6087 49.4834 47.8183 39.6643 47.8523 39.7184 41.9646 30.8985 42.0088 30.9602 36.0359 23.1812 36.0942 23.2512 30.0483 16.5548 30.1265 16.6334 24.0197 11.0611 24.1251 11.1464 17.9697 6.73991 18.1107 6.8262 11.9188 3.62718 12.1018 3.70249 5.88549 1.75254 6.10784 1.7987-0.120604 1.13947ZM35.304 910.797 4.58333 909.55 24.0135 885.722Z" transform="matrix(-1.83697e-16 -1 -1 1.83697e-16 2926.55 611.583)"/><text font-family="Courier New,Courier New_MSFontService,sans-serif" font-weight="400" font-size="55" transform="matrix(1 0 0 1 1259.04 593)">t</text><text font-family="Courier New,Courier New_MSFontService,sans-serif" font-weight="400" font-size="37" transform="matrix(1 0 0 1 1292.27 593)">a</text><text font-family="Courier New,Courier New_MSFontService,sans-serif" font-weight="400" font-size="55" transform="matrix(1 0 0 1 2441.26 706)">t</text><text font-family="Courier New,Courier New_MSFontService,sans-serif" font-weight="400" font-size="37" transform="matrix(1 0 0 1 2474.49 706)">s</text><text font-family="Courier New,Courier New_MSFontService,sans-serif" font-weight="400" font-size="55" transform="matrix(1 0 0 1 2452.46 496)">/</text><text font-family="Courier New,Courier New_MSFontService,sans-serif" font-weight="400" font-size="55" transform="matrix(1 0 0 1 2385.15 562)">(Q&gt;0)</text><text font-family="Courier New,Courier New_MSFontService,sans-serif" font-weight="400" font-size="55" transform="matrix(1 0 0 1 2788.04 907)">{M</text><text font-family="Courier New,Courier New_MSFontService,sans-serif" font-weight="400" font-size="55" transform="matrix(1 0 0 1 2854.5 907)">=”Idle”</text><text font-family="Courier New,Courier New_MSFontService,sans-serif" font-weight="400" font-size="55" transform="matrix(1 0 0 1 3087.1 907)">}</text></g></svg>