<?xml version="1.0" encoding="utf-8"?>
<!-- Generator: Adobe Illustrator 16.0.0, SVG Export Plug-In . SVG Version: 6.00 Build 0)  -->
<!DOCTYPE svg PUBLIC "-//W3C//DTD SVG 1.1//EN" "http://www.w3.org/Graphics/SVG/1.1/DTD/svg11.dtd">
<svg version="1.1"
	 id="svg29" xmlns:inkscape="http://www.inkscape.org/namespaces/inkscape" xmlns:sodipodi="http://sodipodi.sourceforge.net/DTD/sodipodi-0.dtd" xmlns:svg="http://www.w3.org/2000/svg" inkscape:version="1.2.2 (732a01da63, 2022-12-09)" sodipodi:docname="new.svg"
	 xmlns="http://www.w3.org/2000/svg" xmlns:xlink="http://www.w3.org/1999/xlink" x="0px" y="0px" width="24px" height="24px"
	 viewBox="0 0 24 24" enable-background="new 0 0 24 24" xml:space="preserve">
<sodipodi:namedview  inkscape:cy="12" inkscape:cx="7.990172" inkscape:zoom="33.916667" showgrid="false" borderopacity="0.25" bordercolor="#000000" pagecolor="#ffffff" id="namedview31" inkscape:current-layer="svg29" inkscape:window-width="1920" inkscape:window-y="-8" inkscape:deskcolor="#d1d1d1" inkscape:pagecheckerboard="0" inkscape:window-maximized="1" inkscape:pageopacity="0.0" inkscape:showpageshadow="2" inkscape:window-x="-8" inkscape:window-height="1017">
	</sodipodi:namedview>
<title  id="title22">ic_fluent_document_24_regular</title>
<desc  id="desc24">Created with Sketch.</desc>
<g id="_xD83D__xDD0D_-Product-Icons" inkscape:highlight-color="#000000">
	<g id="ic_fluent_document_24_regular">
		<path id="_xD83C__xDFA8_-Color" d="M18.5,20c0,0.275-0.225,0.5-0.5,0.5H6c-0.276,0-0.5-0.225-0.5-0.5V4c0-0.275,0.224-0.5,0.5-0.5
			h6V8c0,1.104,0.896,2,2,2h4.5V20z M13.5,4.621L17.378,8.5H14c-0.275,0-0.5-0.225-0.5-0.5V4.621z M19.414,8.414l-5.829-5.828
			C13.559,2.56,13.527,2.54,13.5,2.516c-0.07-0.064-0.141-0.127-0.219-0.18c-0.04-0.027-0.086-0.045-0.129-0.068
			c-0.07-0.04-0.141-0.084-0.215-0.116c-0.197-0.082-0.41-0.123-0.625-0.138C12.266,2.011,12.22,2,12.172,2h-0.001H12H6
			C4.896,2,4,2.896,4,4v16c0,1.104,0.896,2,2,2h12c1.104,0,2-0.896,2-2V10V9.828C20,9.298,19.789,8.789,19.414,8.414z"/>
	</g>
</g>
</svg>
