<?xml version="1.0" encoding="utf-8"?>
<!-- Generator: Adobe Illustrator 16.0.0, SVG Export Plug-In . SVG Version: 6.00 Build 0)  -->
<!DOCTYPE svg PUBLIC "-//W3C//DTD SVG 1.1//EN" "http://www.w3.org/Graphics/SVG/1.1/DTD/svg11.dtd">
<svg version="1.1" id="图层_1" xmlns="http://www.w3.org/2000/svg" xmlns:xlink="http://www.w3.org/1999/xlink" x="0px" y="0px"
	 width="24px" height="24px" viewBox="0 0 24 24" enable-background="new 0 0 24 24" xml:space="preserve">
<title>ic_fluent_play_24_regular</title>
<desc>Created with Sketch.</desc>
<g>
	<rect x="1.953" y="2.038" fill="none" width="20.094" height="19.925"/>
	<path fill="none" stroke="#000000" stroke-width="1.5" stroke-miterlimit="8" d="M3.366,6.249c0-1.588,0.421-2.877,0.939-2.877
		h3.756C8.58,3.372,9,4.661,9,6.249v11.503c0,1.59-0.42,2.877-0.939,2.877H4.305c-0.518,0-0.939-1.287-0.939-2.877V6.249z"/>
	<path fill="none" stroke="#000000" stroke-width="1.5" stroke-miterlimit="8" d="M15.001,6.249c0-1.588,0.421-2.877,0.938-2.877
		h3.756c0.52,0,0.939,1.289,0.939,2.877v11.503c0,1.59-0.42,2.877-0.939,2.877h-3.756c-0.518,0-0.938-1.287-0.938-2.877V6.249z"/>
</g>
</svg>
