<?xml version="1.0" encoding="utf-8"?>
<!-- Generator: Adobe Illustrator 16.0.0, SVG Export Plug-In . SVG Version: 6.00 Build 0)  -->
<!DOCTYPE svg PUBLIC "-//W3C//DTD SVG 1.1//EN" "http://www.w3.org/Graphics/SVG/1.1/DTD/svg11.dtd">
<svg version="1.1" id="图层_1" xmlns="http://www.w3.org/2000/svg" xmlns:xlink="http://www.w3.org/1999/xlink" x="0px" y="0px"
	 width="24px" height="24px" viewBox="0 0 24 24" enable-background="new 0 0 24 24" xml:space="preserve">
<title>ic_fluent_play_24_regular</title>
<desc>Created with Sketch.</desc>
<g>
	<g>
		<g>
			<path d="M10.052,3.002c-2.118,0-4.236,0-6.354,0.001c-0.967,0-0.967,1.5,0,1.5c2.118,0,4.236,0,6.354-0.001
				C11.019,4.502,11.019,3.002,10.052,3.002L10.052,3.002z"/>
		</g>
	</g>
	<g>
		<g>
			<path d="M2.948,3.753c0,5.499,0,10.997,0,16.495c0,0.968,1.5,0.968,1.5,0c0-5.498,0-10.997,0-16.495
				C4.448,2.786,2.948,2.786,2.948,3.753L2.948,3.753z"/>
		</g>
	</g>
	<g>
		<g>
			<path d="M3.698,20.998c5.534,0,11.067,0,16.602,0c0.968,0,0.968-1.5,0-1.5c-5.534,0-11.068,0-16.602,0
				C2.731,19.498,2.731,20.998,3.698,20.998L3.698,20.998z"/>
		</g>
	</g>
	<g>
		<g>
			<path d="M21.05,20.248c0-2.073,0-4.146,0-6.219c0-0.968-1.5-0.968-1.5,0c0,2.073,0,4.146,0,6.219
				C19.55,21.216,21.05,21.216,21.05,20.248L21.05,20.248z"/>
		</g>
	</g>
	<g>
		<g>
			<path d="M21.052,9.968c0-2.072,0-4.143,0-6.215c0-0.967-1.5-0.967-1.5,0c0,2.072,0,4.143,0,6.215
				C19.552,10.935,21.052,10.935,21.052,9.968L21.052,9.968z"/>
		</g>
	</g>
	<g>
		<g>
			<path d="M20.302,3.003c-2.077,0-4.153,0-6.23,0c-0.968,0-0.968,1.5,0,1.5c2.077,0,4.153,0,6.23,0
				C21.27,4.503,21.27,3.003,20.302,3.003L20.302,3.003z"/>
		</g>
	</g>
	<g>
		<g>
			<path d="M19.771,3.223c-2.274,2.34-4.55,4.68-6.824,7.02c-0.674,0.693,0.386,1.755,1.061,1.061c2.274-2.34,4.55-4.68,6.824-7.02
				C21.507,3.59,20.446,2.528,19.771,3.223L19.771,3.223z"/>
		</g>
	</g>
</g>
</svg>
